<?xml version="1.0" encoding="UTF-8" standalone="no"?>
<svg
   xmlns:dc="http://purl.org/dc/elements/1.1/"
   xmlns:cc="http://creativecommons.org/ns#"
   xmlns:rdf="http://www.w3.org/1999/02/22-rdf-syntax-ns#"
   xmlns:svg="http://www.w3.org/2000/svg"
   xmlns="http://www.w3.org/2000/svg"
   id="svg13348"
   version="1.1"
   viewBox="0 0 58.765953 61.39912"
   height="61.39912mm"
   width="58.765953mm">
  <defs
     id="defs13342" />
  <metadata
     id="metadata13345">
    <rdf:RDF>
      <cc:Work
         rdf:about="">
        <dc:format>image/svg+xml</dc:format>
        <dc:type
           rdf:resource="http://purl.org/dc/dcmitype/StillImage" />
        <dc:title></dc:title>
      </cc:Work>
    </rdf:RDF>
  </metadata>
  <g
     transform="translate(-43.158462,-153.25308)"
     id="layer1">
    <g
       transform="matrix(0,0.62970328,0.62970328,0,-482.63825,1359.6974)"
       id="g6538"
       style="opacity:1;fill:#96b8de;fill-opacity:1">
      <g
         transform="matrix(1.5781197,0,0,1.5781197,883.20237,-739.80007)"
         id="g6536"
         style="fill:#96b8de;fill-opacity:1">
        <g
           id="g6534"
           style="fill:#96b8de;fill-opacity:1">
          <g
             transform="translate(-359.2037,326.04612)"
             id="g6148"
             style="fill:#96b8de;fill-opacity:1">
            <path
               style="opacity:1;fill:#96b8de;fill-opacity:1;stroke:none;stroke-width:1.37104678;stroke-linecap:butt;stroke-linejoin:miter;stroke-miterlimit:4;stroke-dasharray:none;stroke-opacity:1"
               d="m -1410.4561,677.54293 0.7745,-0.0223 v -0.058 l 6.5138,0.13825 -0.013,0.59219 0.8883,0.0188 0.5921,0.0126 0.1481,0.003 -0.015,0.74021 1.4797,0.0314 -0.024,1.11032 1.4804,0.0314 -0.017,0.78561 1.0133,-0.03 0.043,1.48041 1.1103,-0.0321 0.043,1.47973 0.7395,-0.0217 0.01,0.14805 0.017,0.59215 0.026,0.88826 0.5921,-0.0174 0.1886,6.51241 -0.7752,0.0224 v 0.0587 l -6.5138,-0.13898 0.013,-0.59214 -0.8883,-0.0189 -0.5914,-0.0125 -0.1488,-0.003 0.016,-0.7402 -1.4804,-0.0314 0.024,-1.11032 -1.4797,-0.0314 0.017,-0.78561 -1.0133,0.0294 -0.043,-1.47973 -1.1096,0.0321 -0.043,-1.48041 -0.7402,0.0217 -0.01,-0.14806 -0.017,-0.59146 -0.026,-0.88826 -0.5921,0.0175 z"
               id="path6082" />
            <path
               style="opacity:1;fill:#96b8de;fill-opacity:1;stroke:none;stroke-width:1.94131339;stroke-linecap:butt;stroke-linejoin:miter;stroke-miterlimit:4;stroke-dasharray:none;stroke-opacity:1"
               d="m -1408.3705,691.23857 2.096,0.0446 -0.034,1.57203 2.096,0.0446 -0.022,1.04799 0.2096,0.004 0.8384,0.0179 1.2576,0.0268 -0.018,0.83842 9.2225,0.19628 0.045,-2.09603 -0.524,-0.0112 0.029,-1.36241 -1.6769,-0.0357 0.025,-1.1528 -3.0392,-0.0647 0.02,-0.94319 -2.096,-0.0446 0.034,-1.57202 -2.096,-0.0446 0.016,-0.73361 -2.096,-0.0446 0.018,-0.83838 -2.096,-0.0446 -0.034,1.57199 -2.096,-0.0446 z m 2.1071,-0.47938 0.056,-2.62002 2.096,0.0446 -0.018,0.83842 2.096,0.0446 -0.016,0.73361 2.096,0.0446 -0.034,1.57199 1.4672,0.0312 -0.02,0.94322 1.6769,0.0357 -0.01,0.41919 -7.336,-0.15613 0.04,-1.88641 z"
               id="path6084" />
            <path
               style="opacity:1;fill:#96b8de;fill-opacity:1;stroke:none;stroke-width:2.22405314;stroke-linecap:butt;stroke-linejoin:miter;stroke-miterlimit:4;stroke-dasharray:none;stroke-opacity:1"
               d="m -1407.3114,690.73688 2.096,0.0446 -0.022,1.04803 1.048,0.0223 -0.022,1.04799 1.048,0.0223 -0.011,0.524 2.096,0.0446 -0.011,0.524 3.1441,0.0669 0.524,0.0112 3.144,0.0669 0.033,-1.57198 -1.572,-0.0335 0.022,-1.04803 -2.62,-0.0558 0.022,-1.048 -1.572,-0.0334 0.011,-0.524 -0.524,-0.0112 0.011,-0.524 -0.524,-0.0112 0.011,-0.524 -1.572,-0.0335 0.011,-0.52404 0.011,-0.524 -3.1441,-0.0669 -0.011,0.524 -0.524,-0.0112 -0.011,0.52403 -0.524,-0.0112 -0.011,0.524 -0.524,-0.0112 z"
               id="path6086" />
            <path
               id="path6088"
               d="m -1407.3114,690.73688 2.096,0.0446 -0.022,1.04803 1.048,0.0223 -0.022,1.04799 1.048,0.0223 -0.011,0.524 2.096,0.0446 -0.011,0.524 3.1441,0.0669 0.524,0.0112 3.144,0.0669 0.033,-1.57198 -1.572,-0.0335 0.022,-1.04803 -2.62,-0.0558 0.022,-1.048 -1.572,-0.0334 0.011,-0.524 -0.524,-0.0112 0.011,-0.524 -0.524,-0.0112 0.011,-0.524 -1.572,-0.0335 0.011,-0.52404 0.011,-0.524 -3.1441,-0.0669 -0.011,0.524 -0.524,-0.0112 -0.011,0.52403 -0.524,-0.0112 -0.011,0.524 -0.524,-0.0112 z"
               style="opacity:1;fill:#96b8de;fill-opacity:1;stroke:none;stroke-width:2.22405314;stroke-linecap:butt;stroke-linejoin:miter;stroke-miterlimit:4;stroke-dasharray:none;stroke-opacity:1" />
            <path
               style="opacity:1;fill:#96b8de;fill-opacity:1;stroke:none;stroke-width:2.22405314;stroke-linecap:butt;stroke-linejoin:miter;stroke-miterlimit:4;stroke-dasharray:none;stroke-opacity:1"
               d="m -1407.2802,689.2697 0.4193,0.009 v -0.1048 l -0.4192,-0.009 z m 0.5352,-0.51288 0.4192,0.009 v -0.10477 l -0.4192,-0.009 z m 0.5352,-0.51285 3.0392,0.0647 -0.011,0.52399 -0.011,0.52404 1.572,0.0335 -0.011,0.524 0.524,0.0111 -0.011,0.524 0.524,0.0112 -0.011,0.524 1.572,0.0335 -0.022,1.048 2.6201,0.0558 -0.022,1.04803 1.5721,0.0335 -0.02,0.94318 0.6288,0.0134 0.033,-1.57198 -1.572,-0.0335 0.022,-1.04803 -2.62,-0.0558 0.022,-1.048 -1.572,-0.0334 0.011,-0.524 -0.524,-0.0112 0.011,-0.524 -0.524,-0.0112 0.011,-0.524 -1.572,-0.0335 0.011,-0.52404 0.011,-0.524 -3.1441,-0.0669 -0.011,0.524 -0.524,-0.0112 z"
               id="path6090" />
            <path
               style="opacity:1;fill:#96b8de;fill-opacity:1;stroke:none;stroke-width:2.22405314;stroke-linecap:butt;stroke-linejoin:miter;stroke-miterlimit:4;stroke-dasharray:none;stroke-opacity:1"
               d="m -1407.3114,690.73688 2.096,0.0446 0.01,-0.41919 -2.0961,-0.0446 z m 2.0737,1.09264 1.048,0.0223 0.01,-0.41923 -1.048,-0.0223 z m 1.0257,1.0703 1.048,0.0223 0.01,-0.41918 -1.048,-0.0223 z m 1.0369,0.5463 2.096,0.0446 0.01,-0.41919 -2.096,-0.0446 z m 2.0848,0.56861 3.1441,0.0669 0.524,0.0112 3.144,0.0669 0.01,-0.41918 -3.144,-0.0669 -0.524,-0.0112 -3.144,-0.0669 z"
               id="path6092" />
            <path
               id="path6094"
               d="m -1407.3114,690.73688 2.096,0.0446 0.01,-0.41919 -2.0961,-0.0446 z m 2.0737,1.09264 1.048,0.0223 0.01,-0.41923 -1.048,-0.0223 z m 1.0257,1.0703 1.048,0.0223 0.01,-0.41918 -1.048,-0.0223 z m 1.0369,0.5463 2.096,0.0446 0.01,-0.41919 -2.096,-0.0446 z m 2.0848,0.56861 3.1441,0.0669 0.524,0.0112 3.144,0.0669 0.01,-0.41918 -3.144,-0.0669 -0.524,-0.0112 -3.144,-0.0669 z"
               style="opacity:1;fill:#96b8de;fill-opacity:1;stroke:none;stroke-width:2.22405314;stroke-linecap:butt;stroke-linejoin:miter;stroke-miterlimit:4;stroke-dasharray:none;stroke-opacity:1" />
            <path
               style="opacity:1;fill:#96b8de;fill-opacity:1;stroke:none;stroke-width:2.22405314;stroke-linecap:butt;stroke-linejoin:miter;stroke-miterlimit:4;stroke-dasharray:none;stroke-opacity:1"
               d="m -1407.3025,690.32015 2.096,0.0446 0.01,-0.41923 -2.096,-0.0446 z m 2.0737,1.0926 1.048,0.0223 0.01,-0.41919 -1.048,-0.0223 z m 1.0257,1.0703 1.048,0.0223 0.01,-0.41919 -1.048,-0.0223 z m 1.0369,0.5463 2.096,0.0446 0.01,-0.41919 -2.096,-0.0446 z m 2.0848,0.56864 3.144,0.0669 0.524,0.0111 3.1441,0.0669 0.01,-0.41923 -3.144,-0.0669 -0.524,-0.0112 -3.1441,-0.0669 z"
               id="path6096" />
            <path
               id="path6098"
               d="m -1407.2935,689.8985 2.096,0.0446 0.01,-0.41923 -2.096,-0.0446 z m 2.0737,1.09261 1.048,0.0223 0.01,-0.41919 -1.048,-0.0223 z m 1.0257,1.07029 1.048,0.0223 0.01,-0.41919 -1.048,-0.0223 z m 1.0368,0.5463 2.096,0.0446 0.01,-0.41919 -2.096,-0.0446 z m 2.0849,0.56865 3.144,0.0669 0.524,0.0111 3.144,0.0669 0.01,-0.41923 -3.1441,-0.0669 -0.524,-0.0112 -3.144,-0.0669 z"
               style="opacity:1;fill:#96b8de;fill-opacity:1;stroke:none;stroke-width:2.22405314;stroke-linecap:butt;stroke-linejoin:miter;stroke-miterlimit:4;stroke-dasharray:none;stroke-opacity:1" />
            <path
               id="path6100"
               d="m -1395.5419,679.29983 0.061,2.0956 1.5717,-0.0455 0.061,2.09561 1.0478,-0.0304 0.01,0.20956 0.024,0.83824 0.036,1.25736 0.8383,-0.0243 0.2672,9.22067 -2.0956,0.0607 -0.015,-0.5239 -1.3622,0.0395 -0.049,-1.67649 -1.1525,0.0334 -0.088,-3.03863 -0.943,0.0273 -0.061,-2.09561 -1.5717,0.0455 -0.061,-2.0956 -0.7334,0.0213 -0.061,-2.09561 -0.8382,0.0243 -0.061,-2.09561 1.5717,-0.0456 -0.061,-2.0956 z m -0.4632,2.11079 -2.6195,0.0759 0.061,2.09561 0.8383,-0.0243 0.061,2.09561 0.7334,-0.0213 0.061,2.09561 1.5717,-0.0455 0.043,1.46693 0.943,-0.0273 0.049,1.67649 0.4191,-0.0122 -0.2125,-7.33462 -1.8861,0.0546 z"
               style="opacity:1;fill:#96b8de;fill-opacity:1;stroke:none;stroke-width:1.94131339;stroke-linecap:butt;stroke-linejoin:miter;stroke-miterlimit:4;stroke-dasharray:none;stroke-opacity:1" />
            <path
               id="path6102"
               d="m -1396.0355,680.36281 0.061,2.09561 1.0479,-0.0304 0.03,1.0478 1.0478,-0.0304 0.03,1.0478 0.5239,-0.0152 0.061,2.09561 0.5239,-0.0152 0.091,3.14341 0.015,0.5239 0.091,3.14341 -1.5717,0.0455 -0.046,-1.5717 -1.0478,0.0304 -0.076,-2.61951 -1.0478,0.0304 -0.046,-1.5717 -0.5239,0.0152 -0.015,-0.5239 -0.5239,0.0152 -0.015,-0.5239 -0.5239,0.0152 -0.046,-1.57171 -0.524,0.0152 -0.5239,0.0152 -0.091,-3.14341 0.5239,-0.0152 -0.015,-0.52391 0.5239,-0.0152 -0.015,-0.5239 0.5239,-0.0152 -0.015,-0.5239 z"
               style="opacity:1;fill:#96b8de;fill-opacity:1;stroke:none;stroke-width:2.22405314;stroke-linecap:butt;stroke-linejoin:miter;stroke-miterlimit:4;stroke-dasharray:none;stroke-opacity:1" />
            <path
               style="opacity:1;fill:#96b8de;fill-opacity:1;stroke:none;stroke-width:2.22405314;stroke-linecap:butt;stroke-linejoin:miter;stroke-miterlimit:4;stroke-dasharray:none;stroke-opacity:1"
               d="m -1396.0355,680.36281 0.061,2.09561 1.0479,-0.0304 0.03,1.0478 1.0478,-0.0304 0.03,1.0478 0.5239,-0.0152 0.061,2.09561 0.5239,-0.0152 0.091,3.14341 0.015,0.5239 0.091,3.14341 -1.5717,0.0455 -0.046,-1.5717 -1.0478,0.0304 -0.076,-2.61951 -1.0478,0.0304 -0.046,-1.5717 -0.5239,0.0152 -0.015,-0.5239 -0.5239,0.0152 -0.015,-0.5239 -0.5239,0.0152 -0.046,-1.57171 -0.524,0.0152 -0.5239,0.0152 -0.091,-3.14341 0.5239,-0.0152 -0.015,-0.52391 0.5239,-0.0152 -0.015,-0.5239 0.5239,-0.0152 -0.015,-0.5239 z"
               id="path6104" />
            <path
               id="path6106"
               d="m -1397.5024,680.40532 0.012,0.41912 -0.1048,0.003 -0.012,-0.41912 z m -0.5087,0.53909 0.012,0.41912 -0.1047,0.003 -0.012,-0.41912 z m -0.5087,0.53908 0.088,3.03863 0.5239,-0.0152 0.5239,-0.0152 0.046,1.57171 0.5239,-0.0152 0.015,0.5239 0.5239,-0.0152 0.015,0.5239 0.5239,-0.0152 0.046,1.5717 1.0478,-0.0304 0.076,2.61951 1.0478,-0.0304 0.045,1.5717 0.9431,-0.0273 0.018,0.62868 -1.5717,0.0455 -0.046,-1.5717 -1.0478,0.0304 -0.076,-2.61951 -1.0478,0.0304 -0.046,-1.5717 -0.5239,0.0152 -0.015,-0.5239 -0.5239,0.0152 -0.015,-0.5239 -0.5239,0.0152 -0.046,-1.57171 -0.524,0.0152 -0.5239,0.0152 -0.091,-3.14341 0.5239,-0.0152 -0.015,-0.52391 z"
               style="opacity:1;fill:#96b8de;fill-opacity:1;stroke:none;stroke-width:2.22405314;stroke-linecap:butt;stroke-linejoin:miter;stroke-miterlimit:4;stroke-dasharray:none;stroke-opacity:1" />
            <path
               id="path6108"
               d="m -1396.0355,680.36281 0.061,2.09561 -0.4191,0.0122 -0.061,-2.09561 z m 1.1086,2.06525 0.03,1.0478 -0.4191,0.0122 -0.03,-1.04781 z m 1.0781,1.01744 0.03,1.0478 -0.4191,0.0121 -0.03,-1.0478 z m 0.5543,1.03262 0.061,2.09561 -0.4191,0.0121 -0.061,-2.09561 z m 0.5846,2.08043 0.091,3.14341 0.015,0.5239 0.091,3.14341 -0.4191,0.0121 -0.091,-3.14341 -0.015,-0.5239 -0.091,-3.14341 z"
               style="opacity:1;fill:#96b8de;fill-opacity:1;stroke:none;stroke-width:2.22405314;stroke-linecap:butt;stroke-linejoin:miter;stroke-miterlimit:4;stroke-dasharray:none;stroke-opacity:1" />
            <path
               style="opacity:1;fill:#96b8de;fill-opacity:1;stroke:none;stroke-width:2.22405314;stroke-linecap:butt;stroke-linejoin:miter;stroke-miterlimit:4;stroke-dasharray:none;stroke-opacity:1"
               d="m -1396.0355,680.36281 0.061,2.09561 -0.4191,0.0122 -0.061,-2.09561 z m 1.1086,2.06525 0.03,1.0478 -0.4191,0.0122 -0.03,-1.04781 z m 1.0781,1.01744 0.03,1.0478 -0.4191,0.0121 -0.03,-1.0478 z m 0.5543,1.03262 0.061,2.09561 -0.4191,0.0121 -0.061,-2.09561 z m 0.5846,2.08043 0.091,3.14341 0.015,0.5239 0.091,3.14341 -0.4191,0.0121 -0.091,-3.14341 -0.015,-0.5239 -0.091,-3.14341 z"
               id="path6110" />
            <path
               id="path6112"
               d="m -1396.4521,680.37489 0.061,2.09561 -0.4192,0.0121 -0.061,-2.09561 z m 1.1085,2.06524 0.03,1.04781 -0.4191,0.0121 -0.03,-1.0478 z m 1.0781,1.01744 0.03,1.0478 -0.4191,0.0121 -0.03,-1.0478 z m 0.5543,1.03262 0.061,2.09561 -0.4191,0.0122 -0.061,-2.09561 z m 0.5847,2.08043 0.091,3.14341 0.015,0.5239 0.091,3.14341 -0.4191,0.0122 -0.091,-3.14341 -0.015,-0.52391 -0.091,-3.14341 z"
               style="opacity:1;fill:#96b8de;fill-opacity:1;stroke:none;stroke-width:2.22405314;stroke-linecap:butt;stroke-linejoin:miter;stroke-miterlimit:4;stroke-dasharray:none;stroke-opacity:1" />
            <path
               style="opacity:1;fill:#96b8de;fill-opacity:1;stroke:none;stroke-width:2.22405314;stroke-linecap:butt;stroke-linejoin:miter;stroke-miterlimit:4;stroke-dasharray:none;stroke-opacity:1"
               d="m -1396.8737,680.3871 0.061,2.09561 -0.4191,0.0122 -0.061,-2.09561 z m 1.1085,2.06525 0.03,1.0478 -0.4191,0.0122 -0.03,-1.04781 z m 1.0782,1.01744 0.03,1.0478 -0.4191,0.0122 -0.03,-1.04781 z m 0.5542,1.03262 0.061,2.09561 -0.4191,0.0121 -0.061,-2.09561 z m 0.5847,2.08042 0.091,3.14341 0.015,0.52391 0.091,3.14341 -0.4192,0.0121 -0.091,-3.14341 -0.015,-0.5239 -0.091,-3.14341 z"
               id="path6114" />
            <path
               id="path6116"
               d="m -1396.9529,678.22969 -2.096,-0.0446 0.034,-1.57203 -2.096,-0.0446 0.022,-1.04799 -0.2096,-0.004 -0.8384,-0.0178 -1.2576,-0.0268 0.018,-0.83842 -9.2225,-0.19628 -0.045,2.09603 0.524,0.0111 -0.029,1.36241 1.6769,0.0357 -0.025,1.1528 3.0392,0.0647 -0.02,0.94319 2.096,0.0446 -0.034,1.57202 2.096,0.0446 -0.016,0.73361 2.096,0.0446 -0.018,0.83838 2.096,0.0446 0.034,-1.57199 2.096,0.0446 z m -2.1071,0.47938 -0.056,2.62002 -2.096,-0.0446 0.018,-0.83842 -2.096,-0.0446 0.016,-0.73361 -2.096,-0.0446 0.034,-1.57199 -1.4672,-0.0312 0.02,-0.94322 -1.6769,-0.0357 0.01,-0.41919 7.336,0.15613 -0.04,1.88641 z"
               style="opacity:1;fill:#96b8de;fill-opacity:1;stroke:none;stroke-width:1.94131339;stroke-linecap:butt;stroke-linejoin:miter;stroke-miterlimit:4;stroke-dasharray:none;stroke-opacity:1" />
            <path
               id="path6118"
               d="m -1398.012,678.73138 -2.096,-0.0446 0.022,-1.04803 -1.048,-0.0223 0.022,-1.04799 -1.048,-0.0223 0.011,-0.524 -2.096,-0.0446 0.011,-0.524 -3.1441,-0.0669 -0.524,-0.0111 -3.144,-0.0669 -0.033,1.57198 1.572,0.0335 -0.022,1.04803 2.62,0.0558 -0.022,1.048 1.572,0.0335 -0.011,0.524 0.524,0.0112 -0.011,0.524 0.524,0.0112 -0.011,0.524 1.572,0.0335 -0.011,0.52404 -0.011,0.524 3.1441,0.0669 0.011,-0.524 0.524,0.0112 0.011,-0.52403 0.524,0.0112 0.011,-0.524 0.524,0.0112 z"
               style="opacity:1;fill:#96b8de;fill-opacity:1;stroke:none;stroke-width:2.22405314;stroke-linecap:butt;stroke-linejoin:miter;stroke-miterlimit:4;stroke-dasharray:none;stroke-opacity:1" />
            <path
               style="opacity:1;fill:#96b8de;fill-opacity:1;stroke:none;stroke-width:2.22405314;stroke-linecap:butt;stroke-linejoin:miter;stroke-miterlimit:4;stroke-dasharray:none;stroke-opacity:1"
               d="m -1398.012,678.73138 -2.096,-0.0446 0.022,-1.04803 -1.048,-0.0223 0.022,-1.04799 -1.048,-0.0223 0.011,-0.524 -2.096,-0.0446 0.011,-0.524 -3.1441,-0.0669 -0.524,-0.0111 -3.144,-0.0669 -0.033,1.57198 1.572,0.0335 -0.022,1.04803 2.62,0.0558 -0.022,1.048 1.572,0.0335 -0.011,0.524 0.524,0.0112 -0.011,0.524 0.524,0.0112 -0.011,0.524 1.572,0.0335 -0.011,0.52404 -0.011,0.524 3.1441,0.0669 0.011,-0.524 0.524,0.0112 0.011,-0.52403 0.524,0.0112 0.011,-0.524 0.524,0.0112 z"
               id="path6120" />
            <path
               id="path6122"
               d="m -1398.0432,680.19856 -0.4193,-0.009 v 0.1048 l 0.4192,0.009 z m -0.5352,0.51288 -0.4192,-0.009 v 0.10477 l 0.4192,0.009 z m -0.5352,0.51285 -3.0392,-0.0647 0.011,-0.52399 0.011,-0.52404 -1.572,-0.0335 0.011,-0.524 -0.524,-0.0111 0.011,-0.524 -0.524,-0.0112 0.011,-0.524 -1.572,-0.0335 0.022,-1.048 -2.6201,-0.0558 0.022,-1.04803 -1.5721,-0.0335 0.02,-0.94318 -0.6288,-0.0134 -0.033,1.57198 1.572,0.0335 -0.022,1.04803 2.62,0.0558 -0.022,1.048 1.572,0.0335 -0.011,0.524 0.524,0.0112 -0.011,0.524 0.524,0.0112 -0.011,0.524 1.572,0.0335 -0.011,0.52404 -0.011,0.524 3.1441,0.0669 0.011,-0.524 0.524,0.0112 z"
               style="opacity:1;fill:#96b8de;fill-opacity:1;stroke:none;stroke-width:2.22405314;stroke-linecap:butt;stroke-linejoin:miter;stroke-miterlimit:4;stroke-dasharray:none;stroke-opacity:1" />
            <path
               id="path6124"
               d="m -1398.012,678.73138 -2.096,-0.0446 -0.01,0.41919 2.0961,0.0446 z m -2.0737,-1.09264 -1.048,-0.0223 -0.01,0.41923 1.048,0.0223 z m -1.0257,-1.0703 -1.048,-0.0223 -0.01,0.41918 1.048,0.0223 z m -1.0369,-0.5463 -2.096,-0.0446 -0.01,0.41919 2.096,0.0446 z m -2.0848,-0.56861 -3.1441,-0.0669 -0.524,-0.0111 -3.144,-0.0669 -0.01,0.41918 3.144,0.0669 0.524,0.0112 3.144,0.0669 z"
               style="opacity:1;fill:#96b8de;fill-opacity:1;stroke:none;stroke-width:2.22405314;stroke-linecap:butt;stroke-linejoin:miter;stroke-miterlimit:4;stroke-dasharray:none;stroke-opacity:1" />
            <path
               style="opacity:1;fill:#96b8de;fill-opacity:1;stroke:none;stroke-width:2.22405314;stroke-linecap:butt;stroke-linejoin:miter;stroke-miterlimit:4;stroke-dasharray:none;stroke-opacity:1"
               d="m -1398.012,678.73138 -2.096,-0.0446 -0.01,0.41919 2.0961,0.0446 z m -2.0737,-1.09264 -1.048,-0.0223 -0.01,0.41923 1.048,0.0223 z m -1.0257,-1.0703 -1.048,-0.0223 -0.01,0.41918 1.048,0.0223 z m -1.0369,-0.5463 -2.096,-0.0446 -0.01,0.41919 2.096,0.0446 z m -2.0848,-0.56861 -3.1441,-0.0669 -0.524,-0.0111 -3.144,-0.0669 -0.01,0.41918 3.144,0.0669 0.524,0.0112 3.144,0.0669 z"
               id="path6126" />
            <path
               id="path6128"
               d="m -1398.0209,679.14811 -2.096,-0.0446 -0.01,0.41923 2.096,0.0446 z m -2.0737,-1.0926 -1.048,-0.0223 -0.01,0.41919 1.048,0.0223 z m -1.0257,-1.0703 -1.048,-0.0223 -0.01,0.41919 1.048,0.0223 z m -1.0369,-0.5463 -2.096,-0.0446 -0.01,0.41919 2.096,0.0446 z m -2.0848,-0.56864 -3.144,-0.0669 -0.524,-0.0111 -3.1441,-0.0669 -0.01,0.41923 3.144,0.0669 0.524,0.0111 3.1441,0.0669 z"
               style="opacity:1;fill:#96b8de;fill-opacity:1;stroke:none;stroke-width:2.22405314;stroke-linecap:butt;stroke-linejoin:miter;stroke-miterlimit:4;stroke-dasharray:none;stroke-opacity:1" />
            <path
               style="opacity:1;fill:#96b8de;fill-opacity:1;stroke:none;stroke-width:2.22405314;stroke-linecap:butt;stroke-linejoin:miter;stroke-miterlimit:4;stroke-dasharray:none;stroke-opacity:1"
               d="m -1398.0299,679.56976 -2.096,-0.0446 -0.01,0.41923 2.096,0.0446 z m -2.0737,-1.09261 -1.048,-0.0223 -0.01,0.41919 1.048,0.0223 z m -1.0257,-1.07029 -1.048,-0.0223 -0.01,0.41919 1.048,0.0223 z m -1.0368,-0.5463 -2.096,-0.0446 -0.01,0.41919 2.096,0.0446 z m -2.0849,-0.56865 -3.144,-0.0669 -0.524,-0.0111 -3.144,-0.0669 -0.01,0.41923 3.1441,0.0669 0.524,0.0111 3.144,0.0669 z"
               id="path6130" />
            <path
               style="opacity:1;fill:#96b8de;fill-opacity:1;stroke:none;stroke-width:1.94131339;stroke-linecap:butt;stroke-linejoin:miter;stroke-miterlimit:4;stroke-dasharray:none;stroke-opacity:1"
               d="m -1409.7814,690.16847 -0.061,-2.0956 -1.5717,0.0455 -0.061,-2.09561 -1.0478,0.0304 -0.01,-0.20956 -0.024,-0.83824 -0.036,-1.25736 -0.8382,0.0243 -0.2672,-9.22067 2.0956,-0.0607 0.015,0.5239 1.3621,-0.0395 0.049,1.67649 1.1526,-0.0334 0.088,3.03863 0.943,-0.0273 0.061,2.09561 1.5717,-0.0455 0.061,2.0956 0.7335,-0.0213 0.061,2.09561 0.8382,-0.0243 0.061,2.09561 -1.5716,0.0456 0.061,2.0956 z m 0.4631,-2.11079 2.6196,-0.0759 -0.061,-2.09561 -0.8382,0.0243 -0.061,-2.09561 -0.7335,0.0213 -0.061,-2.09561 -1.5717,0.0456 -0.043,-1.46693 -0.9431,0.0273 -0.049,-1.67649 -0.4191,0.0122 0.2126,7.33462 1.886,-0.0547 z"
               id="path6132" />
            <path
               style="opacity:1;fill:#96b8de;fill-opacity:1;stroke:none;stroke-width:2.22405314;stroke-linecap:butt;stroke-linejoin:miter;stroke-miterlimit:4;stroke-dasharray:none;stroke-opacity:1"
               d="m -1409.2879,689.10549 -0.061,-2.09561 -1.0478,0.0304 -0.03,-1.0478 -1.0478,0.0304 -0.03,-1.0478 -0.5239,0.0152 -0.061,-2.09561 -0.5239,0.0152 -0.091,-3.14341 -0.015,-0.5239 -0.091,-3.14341 1.5716,-0.0455 0.046,1.5717 1.0478,-0.0304 0.076,2.61951 1.0478,-0.0304 0.046,1.5717 0.5239,-0.0152 0.015,0.5239 0.5239,-0.0152 0.015,0.5239 0.5239,-0.0152 0.046,1.57171 0.5239,-0.0152 0.5239,-0.0152 0.091,3.14341 -0.5239,0.0152 0.015,0.52391 -0.524,0.0152 0.015,0.5239 -0.5239,0.0152 0.015,0.5239 z"
               id="path6134" />
            <path
               id="path6136"
               d="m -1409.2879,689.10549 -0.061,-2.09561 -1.0478,0.0304 -0.03,-1.0478 -1.0478,0.0304 -0.03,-1.0478 -0.5239,0.0152 -0.061,-2.09561 -0.5239,0.0152 -0.091,-3.14341 -0.015,-0.5239 -0.091,-3.14341 1.5716,-0.0455 0.046,1.5717 1.0478,-0.0304 0.076,2.61951 1.0478,-0.0304 0.046,1.5717 0.5239,-0.0152 0.015,0.5239 0.5239,-0.0152 0.015,0.5239 0.5239,-0.0152 0.046,1.57171 0.5239,-0.0152 0.5239,-0.0152 0.091,3.14341 -0.5239,0.0152 0.015,0.52391 -0.524,0.0152 0.015,0.5239 -0.5239,0.0152 0.015,0.5239 z"
               style="opacity:1;fill:#96b8de;fill-opacity:1;stroke:none;stroke-width:2.22405314;stroke-linecap:butt;stroke-linejoin:miter;stroke-miterlimit:4;stroke-dasharray:none;stroke-opacity:1" />
            <path
               style="opacity:1;fill:#96b8de;fill-opacity:1;stroke:none;stroke-width:2.22405314;stroke-linecap:butt;stroke-linejoin:miter;stroke-miterlimit:4;stroke-dasharray:none;stroke-opacity:1"
               d="m -1407.821,689.06298 -0.012,-0.41912 0.1047,-0.003 0.012,0.41912 z m 0.5088,-0.53909 -0.012,-0.41912 0.1048,-0.003 0.012,0.41912 z m 0.5087,-0.53908 -0.088,-3.03863 -0.5239,0.0152 -0.5239,0.0152 -0.046,-1.57171 -0.5239,0.0152 -0.015,-0.5239 -0.5239,0.0152 -0.015,-0.5239 -0.5239,0.0152 -0.045,-1.5717 -1.0478,0.0304 -0.076,-2.61951 -1.0479,0.0304 -0.045,-1.5717 -0.943,0.0273 -0.018,-0.62868 1.5716,-0.0455 0.046,1.5717 1.0478,-0.0304 0.076,2.61951 1.0478,-0.0304 0.046,1.5717 0.5239,-0.0152 0.015,0.5239 0.5239,-0.0152 0.015,0.5239 0.5239,-0.0152 0.046,1.57171 0.5239,-0.0152 0.5239,-0.0152 0.091,3.14341 -0.5239,0.0152 0.015,0.52391 z"
               id="path6138" />
            <path
               style="opacity:1;fill:#96b8de;fill-opacity:1;stroke:none;stroke-width:2.22405314;stroke-linecap:butt;stroke-linejoin:miter;stroke-miterlimit:4;stroke-dasharray:none;stroke-opacity:1"
               d="m -1409.2879,689.10549 -0.061,-2.09561 0.4191,-0.0122 0.061,2.09561 z m -1.1085,-2.06525 -0.03,-1.0478 0.4191,-0.0121 0.03,1.04781 z m -1.0782,-1.01744 -0.03,-1.0478 0.4191,-0.0121 0.03,1.0478 z m -0.5543,-1.03262 -0.061,-2.09561 0.4191,-0.0121 0.061,2.09561 z m -0.5846,-2.08043 -0.091,-3.14341 -0.015,-0.5239 -0.091,-3.14341 0.4191,-0.0121 0.091,3.14341 0.015,0.5239 0.091,3.14341 z"
               id="path6140" />
            <path
               id="path6142"
               d="m -1409.2879,689.10549 -0.061,-2.09561 0.4191,-0.0122 0.061,2.09561 z m -1.1085,-2.06525 -0.03,-1.0478 0.4191,-0.0121 0.03,1.04781 z m -1.0782,-1.01744 -0.03,-1.0478 0.4191,-0.0121 0.03,1.0478 z m -0.5543,-1.03262 -0.061,-2.09561 0.4191,-0.0121 0.061,2.09561 z m -0.5846,-2.08043 -0.091,-3.14341 -0.015,-0.5239 -0.091,-3.14341 0.4191,-0.0121 0.091,3.14341 0.015,0.5239 0.091,3.14341 z"
               style="opacity:1;fill:#96b8de;fill-opacity:1;stroke:none;stroke-width:2.22405314;stroke-linecap:butt;stroke-linejoin:miter;stroke-miterlimit:4;stroke-dasharray:none;stroke-opacity:1" />
            <path
               style="opacity:1;fill:#96b8de;fill-opacity:1;stroke:none;stroke-width:2.22405314;stroke-linecap:butt;stroke-linejoin:miter;stroke-miterlimit:4;stroke-dasharray:none;stroke-opacity:1"
               d="m -1408.8712,689.09341 -0.061,-2.09561 0.4192,-0.0121 0.061,2.09561 z m -1.1086,-2.06524 -0.03,-1.04781 0.4191,-0.0121 0.03,1.0478 z m -1.0781,-1.01744 -0.03,-1.0478 0.4191,-0.0122 0.03,1.0478 z m -0.5543,-1.03262 -0.061,-2.09561 0.4191,-0.0122 0.061,2.09561 z m -0.5846,-2.08043 -0.091,-3.14341 -0.015,-0.5239 -0.091,-3.14341 0.4192,-0.0122 0.091,3.14341 0.015,0.52391 0.091,3.14341 z"
               id="path6144" />
            <path
               id="path6146"
               d="m -1408.4497,689.0812 -0.061,-2.09561 0.4191,-0.0121 0.061,2.09561 z m -1.1085,-2.06525 -0.03,-1.0478 0.4192,-0.0122 0.03,1.04781 z m -1.0781,-1.01744 -0.03,-1.0478 0.4191,-0.0122 0.03,1.04781 z m -0.5543,-1.03262 -0.061,-2.09561 0.4191,-0.0121 0.061,2.09561 z m -0.5847,-2.08042 -0.091,-3.14341 -0.015,-0.52391 -0.091,-3.14341 0.4191,-0.0121 0.091,3.14341 0.015,0.5239 0.091,3.14341 z"
               style="opacity:1;fill:#96b8de;fill-opacity:1;stroke:none;stroke-width:2.22405314;stroke-linecap:butt;stroke-linejoin:miter;stroke-miterlimit:4;stroke-dasharray:none;stroke-opacity:1" />
          </g>
        </g>
      </g>
    </g>
    <g
       transform="matrix(0,0.62970328,0.62970328,0,-485.99365,1359.6907)"
       style="opacity:1"
       id="g6080">
      <g
         style=""
         id="g5850"
         transform="matrix(1.5781197,0,0,1.5781197,883.20237,-739.80007)">
        <g
           style=""
           id="g5621">
          <g
             style=""
             transform="translate(-0.78162582,1.6155372)"
             id="g8522">
            <g
               style=""
               transform="translate(-359.2037,326.04612)"
               id="g5009">
              <path
                 style="opacity:1;fill:#5d7400;fill-opacity:1;stroke:none;stroke-width:1.37104678;stroke-linecap:butt;stroke-linejoin:miter;stroke-miterlimit:4;stroke-dasharray:none;stroke-opacity:1"
                 d="m -1410.4561,677.54293 0.7745,-0.0223 v -0.058 l 6.5138,0.13825 -0.013,0.59219 0.8883,0.0188 0.5921,0.0126 0.1481,0.003 -0.015,0.74021 1.4797,0.0314 -0.024,1.11032 1.4804,0.0314 -0.017,0.78561 1.0133,-0.03 0.043,1.48041 1.1103,-0.0321 0.043,1.47973 0.7395,-0.0217 0.01,0.14805 0.017,0.59215 0.026,0.88826 0.5921,-0.0174 0.1886,6.51241 -0.7752,0.0224 v 0.0587 l -6.5138,-0.13898 0.013,-0.59214 -0.8883,-0.0189 -0.5914,-0.0125 -0.1488,-0.003 0.016,-0.7402 -1.4804,-0.0314 0.024,-1.11032 -1.4797,-0.0314 0.017,-0.78561 -1.0133,0.0294 -0.043,-1.47973 -1.1096,0.0321 -0.043,-1.48041 -0.7402,0.0217 -0.01,-0.14806 -0.017,-0.59146 -0.026,-0.88826 -0.5921,0.0175 z"
                 id="path4943" />
              <path
                 style="opacity:1;fill:#445500;fill-opacity:1;stroke:none;stroke-width:1.94131339;stroke-linecap:butt;stroke-linejoin:miter;stroke-miterlimit:4;stroke-dasharray:none;stroke-opacity:1"
                 d="m -1408.3705,691.23857 2.096,0.0446 -0.034,1.57203 2.096,0.0446 -0.022,1.04799 0.2096,0.004 0.8384,0.0179 1.2576,0.0268 -0.018,0.83842 9.2225,0.19628 0.045,-2.09603 -0.524,-0.0112 0.029,-1.36241 -1.6769,-0.0357 0.025,-1.1528 -3.0392,-0.0647 0.02,-0.94319 -2.096,-0.0446 0.034,-1.57202 -2.096,-0.0446 0.016,-0.73361 -2.096,-0.0446 0.018,-0.83838 -2.096,-0.0446 -0.034,1.57199 -2.096,-0.0446 z m 2.1071,-0.47938 0.056,-2.62002 2.096,0.0446 -0.018,0.83842 2.096,0.0446 -0.016,0.73361 2.096,0.0446 -0.034,1.57199 1.4672,0.0312 -0.02,0.94322 1.6769,0.0357 -0.01,0.41919 -7.336,-0.15613 0.04,-1.88641 z"
                 id="path4945" />
              <path
                 style="opacity:1;fill:#aad400;fill-opacity:1;stroke:none;stroke-width:2.22405314;stroke-linecap:butt;stroke-linejoin:miter;stroke-miterlimit:4;stroke-dasharray:none;stroke-opacity:1"
                 d="m -1407.3114,690.73688 2.096,0.0446 -0.022,1.04803 1.048,0.0223 -0.022,1.04799 1.048,0.0223 -0.011,0.524 2.096,0.0446 -0.011,0.524 3.1441,0.0669 0.524,0.0112 3.144,0.0669 0.033,-1.57198 -1.572,-0.0335 0.022,-1.04803 -2.62,-0.0558 0.022,-1.048 -1.572,-0.0334 0.011,-0.524 -0.524,-0.0112 0.011,-0.524 -0.524,-0.0112 0.011,-0.524 -1.572,-0.0335 0.011,-0.52404 0.011,-0.524 -3.1441,-0.0669 -0.011,0.524 -0.524,-0.0112 -0.011,0.52403 -0.524,-0.0112 -0.011,0.524 -0.524,-0.0112 z"
                 id="path4947" />
              <path
                 id="path4949"
                 d="m -1407.3114,690.73688 2.096,0.0446 -0.022,1.04803 1.048,0.0223 -0.022,1.04799 1.048,0.0223 -0.011,0.524 2.096,0.0446 -0.011,0.524 3.1441,0.0669 0.524,0.0112 3.144,0.0669 0.033,-1.57198 -1.572,-0.0335 0.022,-1.04803 -2.62,-0.0558 0.022,-1.048 -1.572,-0.0334 0.011,-0.524 -0.524,-0.0112 0.011,-0.524 -0.524,-0.0112 0.011,-0.524 -1.572,-0.0335 0.011,-0.52404 0.011,-0.524 -3.1441,-0.0669 -0.011,0.524 -0.524,-0.0112 -0.011,0.52403 -0.524,-0.0112 -0.011,0.524 -0.524,-0.0112 z"
                 style="opacity:1;fill:#aad400;fill-opacity:1;stroke:none;stroke-width:2.22405314;stroke-linecap:butt;stroke-linejoin:miter;stroke-miterlimit:4;stroke-dasharray:none;stroke-opacity:1" />
              <path
                 style="opacity:1;fill:#88aa00;fill-opacity:1;stroke:none;stroke-width:2.22405314;stroke-linecap:butt;stroke-linejoin:miter;stroke-miterlimit:4;stroke-dasharray:none;stroke-opacity:1"
                 d="m -1407.2802,689.2697 0.4193,0.009 v -0.1048 l -0.4192,-0.009 z m 0.5352,-0.51288 0.4192,0.009 v -0.10477 l -0.4192,-0.009 z m 0.5352,-0.51285 3.0392,0.0647 -0.011,0.52399 -0.011,0.52404 1.572,0.0335 -0.011,0.524 0.524,0.0111 -0.011,0.524 0.524,0.0112 -0.011,0.524 1.572,0.0335 -0.022,1.048 2.6201,0.0558 -0.022,1.04803 1.5721,0.0335 -0.02,0.94318 0.6288,0.0134 0.033,-1.57198 -1.572,-0.0335 0.022,-1.04803 -2.62,-0.0558 0.022,-1.048 -1.572,-0.0334 0.011,-0.524 -0.524,-0.0112 0.011,-0.524 -0.524,-0.0112 0.011,-0.524 -1.572,-0.0335 0.011,-0.52404 0.011,-0.524 -3.1441,-0.0669 -0.011,0.524 -0.524,-0.0112 z"
                 id="path4951" />
              <path
                 style="opacity:1;fill:#d4ff2a;fill-opacity:1;stroke:none;stroke-width:2.22405314;stroke-linecap:butt;stroke-linejoin:miter;stroke-miterlimit:4;stroke-dasharray:none;stroke-opacity:1"
                 d="m -1407.3114,690.73688 2.096,0.0446 0.01,-0.41919 -2.0961,-0.0446 z m 2.0737,1.09264 1.048,0.0223 0.01,-0.41923 -1.048,-0.0223 z m 1.0257,1.0703 1.048,0.0223 0.01,-0.41918 -1.048,-0.0223 z m 1.0369,0.5463 2.096,0.0446 0.01,-0.41919 -2.096,-0.0446 z m 2.0848,0.56861 3.1441,0.0669 0.524,0.0112 3.144,0.0669 0.01,-0.41918 -3.144,-0.0669 -0.524,-0.0112 -3.144,-0.0669 z"
                 id="path4953" />
              <path
                 id="path4955"
                 d="m -1407.3114,690.73688 2.096,0.0446 0.01,-0.41919 -2.0961,-0.0446 z m 2.0737,1.09264 1.048,0.0223 0.01,-0.41923 -1.048,-0.0223 z m 1.0257,1.0703 1.048,0.0223 0.01,-0.41918 -1.048,-0.0223 z m 1.0369,0.5463 2.096,0.0446 0.01,-0.41919 -2.096,-0.0446 z m 2.0848,0.56861 3.1441,0.0669 0.524,0.0112 3.144,0.0669 0.01,-0.41918 -3.144,-0.0669 -0.524,-0.0112 -3.144,-0.0669 z"
                 style="opacity:1;fill:#445500;fill-opacity:1;stroke:none;stroke-width:2.22405314;stroke-linecap:butt;stroke-linejoin:miter;stroke-miterlimit:4;stroke-dasharray:none;stroke-opacity:1" />
              <path
                 style="opacity:1;fill:#d4ff2a;fill-opacity:1;stroke:none;stroke-width:2.22405314;stroke-linecap:butt;stroke-linejoin:miter;stroke-miterlimit:4;stroke-dasharray:none;stroke-opacity:1"
                 d="m -1407.3025,690.32015 2.096,0.0446 0.01,-0.41923 -2.096,-0.0446 z m 2.0737,1.0926 1.048,0.0223 0.01,-0.41919 -1.048,-0.0223 z m 1.0257,1.0703 1.048,0.0223 0.01,-0.41919 -1.048,-0.0223 z m 1.0369,0.5463 2.096,0.0446 0.01,-0.41919 -2.096,-0.0446 z m 2.0848,0.56864 3.144,0.0669 0.524,0.0111 3.1441,0.0669 0.01,-0.41923 -3.144,-0.0669 -0.524,-0.0112 -3.1441,-0.0669 z"
                 id="path4957" />
              <path
                 id="path4959"
                 d="m -1407.2935,689.8985 2.096,0.0446 0.01,-0.41923 -2.096,-0.0446 z m 2.0737,1.09261 1.048,0.0223 0.01,-0.41919 -1.048,-0.0223 z m 1.0257,1.07029 1.048,0.0223 0.01,-0.41919 -1.048,-0.0223 z m 1.0368,0.5463 2.096,0.0446 0.01,-0.41919 -2.096,-0.0446 z m 2.0849,0.56865 3.144,0.0669 0.524,0.0111 3.144,0.0669 0.01,-0.41923 -3.1441,-0.0669 -0.524,-0.0112 -3.144,-0.0669 z"
                 style="opacity:1;fill:#d4ff2a;fill-opacity:1;stroke:none;stroke-width:2.22405314;stroke-linecap:butt;stroke-linejoin:miter;stroke-miterlimit:4;stroke-dasharray:none;stroke-opacity:1" />
              <path
                 id="path4961"
                 d="m -1395.5419,679.29983 0.061,2.0956 1.5717,-0.0455 0.061,2.09561 1.0478,-0.0304 0.01,0.20956 0.024,0.83824 0.036,1.25736 0.8383,-0.0243 0.2672,9.22067 -2.0956,0.0607 -0.015,-0.5239 -1.3622,0.0395 -0.049,-1.67649 -1.1525,0.0334 -0.088,-3.03863 -0.943,0.0273 -0.061,-2.09561 -1.5717,0.0455 -0.061,-2.0956 -0.7334,0.0213 -0.061,-2.09561 -0.8382,0.0243 -0.061,-2.09561 1.5717,-0.0456 -0.061,-2.0956 z m -0.4632,2.11079 -2.6195,0.0759 0.061,2.09561 0.8383,-0.0243 0.061,2.09561 0.7334,-0.0213 0.061,2.09561 1.5717,-0.0455 0.043,1.46693 0.943,-0.0273 0.049,1.67649 0.4191,-0.0122 -0.2125,-7.33462 -1.8861,0.0546 z"
                 style="opacity:1;fill:#445500;fill-opacity:1;stroke:none;stroke-width:1.94131339;stroke-linecap:butt;stroke-linejoin:miter;stroke-miterlimit:4;stroke-dasharray:none;stroke-opacity:1" />
              <path
                 id="path4963"
                 d="m -1396.0355,680.36281 0.061,2.09561 1.0479,-0.0304 0.03,1.0478 1.0478,-0.0304 0.03,1.0478 0.5239,-0.0152 0.061,2.09561 0.5239,-0.0152 0.091,3.14341 0.015,0.5239 0.091,3.14341 -1.5717,0.0455 -0.046,-1.5717 -1.0478,0.0304 -0.076,-2.61951 -1.0478,0.0304 -0.046,-1.5717 -0.5239,0.0152 -0.015,-0.5239 -0.5239,0.0152 -0.015,-0.5239 -0.5239,0.0152 -0.046,-1.57171 -0.524,0.0152 -0.5239,0.0152 -0.091,-3.14341 0.5239,-0.0152 -0.015,-0.52391 0.5239,-0.0152 -0.015,-0.5239 0.5239,-0.0152 -0.015,-0.5239 z"
                 style="opacity:1;fill:#aad400;fill-opacity:1;stroke:none;stroke-width:2.22405314;stroke-linecap:butt;stroke-linejoin:miter;stroke-miterlimit:4;stroke-dasharray:none;stroke-opacity:1" />
              <path
                 style="opacity:1;fill:#aad400;fill-opacity:1;stroke:none;stroke-width:2.22405314;stroke-linecap:butt;stroke-linejoin:miter;stroke-miterlimit:4;stroke-dasharray:none;stroke-opacity:1"
                 d="m -1396.0355,680.36281 0.061,2.09561 1.0479,-0.0304 0.03,1.0478 1.0478,-0.0304 0.03,1.0478 0.5239,-0.0152 0.061,2.09561 0.5239,-0.0152 0.091,3.14341 0.015,0.5239 0.091,3.14341 -1.5717,0.0455 -0.046,-1.5717 -1.0478,0.0304 -0.076,-2.61951 -1.0478,0.0304 -0.046,-1.5717 -0.5239,0.0152 -0.015,-0.5239 -0.5239,0.0152 -0.015,-0.5239 -0.5239,0.0152 -0.046,-1.57171 -0.524,0.0152 -0.5239,0.0152 -0.091,-3.14341 0.5239,-0.0152 -0.015,-0.52391 0.5239,-0.0152 -0.015,-0.5239 0.5239,-0.0152 -0.015,-0.5239 z"
                 id="path4965" />
              <path
                 id="path4967"
                 d="m -1397.5024,680.40532 0.012,0.41912 -0.1048,0.003 -0.012,-0.41912 z m -0.5087,0.53909 0.012,0.41912 -0.1047,0.003 -0.012,-0.41912 z m -0.5087,0.53908 0.088,3.03863 0.5239,-0.0152 0.5239,-0.0152 0.046,1.57171 0.5239,-0.0152 0.015,0.5239 0.5239,-0.0152 0.015,0.5239 0.5239,-0.0152 0.046,1.5717 1.0478,-0.0304 0.076,2.61951 1.0478,-0.0304 0.045,1.5717 0.9431,-0.0273 0.018,0.62868 -1.5717,0.0455 -0.046,-1.5717 -1.0478,0.0304 -0.076,-2.61951 -1.0478,0.0304 -0.046,-1.5717 -0.5239,0.0152 -0.015,-0.5239 -0.5239,0.0152 -0.015,-0.5239 -0.5239,0.0152 -0.046,-1.57171 -0.524,0.0152 -0.5239,0.0152 -0.091,-3.14341 0.5239,-0.0152 -0.015,-0.52391 z"
                 style="opacity:1;fill:#88aa00;fill-opacity:1;stroke:none;stroke-width:2.22405314;stroke-linecap:butt;stroke-linejoin:miter;stroke-miterlimit:4;stroke-dasharray:none;stroke-opacity:1" />
              <path
                 id="path4969"
                 d="m -1396.0355,680.36281 0.061,2.09561 -0.4191,0.0122 -0.061,-2.09561 z m 1.1086,2.06525 0.03,1.0478 -0.4191,0.0122 -0.03,-1.04781 z m 1.0781,1.01744 0.03,1.0478 -0.4191,0.0121 -0.03,-1.0478 z m 0.5543,1.03262 0.061,2.09561 -0.4191,0.0121 -0.061,-2.09561 z m 0.5846,2.08043 0.091,3.14341 0.015,0.5239 0.091,3.14341 -0.4191,0.0121 -0.091,-3.14341 -0.015,-0.5239 -0.091,-3.14341 z"
                 style="opacity:1;fill:#d4ff2a;fill-opacity:1;stroke:none;stroke-width:2.22405314;stroke-linecap:butt;stroke-linejoin:miter;stroke-miterlimit:4;stroke-dasharray:none;stroke-opacity:1" />
              <path
                 style="opacity:1;fill:#445500;fill-opacity:1;stroke:none;stroke-width:2.22405314;stroke-linecap:butt;stroke-linejoin:miter;stroke-miterlimit:4;stroke-dasharray:none;stroke-opacity:1"
                 d="m -1396.0355,680.36281 0.061,2.09561 -0.4191,0.0122 -0.061,-2.09561 z m 1.1086,2.06525 0.03,1.0478 -0.4191,0.0122 -0.03,-1.04781 z m 1.0781,1.01744 0.03,1.0478 -0.4191,0.0121 -0.03,-1.0478 z m 0.5543,1.03262 0.061,2.09561 -0.4191,0.0121 -0.061,-2.09561 z m 0.5846,2.08043 0.091,3.14341 0.015,0.5239 0.091,3.14341 -0.4191,0.0121 -0.091,-3.14341 -0.015,-0.5239 -0.091,-3.14341 z"
                 id="path4971" />
              <path
                 id="path4973"
                 d="m -1396.4521,680.37489 0.061,2.09561 -0.4192,0.0121 -0.061,-2.09561 z m 1.1085,2.06524 0.03,1.04781 -0.4191,0.0121 -0.03,-1.0478 z m 1.0781,1.01744 0.03,1.0478 -0.4191,0.0121 -0.03,-1.0478 z m 0.5543,1.03262 0.061,2.09561 -0.4191,0.0122 -0.061,-2.09561 z m 0.5847,2.08043 0.091,3.14341 0.015,0.5239 0.091,3.14341 -0.4191,0.0122 -0.091,-3.14341 -0.015,-0.52391 -0.091,-3.14341 z"
                 style="opacity:1;fill:#d4ff2a;fill-opacity:1;stroke:none;stroke-width:2.22405314;stroke-linecap:butt;stroke-linejoin:miter;stroke-miterlimit:4;stroke-dasharray:none;stroke-opacity:1" />
              <path
                 style="opacity:1;fill:#d4ff2a;fill-opacity:1;stroke:none;stroke-width:2.22405314;stroke-linecap:butt;stroke-linejoin:miter;stroke-miterlimit:4;stroke-dasharray:none;stroke-opacity:1"
                 d="m -1396.8737,680.3871 0.061,2.09561 -0.4191,0.0122 -0.061,-2.09561 z m 1.1085,2.06525 0.03,1.0478 -0.4191,0.0122 -0.03,-1.04781 z m 1.0782,1.01744 0.03,1.0478 -0.4191,0.0122 -0.03,-1.04781 z m 0.5542,1.03262 0.061,2.09561 -0.4191,0.0121 -0.061,-2.09561 z m 0.5847,2.08042 0.091,3.14341 0.015,0.52391 0.091,3.14341 -0.4192,0.0121 -0.091,-3.14341 -0.015,-0.5239 -0.091,-3.14341 z"
                 id="path4975" />
              <path
                 id="path4977"
                 d="m -1396.9529,678.22969 -2.096,-0.0446 0.034,-1.57203 -2.096,-0.0446 0.022,-1.04799 -0.2096,-0.004 -0.8384,-0.0178 -1.2576,-0.0268 0.018,-0.83842 -9.2225,-0.19628 -0.045,2.09603 0.524,0.0111 -0.029,1.36241 1.6769,0.0357 -0.025,1.1528 3.0392,0.0647 -0.02,0.94319 2.096,0.0446 -0.034,1.57202 2.096,0.0446 -0.016,0.73361 2.096,0.0446 -0.018,0.83838 2.096,0.0446 0.034,-1.57199 2.096,0.0446 z m -2.1071,0.47938 -0.056,2.62002 -2.096,-0.0446 0.018,-0.83842 -2.096,-0.0446 0.016,-0.73361 -2.096,-0.0446 0.034,-1.57199 -1.4672,-0.0312 0.02,-0.94322 -1.6769,-0.0357 0.01,-0.41919 7.336,0.15613 -0.04,1.88641 z"
                 style="opacity:1;fill:#445500;fill-opacity:1;stroke:none;stroke-width:1.94131339;stroke-linecap:butt;stroke-linejoin:miter;stroke-miterlimit:4;stroke-dasharray:none;stroke-opacity:1" />
              <path
                 id="path4979"
                 d="m -1398.012,678.73138 -2.096,-0.0446 0.022,-1.04803 -1.048,-0.0223 0.022,-1.04799 -1.048,-0.0223 0.011,-0.524 -2.096,-0.0446 0.011,-0.524 -3.1441,-0.0669 -0.524,-0.0111 -3.144,-0.0669 -0.033,1.57198 1.572,0.0335 -0.022,1.04803 2.62,0.0558 -0.022,1.048 1.572,0.0335 -0.011,0.524 0.524,0.0112 -0.011,0.524 0.524,0.0112 -0.011,0.524 1.572,0.0335 -0.011,0.52404 -0.011,0.524 3.1441,0.0669 0.011,-0.524 0.524,0.0112 0.011,-0.52403 0.524,0.0112 0.011,-0.524 0.524,0.0112 z"
                 style="opacity:1;fill:#aad400;fill-opacity:1;stroke:none;stroke-width:2.22405314;stroke-linecap:butt;stroke-linejoin:miter;stroke-miterlimit:4;stroke-dasharray:none;stroke-opacity:1" />
              <path
                 style="opacity:1;fill:#aad400;fill-opacity:1;stroke:none;stroke-width:2.22405314;stroke-linecap:butt;stroke-linejoin:miter;stroke-miterlimit:4;stroke-dasharray:none;stroke-opacity:1"
                 d="m -1398.012,678.73138 -2.096,-0.0446 0.022,-1.04803 -1.048,-0.0223 0.022,-1.04799 -1.048,-0.0223 0.011,-0.524 -2.096,-0.0446 0.011,-0.524 -3.1441,-0.0669 -0.524,-0.0111 -3.144,-0.0669 -0.033,1.57198 1.572,0.0335 -0.022,1.04803 2.62,0.0558 -0.022,1.048 1.572,0.0335 -0.011,0.524 0.524,0.0112 -0.011,0.524 0.524,0.0112 -0.011,0.524 1.572,0.0335 -0.011,0.52404 -0.011,0.524 3.1441,0.0669 0.011,-0.524 0.524,0.0112 0.011,-0.52403 0.524,0.0112 0.011,-0.524 0.524,0.0112 z"
                 id="path4981" />
              <path
                 id="path4983"
                 d="m -1398.0432,680.19856 -0.4193,-0.009 v 0.1048 l 0.4192,0.009 z m -0.5352,0.51288 -0.4192,-0.009 v 0.10477 l 0.4192,0.009 z m -0.5352,0.51285 -3.0392,-0.0647 0.011,-0.52399 0.011,-0.52404 -1.572,-0.0335 0.011,-0.524 -0.524,-0.0111 0.011,-0.524 -0.524,-0.0112 0.011,-0.524 -1.572,-0.0335 0.022,-1.048 -2.6201,-0.0558 0.022,-1.04803 -1.5721,-0.0335 0.02,-0.94318 -0.6288,-0.0134 -0.033,1.57198 1.572,0.0335 -0.022,1.04803 2.62,0.0558 -0.022,1.048 1.572,0.0335 -0.011,0.524 0.524,0.0112 -0.011,0.524 0.524,0.0112 -0.011,0.524 1.572,0.0335 -0.011,0.52404 -0.011,0.524 3.1441,0.0669 0.011,-0.524 0.524,0.0112 z"
                 style="opacity:1;fill:#88aa00;fill-opacity:1;stroke:none;stroke-width:2.22405314;stroke-linecap:butt;stroke-linejoin:miter;stroke-miterlimit:4;stroke-dasharray:none;stroke-opacity:1" />
              <path
                 id="path4985"
                 d="m -1398.012,678.73138 -2.096,-0.0446 -0.01,0.41919 2.0961,0.0446 z m -2.0737,-1.09264 -1.048,-0.0223 -0.01,0.41923 1.048,0.0223 z m -1.0257,-1.0703 -1.048,-0.0223 -0.01,0.41918 1.048,0.0223 z m -1.0369,-0.5463 -2.096,-0.0446 -0.01,0.41919 2.096,0.0446 z m -2.0848,-0.56861 -3.1441,-0.0669 -0.524,-0.0111 -3.144,-0.0669 -0.01,0.41918 3.144,0.0669 0.524,0.0112 3.144,0.0669 z"
                 style="opacity:1;fill:#d4ff2a;fill-opacity:1;stroke:none;stroke-width:2.22405314;stroke-linecap:butt;stroke-linejoin:miter;stroke-miterlimit:4;stroke-dasharray:none;stroke-opacity:1" />
              <path
                 style="opacity:1;fill:#445500;fill-opacity:1;stroke:none;stroke-width:2.22405314;stroke-linecap:butt;stroke-linejoin:miter;stroke-miterlimit:4;stroke-dasharray:none;stroke-opacity:1"
                 d="m -1398.012,678.73138 -2.096,-0.0446 -0.01,0.41919 2.0961,0.0446 z m -2.0737,-1.09264 -1.048,-0.0223 -0.01,0.41923 1.048,0.0223 z m -1.0257,-1.0703 -1.048,-0.0223 -0.01,0.41918 1.048,0.0223 z m -1.0369,-0.5463 -2.096,-0.0446 -0.01,0.41919 2.096,0.0446 z m -2.0848,-0.56861 -3.1441,-0.0669 -0.524,-0.0111 -3.144,-0.0669 -0.01,0.41918 3.144,0.0669 0.524,0.0112 3.144,0.0669 z"
                 id="path4987" />
              <path
                 id="path4989"
                 d="m -1398.0209,679.14811 -2.096,-0.0446 -0.01,0.41923 2.096,0.0446 z m -2.0737,-1.0926 -1.048,-0.0223 -0.01,0.41919 1.048,0.0223 z m -1.0257,-1.0703 -1.048,-0.0223 -0.01,0.41919 1.048,0.0223 z m -1.0369,-0.5463 -2.096,-0.0446 -0.01,0.41919 2.096,0.0446 z m -2.0848,-0.56864 -3.144,-0.0669 -0.524,-0.0111 -3.1441,-0.0669 -0.01,0.41923 3.144,0.0669 0.524,0.0111 3.1441,0.0669 z"
                 style="opacity:1;fill:#d4ff2a;fill-opacity:1;stroke:none;stroke-width:2.22405314;stroke-linecap:butt;stroke-linejoin:miter;stroke-miterlimit:4;stroke-dasharray:none;stroke-opacity:1" />
              <path
                 style="opacity:1;fill:#d4ff2a;fill-opacity:1;stroke:none;stroke-width:2.22405314;stroke-linecap:butt;stroke-linejoin:miter;stroke-miterlimit:4;stroke-dasharray:none;stroke-opacity:1"
                 d="m -1398.0299,679.56976 -2.096,-0.0446 -0.01,0.41923 2.096,0.0446 z m -2.0737,-1.09261 -1.048,-0.0223 -0.01,0.41919 1.048,0.0223 z m -1.0257,-1.07029 -1.048,-0.0223 -0.01,0.41919 1.048,0.0223 z m -1.0368,-0.5463 -2.096,-0.0446 -0.01,0.41919 2.096,0.0446 z m -2.0849,-0.56865 -3.144,-0.0669 -0.524,-0.0111 -3.144,-0.0669 -0.01,0.41923 3.1441,0.0669 0.524,0.0111 3.144,0.0669 z"
                 id="path4991" />
              <path
                 style="opacity:1;fill:#445500;fill-opacity:1;stroke:none;stroke-width:1.94131339;stroke-linecap:butt;stroke-linejoin:miter;stroke-miterlimit:4;stroke-dasharray:none;stroke-opacity:1"
                 d="m -1409.7814,690.16847 -0.061,-2.0956 -1.5717,0.0455 -0.061,-2.09561 -1.0478,0.0304 -0.01,-0.20956 -0.024,-0.83824 -0.036,-1.25736 -0.8382,0.0243 -0.2672,-9.22067 2.0956,-0.0607 0.015,0.5239 1.3621,-0.0395 0.049,1.67649 1.1526,-0.0334 0.088,3.03863 0.943,-0.0273 0.061,2.09561 1.5717,-0.0455 0.061,2.0956 0.7335,-0.0213 0.061,2.09561 0.8382,-0.0243 0.061,2.09561 -1.5716,0.0456 0.061,2.0956 z m 0.4631,-2.11079 2.6196,-0.0759 -0.061,-2.09561 -0.8382,0.0243 -0.061,-2.09561 -0.7335,0.0213 -0.061,-2.09561 -1.5717,0.0456 -0.043,-1.46693 -0.9431,0.0273 -0.049,-1.67649 -0.4191,0.0122 0.2126,7.33462 1.886,-0.0547 z"
                 id="path4993" />
              <path
                 style="opacity:1;fill:#aad400;fill-opacity:1;stroke:none;stroke-width:2.22405314;stroke-linecap:butt;stroke-linejoin:miter;stroke-miterlimit:4;stroke-dasharray:none;stroke-opacity:1"
                 d="m -1409.2879,689.10549 -0.061,-2.09561 -1.0478,0.0304 -0.03,-1.0478 -1.0478,0.0304 -0.03,-1.0478 -0.5239,0.0152 -0.061,-2.09561 -0.5239,0.0152 -0.091,-3.14341 -0.015,-0.5239 -0.091,-3.14341 1.5716,-0.0455 0.046,1.5717 1.0478,-0.0304 0.076,2.61951 1.0478,-0.0304 0.046,1.5717 0.5239,-0.0152 0.015,0.5239 0.5239,-0.0152 0.015,0.5239 0.5239,-0.0152 0.046,1.57171 0.5239,-0.0152 0.5239,-0.0152 0.091,3.14341 -0.5239,0.0152 0.015,0.52391 -0.524,0.0152 0.015,0.5239 -0.5239,0.0152 0.015,0.5239 z"
                 id="path4995" />
              <path
                 id="path4997"
                 d="m -1409.2879,689.10549 -0.061,-2.09561 -1.0478,0.0304 -0.03,-1.0478 -1.0478,0.0304 -0.03,-1.0478 -0.5239,0.0152 -0.061,-2.09561 -0.5239,0.0152 -0.091,-3.14341 -0.015,-0.5239 -0.091,-3.14341 1.5716,-0.0455 0.046,1.5717 1.0478,-0.0304 0.076,2.61951 1.0478,-0.0304 0.046,1.5717 0.5239,-0.0152 0.015,0.5239 0.5239,-0.0152 0.015,0.5239 0.5239,-0.0152 0.046,1.57171 0.5239,-0.0152 0.5239,-0.0152 0.091,3.14341 -0.5239,0.0152 0.015,0.52391 -0.524,0.0152 0.015,0.5239 -0.5239,0.0152 0.015,0.5239 z"
                 style="opacity:1;fill:#aad400;fill-opacity:1;stroke:none;stroke-width:2.22405314;stroke-linecap:butt;stroke-linejoin:miter;stroke-miterlimit:4;stroke-dasharray:none;stroke-opacity:1" />
              <path
                 style="opacity:1;fill:#88aa00;fill-opacity:1;stroke:none;stroke-width:2.22405314;stroke-linecap:butt;stroke-linejoin:miter;stroke-miterlimit:4;stroke-dasharray:none;stroke-opacity:1"
                 d="m -1407.821,689.06298 -0.012,-0.41912 0.1047,-0.003 0.012,0.41912 z m 0.5088,-0.53909 -0.012,-0.41912 0.1048,-0.003 0.012,0.41912 z m 0.5087,-0.53908 -0.088,-3.03863 -0.5239,0.0152 -0.5239,0.0152 -0.046,-1.57171 -0.5239,0.0152 -0.015,-0.5239 -0.5239,0.0152 -0.015,-0.5239 -0.5239,0.0152 -0.045,-1.5717 -1.0478,0.0304 -0.076,-2.61951 -1.0479,0.0304 -0.045,-1.5717 -0.943,0.0273 -0.018,-0.62868 1.5716,-0.0455 0.046,1.5717 1.0478,-0.0304 0.076,2.61951 1.0478,-0.0304 0.046,1.5717 0.5239,-0.0152 0.015,0.5239 0.5239,-0.0152 0.015,0.5239 0.5239,-0.0152 0.046,1.57171 0.5239,-0.0152 0.5239,-0.0152 0.091,3.14341 -0.5239,0.0152 0.015,0.52391 z"
                 id="path4999" />
              <path
                 style="opacity:1;fill:#d4ff2a;fill-opacity:1;stroke:none;stroke-width:2.22405314;stroke-linecap:butt;stroke-linejoin:miter;stroke-miterlimit:4;stroke-dasharray:none;stroke-opacity:1"
                 d="m -1409.2879,689.10549 -0.061,-2.09561 0.4191,-0.0122 0.061,2.09561 z m -1.1085,-2.06525 -0.03,-1.0478 0.4191,-0.0121 0.03,1.04781 z m -1.0782,-1.01744 -0.03,-1.0478 0.4191,-0.0121 0.03,1.0478 z m -0.5543,-1.03262 -0.061,-2.09561 0.4191,-0.0121 0.061,2.09561 z m -0.5846,-2.08043 -0.091,-3.14341 -0.015,-0.5239 -0.091,-3.14341 0.4191,-0.0121 0.091,3.14341 0.015,0.5239 0.091,3.14341 z"
                 id="path5001" />
              <path
                 id="path5003"
                 d="m -1409.2879,689.10549 -0.061,-2.09561 0.4191,-0.0122 0.061,2.09561 z m -1.1085,-2.06525 -0.03,-1.0478 0.4191,-0.0121 0.03,1.04781 z m -1.0782,-1.01744 -0.03,-1.0478 0.4191,-0.0121 0.03,1.0478 z m -0.5543,-1.03262 -0.061,-2.09561 0.4191,-0.0121 0.061,2.09561 z m -0.5846,-2.08043 -0.091,-3.14341 -0.015,-0.5239 -0.091,-3.14341 0.4191,-0.0121 0.091,3.14341 0.015,0.5239 0.091,3.14341 z"
                 style="opacity:1;fill:#445500;fill-opacity:1;stroke:none;stroke-width:2.22405314;stroke-linecap:butt;stroke-linejoin:miter;stroke-miterlimit:4;stroke-dasharray:none;stroke-opacity:1" />
              <path
                 style="opacity:1;fill:#d4ff2a;fill-opacity:1;stroke:none;stroke-width:2.22405314;stroke-linecap:butt;stroke-linejoin:miter;stroke-miterlimit:4;stroke-dasharray:none;stroke-opacity:1"
                 d="m -1408.8712,689.09341 -0.061,-2.09561 0.4192,-0.0121 0.061,2.09561 z m -1.1086,-2.06524 -0.03,-1.04781 0.4191,-0.0121 0.03,1.0478 z m -1.0781,-1.01744 -0.03,-1.0478 0.4191,-0.0122 0.03,1.0478 z m -0.5543,-1.03262 -0.061,-2.09561 0.4191,-0.0122 0.061,2.09561 z m -0.5846,-2.08043 -0.091,-3.14341 -0.015,-0.5239 -0.091,-3.14341 0.4192,-0.0122 0.091,3.14341 0.015,0.52391 0.091,3.14341 z"
                 id="path5005" />
              <path
                 id="path5007"
                 d="m -1408.4497,689.0812 -0.061,-2.09561 0.4191,-0.0121 0.061,2.09561 z m -1.1085,-2.06525 -0.03,-1.0478 0.4192,-0.0122 0.03,1.04781 z m -1.0781,-1.01744 -0.03,-1.0478 0.4191,-0.0122 0.03,1.04781 z m -0.5543,-1.03262 -0.061,-2.09561 0.4191,-0.0121 0.061,2.09561 z m -0.5847,-2.08042 -0.091,-3.14341 -0.015,-0.52391 -0.091,-3.14341 0.4191,-0.0121 0.091,3.14341 0.015,0.5239 0.091,3.14341 z"
                 style="opacity:1;fill:#d4ff2a;fill-opacity:1;stroke:none;stroke-width:2.22405314;stroke-linecap:butt;stroke-linejoin:miter;stroke-miterlimit:4;stroke-dasharray:none;stroke-opacity:1" />
            </g>
            <rect
               transform="matrix(0,1,1,0,0,0)"
               y="-1761.3445"
               x="1004.5208"
               height="2.0362782"
               width="2.0560679"
               id="rect5391"
               style="opacity:1;fill:#313f00;fill-opacity:1;stroke:none;stroke-width:4.98484612;stroke-linecap:butt;stroke-linejoin:miter;stroke-miterlimit:4;stroke-dasharray:none;stroke-opacity:1" />
            <rect
               style="opacity:1;fill:#313f00;fill-opacity:1;stroke:none;stroke-width:4.98484612;stroke-linecap:butt;stroke-linejoin:miter;stroke-miterlimit:4;stroke-dasharray:none;stroke-opacity:1"
               id="rect5393"
               width="2.0560679"
               height="2.0362782"
               x="1010.9938"
               y="-1768.3427"
               transform="matrix(0,1,1,0,0,0)" />
          </g>
        </g>
      </g>
    </g>
  </g>
</svg>
