<?xml version="1.0" encoding="UTF-8" standalone="no"?>
<svg
   xmlns:dc="http://purl.org/dc/elements/1.1/"
   xmlns:cc="http://creativecommons.org/ns#"
   xmlns:rdf="http://www.w3.org/1999/02/22-rdf-syntax-ns#"
   xmlns:svg="http://www.w3.org/2000/svg"
   xmlns="http://www.w3.org/2000/svg"
   id="svg13348"
   version="1.1"
   viewBox="0 0 58.765953 61.39912"
   height="61.39912mm"
   width="58.765953mm">
  <defs
     id="defs13342" />
  <metadata
     id="metadata13345">
    <rdf:RDF>
      <cc:Work
         rdf:about="">
        <dc:format>image/svg+xml</dc:format>
        <dc:type
           rdf:resource="http://purl.org/dc/dcmitype/StillImage" />
        <dc:title></dc:title>
      </cc:Work>
    </rdf:RDF>
  </metadata>
  <g
     transform="translate(-43.158462,-153.25308)"
     id="layer1">
    <g
       transform="matrix(0,0.62970328,0.62970328,0,-482.63825,1359.6974)"
       id="g6538"
       style="opacity:1;fill:#96b8de;fill-opacity:1">
      <g
         transform="matrix(1.5781197,0,0,1.5781197,883.20237,-739.80007)"
         id="g6536"
         style="fill:#96b8de;fill-opacity:1">
        <g
           id="g6534"
           style="fill:#96b8de;fill-opacity:1">
          <g
             id="g6188"
             transform="matrix(0.00728415,0.56979026,0.56979026,-0.00728415,-2007.4523,1813.4518)"
             style="fill:#96b8de;fill-opacity:1">
            <g
               transform="matrix(0,1,1,0,-1636.3207,1769.4062)"
               id="g6186"
               style="fill:#96b8de;fill-opacity:1">
              <path
                 style="opacity:1;fill:#96b8de;fill-opacity:1;stroke:none;stroke-width:4.9000001;stroke-linecap:butt;stroke-linejoin:miter;stroke-miterlimit:4;stroke-dasharray:none;stroke-opacity:1"
                 d="m -1324.8747,267.78776 v 5.29166 h -3.9688 v 5.29167 h -2.6458 v 0.52917 2.11666 3.175 h -2.1167 v 23.28334 h 5.2917 v -1.32292 h 3.4396 v -4.23333 h 2.9104 v -7.67292 h 2.3812 v -5.29167 h 3.9688 v -5.29166 h 1.8521 v -5.29167 h 2.1166 v -5.29167 h -3.9687 v -5.29166 z m 1.3229,5.29166 h 6.6146 v 5.29167 h -2.1167 v 5.29167 h -1.8521 v 5.29166 h -3.9687 v 3.70417 h -2.3813 v 4.23333 h -1.0583 v -18.52083 h 4.7625 z"
                 id="path6170" />
              <path
                 style="opacity:1;fill:#96b8de;fill-opacity:1;stroke:none;stroke-width:5.61365366;stroke-linecap:butt;stroke-linejoin:miter;stroke-miterlimit:4;stroke-dasharray:none;stroke-opacity:1"
                 d="m -1323.5518,270.43359 v 5.29167 h -2.6459 v 2.64583 h -2.6458 v 2.64583 h -1.3229 v 5.29167 h -1.3229 v 7.9375 1.32292 7.9375 h 3.9687 v -3.96875 h 2.6459 v -6.61459 h 2.6458 v -3.96875 h 1.3229 v -1.32291 h 1.3229 v -1.32292 h 1.3229 v -3.96875 h 1.323 1.3229 v -7.9375 h -1.3229 v -1.32292 h -1.323 v -1.32291 h -1.3229 v -1.32292 z"
                 id="path6172" />
              <path
                 id="path6174"
                 d="m -1323.5518,270.43359 v 5.29167 h -2.6459 v 2.64583 h -2.6458 v 2.64583 h -1.3229 v 5.29167 h -1.3229 v 7.9375 1.32292 7.9375 h 3.9687 v -3.96875 h 2.6459 v -6.61459 h 2.6458 v -3.96875 h 1.3229 v -1.32291 h 1.3229 v -1.32292 h 1.3229 v -3.96875 h 1.323 1.3229 v -7.9375 h -1.3229 v -1.32292 h -1.323 v -1.32291 h -1.3229 v -1.32292 z"
                 style="opacity:1;fill:#96b8de;fill-opacity:1;stroke:none;stroke-width:5.61365366;stroke-linecap:butt;stroke-linejoin:miter;stroke-miterlimit:4;stroke-dasharray:none;stroke-opacity:1" />
              <path
                 style="opacity:1;fill:#96b8de;fill-opacity:1;stroke:none;stroke-width:5.61365366;stroke-linecap:butt;stroke-linejoin:miter;stroke-miterlimit:4;stroke-dasharray:none;stroke-opacity:1"
                 d="m -1319.8477,270.43359 v 1.05833 h 0.2646 v -1.05833 z m 1.323,1.32292 v 1.05833 h 0.2645 v -1.05833 z m 1.3229,1.32291 v 7.67292 h -1.3229 -1.323 v 3.96875 h -1.3229 v 1.32292 h -1.3229 v 1.32291 h -1.3229 v 3.96875 h -2.6458 v 6.61459 h -2.6459 v 3.96875 h -2.3812 v 1.5875 h 3.9687 v -3.96875 h 2.6459 v -6.61459 h 2.6458 v -3.96875 h 1.3229 v -1.32291 h 1.3229 v -1.32292 h 1.3229 v -3.96875 h 1.323 1.3229 v -7.9375 h -1.3229 v -1.32292 z"
                 id="path6176" />
              <path
                 style="opacity:1;fill:#96b8de;fill-opacity:1;stroke:none;stroke-width:5.61365366;stroke-linecap:butt;stroke-linejoin:miter;stroke-miterlimit:4;stroke-dasharray:none;stroke-opacity:1"
                 d="m -1323.5518,270.43359 v 5.29167 h 1.0583 v -5.29167 z m -2.6459,5.29167 v 2.64583 h 1.0584 v -2.64583 z m -2.6458,2.64583 v 2.64583 h 1.0583 v -2.64583 z m -1.3229,2.64583 v 5.29167 h 1.0583 v -5.29167 z m -1.3229,5.29167 v 7.9375 1.32292 7.9375 h 1.0583 v -7.9375 -1.32292 -7.9375 z"
                 id="path6178" />
              <path
                 id="path6180"
                 d="m -1323.5518,270.43359 v 5.29167 h 1.0583 v -5.29167 z m -2.6459,5.29167 v 2.64583 h 1.0584 v -2.64583 z m -2.6458,2.64583 v 2.64583 h 1.0583 v -2.64583 z m -1.3229,2.64583 v 5.29167 h 1.0583 v -5.29167 z m -1.3229,5.29167 v 7.9375 1.32292 7.9375 h 1.0583 v -7.9375 -1.32292 -7.9375 z"
                 style="opacity:1;fill:#96b8de;fill-opacity:1;stroke:none;stroke-width:5.61365366;stroke-linecap:butt;stroke-linejoin:miter;stroke-miterlimit:4;stroke-dasharray:none;stroke-opacity:1" />
              <path
                 style="opacity:1;fill:#96b8de;fill-opacity:1;stroke:none;stroke-width:5.61365366;stroke-linecap:butt;stroke-linejoin:miter;stroke-miterlimit:4;stroke-dasharray:none;stroke-opacity:1"
                 d="m -1322.4997,270.43359 v 5.29167 h 1.0584 v -5.29167 z m -2.6458,5.29167 v 2.64583 h 1.0583 v -2.64583 z m -2.6458,2.64583 v 2.64583 h 1.0583 v -2.64583 z m -1.3229,2.64583 v 5.29167 h 1.0583 v -5.29167 z m -1.323,5.29167 v 7.9375 1.32292 7.9375 h 1.0584 v -7.9375 -1.32292 -7.9375 z"
                 id="path6182" />
              <path
                 id="path6184"
                 d="m -1321.4352,270.43359 v 5.29167 h 1.0584 v -5.29167 z m -2.6458,5.29167 v 2.64583 h 1.0583 v -2.64583 z m -2.6458,2.64583 v 2.64583 h 1.0583 v -2.64583 z m -1.3229,2.64583 v 5.29167 h 1.0583 v -5.29167 z m -1.323,5.29167 v 7.9375 1.32292 7.9375 h 1.0584 v -7.9375 -1.32292 -7.9375 z"
                 style="opacity:1;fill:#96b8de;fill-opacity:1;stroke:none;stroke-width:5.61365366;stroke-linecap:butt;stroke-linejoin:miter;stroke-miterlimit:4;stroke-dasharray:none;stroke-opacity:1" />
            </g>
          </g>
        </g>
      </g>
    </g>
    <g
       transform="matrix(0,0.62970328,0.62970328,0,-485.99365,1359.6907)"
       style="opacity:1"
       id="g6080">
      <g
         style=""
         id="g5850"
         transform="matrix(1.5781197,0,0,1.5781197,883.20237,-739.80007)">
        <g
           style=""
           id="g5621">
          <g
             style=""
             transform="matrix(0.00728415,0.56979026,0.56979026,-0.00728415,-2007.4523,1813.4518)"
             id="g5049">
            <g
               style=""
               id="g5047"
               transform="matrix(0,1,1,0,-1636.3207,1769.4062)">
              <path
                 id="path5031"
                 d="m -1324.8747,267.78776 v 5.29166 h -3.9688 v 5.29167 h -2.6458 v 0.52917 2.11666 3.175 h -2.1167 v 23.28334 h 5.2917 v -1.32292 h 3.4396 v -4.23333 h 2.9104 v -7.67292 h 2.3812 v -5.29167 h 3.9688 v -5.29166 h 1.8521 v -5.29167 h 2.1166 v -5.29167 h -3.9687 v -5.29166 z m 1.3229,5.29166 h 6.6146 v 5.29167 h -2.1167 v 5.29167 h -1.8521 v 5.29166 h -3.9687 v 3.70417 h -2.3813 v 4.23333 h -1.0583 v -18.52083 h 4.7625 z"
                 style="opacity:1;fill:#445500;fill-opacity:1;stroke:none;stroke-width:4.9000001;stroke-linecap:butt;stroke-linejoin:miter;stroke-miterlimit:4;stroke-dasharray:none;stroke-opacity:1" />
              <path
                 id="path5033"
                 d="m -1323.5518,270.43359 v 5.29167 h -2.6459 v 2.64583 h -2.6458 v 2.64583 h -1.3229 v 5.29167 h -1.3229 v 7.9375 1.32292 7.9375 h 3.9687 v -3.96875 h 2.6459 v -6.61459 h 2.6458 v -3.96875 h 1.3229 v -1.32291 h 1.3229 v -1.32292 h 1.3229 v -3.96875 h 1.323 1.3229 v -7.9375 h -1.3229 v -1.32292 h -1.323 v -1.32291 h -1.3229 v -1.32292 z"
                 style="opacity:1;fill:#aad400;fill-opacity:1;stroke:none;stroke-width:5.61365366;stroke-linecap:butt;stroke-linejoin:miter;stroke-miterlimit:4;stroke-dasharray:none;stroke-opacity:1" />
              <path
                 style="opacity:1;fill:#aad400;fill-opacity:1;stroke:none;stroke-width:5.61365366;stroke-linecap:butt;stroke-linejoin:miter;stroke-miterlimit:4;stroke-dasharray:none;stroke-opacity:1"
                 d="m -1323.5518,270.43359 v 5.29167 h -2.6459 v 2.64583 h -2.6458 v 2.64583 h -1.3229 v 5.29167 h -1.3229 v 7.9375 1.32292 7.9375 h 3.9687 v -3.96875 h 2.6459 v -6.61459 h 2.6458 v -3.96875 h 1.3229 v -1.32291 h 1.3229 v -1.32292 h 1.3229 v -3.96875 h 1.323 1.3229 v -7.9375 h -1.3229 v -1.32292 h -1.323 v -1.32291 h -1.3229 v -1.32292 z"
                 id="path5035" />
              <path
                 id="path5037"
                 d="m -1319.8477,270.43359 v 1.05833 h 0.2646 v -1.05833 z m 1.323,1.32292 v 1.05833 h 0.2645 v -1.05833 z m 1.3229,1.32291 v 7.67292 h -1.3229 -1.323 v 3.96875 h -1.3229 v 1.32292 h -1.3229 v 1.32291 h -1.3229 v 3.96875 h -2.6458 v 6.61459 h -2.6459 v 3.96875 h -2.3812 v 1.5875 h 3.9687 v -3.96875 h 2.6459 v -6.61459 h 2.6458 v -3.96875 h 1.3229 v -1.32291 h 1.3229 v -1.32292 h 1.3229 v -3.96875 h 1.323 1.3229 v -7.9375 h -1.3229 v -1.32292 z"
                 style="opacity:1;fill:#88aa00;fill-opacity:1;stroke:none;stroke-width:5.61365366;stroke-linecap:butt;stroke-linejoin:miter;stroke-miterlimit:4;stroke-dasharray:none;stroke-opacity:1" />
              <path
                 id="path5039"
                 d="m -1323.5518,270.43359 v 5.29167 h 1.0583 v -5.29167 z m -2.6459,5.29167 v 2.64583 h 1.0584 v -2.64583 z m -2.6458,2.64583 v 2.64583 h 1.0583 v -2.64583 z m -1.3229,2.64583 v 5.29167 h 1.0583 v -5.29167 z m -1.3229,5.29167 v 7.9375 1.32292 7.9375 h 1.0583 v -7.9375 -1.32292 -7.9375 z"
                 style="opacity:1;fill:#d4ff2a;fill-opacity:1;stroke:none;stroke-width:5.61365366;stroke-linecap:butt;stroke-linejoin:miter;stroke-miterlimit:4;stroke-dasharray:none;stroke-opacity:1" />
              <path
                 style="opacity:1;fill:#445500;fill-opacity:1;stroke:none;stroke-width:5.61365366;stroke-linecap:butt;stroke-linejoin:miter;stroke-miterlimit:4;stroke-dasharray:none;stroke-opacity:1"
                 d="m -1323.5518,270.43359 v 5.29167 h 1.0583 v -5.29167 z m -2.6459,5.29167 v 2.64583 h 1.0584 v -2.64583 z m -2.6458,2.64583 v 2.64583 h 1.0583 v -2.64583 z m -1.3229,2.64583 v 5.29167 h 1.0583 v -5.29167 z m -1.3229,5.29167 v 7.9375 1.32292 7.9375 h 1.0583 v -7.9375 -1.32292 -7.9375 z"
                 id="path5041" />
              <path
                 id="path5043"
                 d="m -1322.4997,270.43359 v 5.29167 h 1.0584 v -5.29167 z m -2.6458,5.29167 v 2.64583 h 1.0583 v -2.64583 z m -2.6458,2.64583 v 2.64583 h 1.0583 v -2.64583 z m -1.3229,2.64583 v 5.29167 h 1.0583 v -5.29167 z m -1.323,5.29167 v 7.9375 1.32292 7.9375 h 1.0584 v -7.9375 -1.32292 -7.9375 z"
                 style="opacity:1;fill:#d4ff2a;fill-opacity:1;stroke:none;stroke-width:5.61365366;stroke-linecap:butt;stroke-linejoin:miter;stroke-miterlimit:4;stroke-dasharray:none;stroke-opacity:1" />
              <path
                 style="opacity:1;fill:#d4ff2a;fill-opacity:1;stroke:none;stroke-width:5.61365366;stroke-linecap:butt;stroke-linejoin:miter;stroke-miterlimit:4;stroke-dasharray:none;stroke-opacity:1"
                 d="m -1321.4352,270.43359 v 5.29167 h 1.0584 v -5.29167 z m -2.6458,5.29167 v 2.64583 h 1.0583 v -2.64583 z m -2.6458,2.64583 v 2.64583 h 1.0583 v -2.64583 z m -1.3229,2.64583 v 5.29167 h 1.0583 v -5.29167 z m -1.323,5.29167 v 7.9375 1.32292 7.9375 h 1.0584 v -7.9375 -1.32292 -7.9375 z"
                 id="path5045" />
            </g>
          </g>
        </g>
      </g>
    </g>
  </g>
</svg>
