<?xml version="1.0" encoding="UTF-8" standalone="no"?>
<!-- Created with Inkscape (http://www.inkscape.org/) -->

<svg
   xmlns:dc="http://purl.org/dc/elements/1.1/"
   xmlns:cc="http://creativecommons.org/ns#"
   xmlns:rdf="http://www.w3.org/1999/02/22-rdf-syntax-ns#"
   xmlns:svg="http://www.w3.org/2000/svg"
   xmlns="http://www.w3.org/2000/svg"
   xmlns:sodipodi="http://sodipodi.sourceforge.net/DTD/sodipodi-0.dtd"
   xmlns:inkscape="http://www.inkscape.org/namespaces/inkscape"
   width="41.594208mm"
   height="34.297375mm"
   viewBox="0 0 41.594208 34.297375"
   version="1.1"
   id="svg857"
   inkscape:version="0.92.2 (5c3e80d, 2017-08-06)"
   sodipodi:docname="arm.svg">
  <defs
     id="defs851" />
  <sodipodi:namedview
     id="base"
     pagecolor="#ffffff"
     bordercolor="#666666"
     borderopacity="1.0"
     inkscape:pageopacity="0.0"
     inkscape:pageshadow="2"
     inkscape:zoom="2.8"
     inkscape:cx="78.603227"
     inkscape:cy="64.813936"
     inkscape:document-units="mm"
     inkscape:current-layer="layer1"
     showgrid="false"
     fit-margin-top="0"
     fit-margin-left="0"
     fit-margin-right="0"
     fit-margin-bottom="0"
     inkscape:window-width="1920"
     inkscape:window-height="1016"
     inkscape:window-x="0"
     inkscape:window-y="27"
     inkscape:window-maximized="1" />
  <metadata
     id="metadata854">
    <rdf:RDF>
      <cc:Work
         rdf:about="">
        <dc:format>image/svg+xml</dc:format>
        <dc:type
           rdf:resource="http://purl.org/dc/dcmitype/StillImage" />
        <dc:title></dc:title>
      </cc:Work>
    </rdf:RDF>
  </metadata>
  <g
     inkscape:label="Layer 1"
     inkscape:groupmode="layer"
     id="layer1"
     transform="translate(-140.1797,-107.52568)">
    <g
       id="g1015"
       transform="matrix(0.82225081,0,0,0.82225081,-84.23015,-74.180702)">
      <path
         sodipodi:nodetypes="ccccccccacc"
         inkscape:connector-curvature="0"
         id="path1769"
         d="m 318.82663,221.2247 -4.96094,5.2586 2.24896,3.60494 c 0.98116,-0.41314 1.96233,-0.13579 2.94349,-2.34817 0.42903,0.68147 0.65617,1.88787 1.48828,1.52135 1.16682,-0.31265 -0.20633,-1.76389 -0.33073,-2.64583 1.17213,0.21881 2.82998,1.26335 3.20807,0.13229 0.62018,-1.96109 -2.38905,-1.57725 -3.34036,-1.78593 0.7182,-0.76003 2.67727,-1.37991 2.14974,-2.28204 -0.69375,-1.18638 -2.25069,0.50182 -4.00183,0.99219 2.77281,-1.67686 1.91508,-3.30978 0.59532,-2.4474 z"
         style="fill:#2d414b;fill-opacity:1;stroke:none;stroke-width:0.26458332px;stroke-linecap:butt;stroke-linejoin:miter;stroke-opacity:1" />
      <path
         sodipodi:nodetypes="ccccc"
         inkscape:connector-curvature="0"
         id="path1765"
         d="m 302.02558,234.52002 12.43542,-8.86355 2.77812,4.36563 c -3.33829,9.28917 -9.36733,13.96562 -15.08125,19.18229 z"
         style="fill:#2d414b;fill-opacity:1;stroke:none;stroke-width:0.26458332px;stroke-linecap:butt;stroke-linejoin:miter;stroke-opacity:1" />
      <path
         sodipodi:nodetypes="cccccc"
         inkscape:connector-curvature="0"
         id="path1781"
         d="m 308.28283,231.08807 3.97564,9.86893 -6.36102,5.56588 -5.3788,-11.4124 5.42557,-4.44336 z"
         style="fill:#541001;fill-opacity:1;stroke:none;stroke-width:0.26458332px;stroke-linecap:butt;stroke-linejoin:miter;stroke-opacity:1" />
      <path
         sodipodi:nodetypes="cccccc"
         inkscape:connector-curvature="0"
         id="path1687"
         d="m 278.47766,245.8971 c 8.06979,-1.49856 16.13959,-6.68913 24.20938,-13.09687 6.7162,8.95278 3.72561,24.8726 3.04271,24.47396 l -27.51667,5.42395 -5.29167,-11.77395 z"
         style="fill:#2d0901;fill-opacity:1;stroke:none;stroke-width:0.26458332px;stroke-linecap:butt;stroke-linejoin:miter;stroke-opacity:1" />
      <path
         sodipodi:nodetypes="cccc"
         inkscape:connector-curvature="0"
         id="path1771"
         d="m 315.99736,226.33993 c 0.92252,-0.60948 2.2775,-2.54036 2.70109,-1.62533 0.17894,0.97811 -0.74572,1.10027 -1.20438,1.57856 -0.0742,0.90813 0.0287,1.8542 -0.87698,2.58416"
         style="fill:none;stroke:#ffffff;stroke-width:0.26458332px;stroke-linecap:butt;stroke-linejoin:miter;stroke-opacity:1" />
      <path
         inkscape:connector-curvature="0"
         id="path1773"
         d="m 313.52131,225.61573 0.84191,1.21607 -8.419,6.36102 -0.93544,-2.24507 z"
         style="fill:#652a00;fill-opacity:1;stroke:#652a00;stroke-width:0.26458332px;stroke-linecap:butt;stroke-linejoin:miter;stroke-opacity:1" />
      <path
         style="fill:#8e5229;fill-opacity:1;stroke:none;stroke-width:0.18600614px;stroke-linecap:butt;stroke-linejoin:miter;stroke-opacity:1"
         d="m 311.39009,226.344 0.59188,0.85492 -5.91869,4.47189 -0.65763,-1.57832 z"
         id="path1775"
         inkscape:connector-curvature="0" />
      <path
         inkscape:connector-curvature="0"
         id="path1777"
         d="m 310.28597,226.58252 -0.88512,0.61637 4.81507,10.03311 0.7081,-1.19849 z"
         style="fill:#2d0901;fill-opacity:1;stroke:none;stroke-width:0.27855191px;stroke-linecap:butt;stroke-linejoin:miter;stroke-opacity:1" />
      <path
         style="fill:#2d0901;fill-opacity:1;stroke:none;stroke-width:0.31002465px;stroke-linecap:butt;stroke-linejoin:miter;stroke-opacity:1"
         d="m 308.48032,227.50856 -0.96462,0.70059 5.24756,11.4041 0.7717,-1.36226 z"
         id="path1779"
         inkscape:connector-curvature="0" />
    </g>
  </g>
</svg>
