<?xml version="1.0" encoding="UTF-8" standalone="no"?>
<!-- Created with Inkscape (http://www.inkscape.org/) -->

<svg
   xmlns:dc="http://purl.org/dc/elements/1.1/"
   xmlns:cc="http://creativecommons.org/ns#"
   xmlns:rdf="http://www.w3.org/1999/02/22-rdf-syntax-ns#"
   xmlns:svg="http://www.w3.org/2000/svg"
   xmlns="http://www.w3.org/2000/svg"
   xmlns:sodipodi="http://sodipodi.sourceforge.net/DTD/sodipodi-0.dtd"
   xmlns:inkscape="http://www.inkscape.org/namespaces/inkscape"
   width="182.95413mm"
   height="79.975914mm"
   viewBox="0 0 182.95413 79.975913"
   version="1.1"
   id="svg8"
   inkscape:version="0.92.2 (5c3e80d, 2017-08-06)"
   sodipodi:docname="person.svg">
  <defs
     id="defs2" />
  <sodipodi:namedview
     id="base"
     pagecolor="#ffffff"
     bordercolor="#666666"
     borderopacity="1.0"
     inkscape:pageopacity="0.0"
     inkscape:pageshadow="2"
     inkscape:zoom="1.4142136"
     inkscape:cx="309.91054"
     inkscape:cy="134.95686"
     inkscape:document-units="mm"
     inkscape:current-layer="layer1"
     showgrid="false"
     fit-margin-top="0"
     fit-margin-left="0"
     fit-margin-right="0"
     fit-margin-bottom="0"
     inkscape:window-width="1920"
     inkscape:window-height="1016"
     inkscape:window-x="0"
     inkscape:window-y="27"
     inkscape:window-maximized="1"
     inkscape:snap-global="false"
     inkscape:measure-start="0,0"
     inkscape:measure-end="0,0" />
  <metadata
     id="metadata5">
    <rdf:RDF>
      <cc:Work
         rdf:about="">
        <dc:format>image/svg+xml</dc:format>
        <dc:type
           rdf:resource="http://purl.org/dc/dcmitype/StillImage" />
        <dc:title></dc:title>
      </cc:Work>
    </rdf:RDF>
  </metadata>
  <g
     inkscape:label="Layer 1"
     inkscape:groupmode="layer"
     id="layer1"
     transform="translate(-139.37575,-41.470608)">
    <g
       transform="matrix(0.52513688,-0.10571873,-0.16324848,-0.81090463,204.39727,248.88298)"
       id="g1651">
      <path
         style="fill:none;stroke:#00a7b9;stroke-width:1.32682025;stroke-linecap:butt;stroke-linejoin:miter;stroke-miterlimit:4;stroke-dasharray:none;stroke-opacity:1"
         d="m 15.002441,169.9437 -4.348149,-1.07436 -3.2930057,1.58 -5.1180952,-0.73829 -10.0019892,1.61372 -9.0404529,-1.68297"
         id="path1599"
         inkscape:connector-curvature="0" />
      <path
         style="fill:none;stroke:#0088aa;stroke-width:1.32682025;stroke-linecap:butt;stroke-linejoin:miter;stroke-miterlimit:4;stroke-dasharray:none;stroke-opacity:1"
         d="m 12.497228,168.71343 -4.4125928,-0.7679 -3.1745525,1.80624 -5.15717348,-0.37885 -9.86478122,2.30867 -9.135955,-1.04717"
         id="path1601"
         inkscape:connector-curvature="0" />
      <path
         inkscape:connector-curvature="0"
         id="path1603"
         d="m 15.4327,170.55717 -4.348149,1.07435 -3.2930061,-1.57999 -5.1180948,0.73828 -10.0019891,-1.61372 -9.040453,1.68298"
         style="fill:none;stroke:#00a7b9;stroke-width:1.32682025;stroke-linecap:butt;stroke-linejoin:miter;stroke-miterlimit:4;stroke-dasharray:none;stroke-opacity:1" />
      <path
         style="fill:none;stroke:#00a7b9;stroke-width:1.32682025;stroke-linecap:butt;stroke-linejoin:miter;stroke-miterlimit:4;stroke-dasharray:none;stroke-opacity:1"
         d="m 14.962805,170.18586 -4.439342,0.59404 -3.1011798,-1.92949 -5.1680717,0.17605 -9.7665193,-2.69425 -9.1700282,0.68761"
         id="path1605"
         inkscape:connector-curvature="0" />
      <path
         inkscape:connector-curvature="0"
         id="path1607"
         d="m 11.058484,166.77068 -4.4741572,0.20631 -2.707851,2.45108 -5.1167684,0.74742 -9.1303414,4.39099 -9.145843,0.95695"
         style="fill:none;stroke:#0088aa;stroke-width:1.32682025;stroke-linecap:butt;stroke-linejoin:miter;stroke-miterlimit:4;stroke-dasharray:none;stroke-opacity:1" />
      <path
         inkscape:connector-curvature="0"
         id="path1609"
         d="m 12.944209,173.69153 -4.2052168,1.54169 -3.445542,-1.21182 -5.00719373,1.2915 -10.11826367,-0.51441 -8.8032798,2.65791"
         style="fill:none;stroke:#0088aa;stroke-width:1.32682025;stroke-linecap:butt;stroke-linejoin:miter;stroke-miterlimit:4;stroke-dasharray:none;stroke-opacity:1" />
      <path
         style="fill:none;stroke:#0088aa;stroke-width:1.32682025;stroke-linecap:butt;stroke-linejoin:miter;stroke-miterlimit:4;stroke-dasharray:none;stroke-opacity:1"
         d="m 12.981191,173.21619 -4.4393432,0.59404 -3.1011799,-1.92949 -5.16807162,0.17604 -9.76651948,-2.69424 -9.1700268,0.68761"
         id="path1611"
         inkscape:connector-curvature="0" />
      <path
         inkscape:connector-curvature="0"
         id="path1613"
         d="m 14.479914,172.23351 -4.006469,2.00221 -3.559433,-0.81897 -4.8313896,1.84327 -10.1123327,0.62015 -8.4508907,3.62556"
         style="fill:none;stroke:#00a7b9;stroke-width:1.32682025;stroke-linecap:butt;stroke-linejoin:miter;stroke-miterlimit:4;stroke-dasharray:none;stroke-opacity:1" />
      <path
         style="fill:none;stroke:#0088aa;stroke-width:1.32682025;stroke-linecap:butt;stroke-linejoin:miter;stroke-miterlimit:4;stroke-dasharray:none;stroke-opacity:1"
         d="m 8.7831114,173.31232 -4.345085,1.08668 -3.297474,-1.57065 -5.1159834,0.75278 -10.006527,-1.58535 -9.035641,1.70863"
         id="path1615"
         inkscape:connector-curvature="0" />
      <path
         style="fill:none;stroke:#0088aa;stroke-width:1.32682025;stroke-linecap:butt;stroke-linejoin:miter;stroke-miterlimit:4;stroke-dasharray:none;stroke-opacity:1"
         d="m 15.726035,172.06945 -4.470784,-0.26971 -2.9526882,2.14987 -5.1671963,0.20015 -9.5447849,3.3972 -9.1957516,-0.0191"
         id="path1617"
         inkscape:connector-curvature="0" />
      <path
         inkscape:connector-curvature="0"
         id="path1619"
         d="m 17.400122,171.07115 -4.458904,0.42286 -2.58588,2.57943 -5.0745311,0.99453 -8.9068041,4.82833 -9.0887168,1.39908"
         style="fill:none;stroke:#0088aa;stroke-width:1.32682025;stroke-linecap:butt;stroke-linejoin:miter;stroke-miterlimit:4;stroke-dasharray:none;stroke-opacity:1" />
      <path
         inkscape:connector-curvature="0"
         id="path1621"
         d="m 8.7831114,173.31232 -4.345085,1.08668 -3.297474,-1.57065 -5.1159834,0.75278 -10.006527,-1.58535 -9.035641,1.70863"
         style="fill:none;stroke:#0088aa;stroke-width:1.32682025;stroke-linecap:butt;stroke-linejoin:miter;stroke-miterlimit:4;stroke-dasharray:none;stroke-opacity:1" />
      <path
         style="fill:none;stroke:#00a7b9;stroke-width:1.32682025;stroke-linecap:butt;stroke-linejoin:miter;stroke-miterlimit:4;stroke-dasharray:none;stroke-opacity:1"
         d="m 13.553025,171.69479 -4.1765528,1.61773 -3.4669608,-1.14911 -4.98293741,1.38214 -10.12593119,-0.33075 -8.7536078,2.81719"
         id="path1623"
         inkscape:connector-curvature="0" />
      <path
         inkscape:connector-curvature="0"
         id="path1625"
         d="m 19.50989,169.35178 -5.722671,-1.41398 -4.3339785,2.07946 -6.7360095,-0.97167 -13.163783,2.12384 -11.898289,-2.21499"
         style="fill:none;stroke:#00a7b9;stroke-width:1.74625003;stroke-linecap:butt;stroke-linejoin:miter;stroke-miterlimit:4;stroke-dasharray:none;stroke-opacity:1" />
      <path
         inkscape:connector-curvature="0"
         id="path1627"
         d="m 16.212738,167.7326 -5.807486,-1.01065 -4.1780809,2.37722 -6.78744115,-0.49861 -12.98320095,3.03848 -12.023982,-1.37819"
         style="fill:none;stroke:#0088aa;stroke-width:1.74625003;stroke-linecap:butt;stroke-linejoin:miter;stroke-miterlimit:4;stroke-dasharray:none;stroke-opacity:1" />
      <path
         style="fill:none;stroke:#00a7b9;stroke-width:1.74625003;stroke-linecap:butt;stroke-linejoin:miter;stroke-miterlimit:4;stroke-dasharray:none;stroke-opacity:1"
         d="m 20.076161,170.15917 -5.722671,1.41398 -4.333979,-2.07946 -6.736009,0.97167 -13.1637829,-2.12384 -11.8982891,2.21499"
         id="path1629"
         inkscape:connector-curvature="0" />
      <path
         inkscape:connector-curvature="0"
         id="path1631"
         d="m 19.457725,169.67049 -5.842692,0.78183 -4.0815135,-2.53944 -6.8017843,0.2317 -12.8538772,-3.54594 -12.068825,0.90497"
         style="fill:none;stroke:#00a7b9;stroke-width:1.74625003;stroke-linecap:butt;stroke-linejoin:miter;stroke-miterlimit:4;stroke-dasharray:none;stroke-opacity:1" />
      <path
         style="fill:none;stroke:#0088aa;stroke-width:1.74625003;stroke-linecap:butt;stroke-linejoin:miter;stroke-miterlimit:4;stroke-dasharray:none;stroke-opacity:1"
         d="m 14.319183,165.17572 -5.8885117,0.27152 -3.5638473,3.22591 -6.7342633,0.98369 -12.0165927,5.77905 -12.036995,1.25946"
         id="path1633"
         inkscape:connector-curvature="0" />
      <path
         style="fill:none;stroke:#0088aa;stroke-width:1.74625003;stroke-linecap:butt;stroke-linejoin:miter;stroke-miterlimit:4;stroke-dasharray:none;stroke-opacity:1"
         d="m 16.801017,174.28436 -5.534555,2.02904 -4.5347346,-1.5949 -6.59005035,1.69977 -13.31681305,-0.67702 -11.586142,3.49812"
         id="path1635"
         inkscape:connector-curvature="0" />
      <path
         inkscape:connector-curvature="0"
         id="path1637"
         d="m 16.849689,173.65876 -5.842692,0.78182 -4.081514,-2.53943 -6.80178435,0.23169 -12.85387765,-3.54594 -12.068824,0.90498"
         style="fill:none;stroke:#0088aa;stroke-width:1.74625003;stroke-linecap:butt;stroke-linejoin:miter;stroke-miterlimit:4;stroke-dasharray:none;stroke-opacity:1" />
      <path
         style="fill:none;stroke:#00a7b9;stroke-width:1.74625003;stroke-linecap:butt;stroke-linejoin:miter;stroke-miterlimit:4;stroke-dasharray:none;stroke-opacity:1"
         d="m 18.822183,172.36543 -5.272979,2.63514 -4.6846285,-1.07786 -6.3586716,2.42596 -13.3090079,0.8162 -11.122357,4.77166"
         id="path1639"
         inkscape:connector-curvature="0" />
      <path
         inkscape:connector-curvature="0"
         id="path1641"
         d="m 11.324528,173.78528 -5.718638,1.43019 -4.33986,-2.06715 -6.7332301,0.99074 -13.1697549,-2.0865 -11.891957,2.24875"
         style="fill:none;stroke:#0088aa;stroke-width:1.74625003;stroke-linecap:butt;stroke-linejoin:miter;stroke-miterlimit:4;stroke-dasharray:none;stroke-opacity:1" />
      <path
         inkscape:connector-curvature="0"
         id="path1643"
         d="m 20.462224,172.14951 -5.884073,-0.35497 -3.886081,2.82948 -6.8006322,0.26342 -12.5620488,4.47111 -12.102681,-0.0251"
         style="fill:none;stroke:#0088aa;stroke-width:1.74625003;stroke-linecap:butt;stroke-linejoin:miter;stroke-miterlimit:4;stroke-dasharray:none;stroke-opacity:1" />
      <path
         style="fill:none;stroke:#0088aa;stroke-width:1.74625003;stroke-linecap:butt;stroke-linejoin:miter;stroke-miterlimit:4;stroke-dasharray:none;stroke-opacity:1"
         d="m 22.665518,170.83564 -5.868438,0.55653 -3.403319,3.39483 -6.6786737,1.30892 -11.7223918,6.35464 -11.9618105,1.84135"
         id="path1645"
         inkscape:connector-curvature="0" />
      <path
         style="fill:none;stroke:#0088aa;stroke-width:1.74625003;stroke-linecap:butt;stroke-linejoin:miter;stroke-miterlimit:4;stroke-dasharray:none;stroke-opacity:1"
         d="m 11.324528,173.78528 -5.718638,1.43019 -4.33986,-2.06715 -6.7332301,0.99074 -13.1697549,-2.0865 -11.891957,2.24875"
         id="path1647"
         inkscape:connector-curvature="0" />
      <path
         inkscape:connector-curvature="0"
         id="path1649"
         d="m 17.60229,171.65642 -5.49683,2.12912 -4.5629243,-1.51236 -6.55812619,1.81905 -13.32690551,-0.4353 -11.520768,3.70775"
         style="fill:none;stroke:#00a7b9;stroke-width:1.74625003;stroke-linecap:butt;stroke-linejoin:miter;stroke-miterlimit:4;stroke-dasharray:none;stroke-opacity:1" />
    </g>
    <g
       id="g1596"
       transform="matrix(0.82225081,0,0,0.82225081,173.79349,-30.797218)">
      <path
         inkscape:connector-curvature="0"
         id="path1539"
         d="m 15.002441,169.9437 -4.348149,-1.07436 -3.2930057,1.58 -5.1180952,-0.73829 -10.0019892,1.61372 -9.0404529,-1.68297"
         style="fill:none;stroke:#00a7b9;stroke-width:1.32682025;stroke-linecap:butt;stroke-linejoin:miter;stroke-miterlimit:4;stroke-dasharray:none;stroke-opacity:1" />
      <path
         inkscape:connector-curvature="0"
         id="path1541"
         d="m 12.497228,168.71343 -4.4125928,-0.7679 -3.1745525,1.80624 -5.15717348,-0.37885 -9.86478122,2.30867 -9.135955,-1.04717"
         style="fill:none;stroke:#0088aa;stroke-width:1.32682025;stroke-linecap:butt;stroke-linejoin:miter;stroke-miterlimit:4;stroke-dasharray:none;stroke-opacity:1" />
      <path
         style="fill:none;stroke:#00a7b9;stroke-width:1.32682025;stroke-linecap:butt;stroke-linejoin:miter;stroke-miterlimit:4;stroke-dasharray:none;stroke-opacity:1"
         d="m 15.4327,170.55717 -4.348149,1.07435 -3.2930061,-1.57999 -5.1180948,0.73828 -10.0019891,-1.61372 -9.040453,1.68298"
         id="path1543"
         inkscape:connector-curvature="0" />
      <path
         inkscape:connector-curvature="0"
         id="path1546"
         d="m 14.962805,170.18586 -4.439342,0.59404 -3.1011798,-1.92949 -5.1680717,0.17605 -9.7665193,-2.69425 -9.1700282,0.68761"
         style="fill:none;stroke:#00a7b9;stroke-width:1.32682025;stroke-linecap:butt;stroke-linejoin:miter;stroke-miterlimit:4;stroke-dasharray:none;stroke-opacity:1" />
      <path
         style="fill:none;stroke:#0088aa;stroke-width:1.32682025;stroke-linecap:butt;stroke-linejoin:miter;stroke-miterlimit:4;stroke-dasharray:none;stroke-opacity:1"
         d="m 11.058484,166.77068 -4.4741572,0.20631 -2.707851,2.45108 -5.1167684,0.74742 -9.1303414,4.39099 -9.145843,0.95695"
         id="path1548"
         inkscape:connector-curvature="0" />
      <path
         style="fill:none;stroke:#0088aa;stroke-width:1.32682025;stroke-linecap:butt;stroke-linejoin:miter;stroke-miterlimit:4;stroke-dasharray:none;stroke-opacity:1"
         d="m 12.944209,173.69153 -4.2052168,1.54169 -3.445542,-1.21182 -5.00719373,1.2915 -10.11826367,-0.51441 -8.8032798,2.65791"
         id="path1550"
         inkscape:connector-curvature="0" />
      <path
         inkscape:connector-curvature="0"
         id="path1552"
         d="m 12.981191,173.21619 -4.4393432,0.59404 -3.1011799,-1.92949 -5.16807162,0.17604 -9.76651948,-2.69424 -9.1700268,0.68761"
         style="fill:none;stroke:#0088aa;stroke-width:1.32682025;stroke-linecap:butt;stroke-linejoin:miter;stroke-miterlimit:4;stroke-dasharray:none;stroke-opacity:1" />
      <path
         style="fill:none;stroke:#00a7b9;stroke-width:1.32682025;stroke-linecap:butt;stroke-linejoin:miter;stroke-miterlimit:4;stroke-dasharray:none;stroke-opacity:1"
         d="m 14.479914,172.23351 -4.006469,2.00221 -3.559433,-0.81897 -4.8313896,1.84327 -10.1123327,0.62015 -8.4508907,3.62556"
         id="path1554"
         inkscape:connector-curvature="0" />
      <path
         inkscape:connector-curvature="0"
         id="path1556"
         d="m 8.7831114,173.31232 -4.345085,1.08668 -3.297474,-1.57065 -5.1159834,0.75278 -10.006527,-1.58535 -9.035641,1.70863"
         style="fill:none;stroke:#0088aa;stroke-width:1.32682025;stroke-linecap:butt;stroke-linejoin:miter;stroke-miterlimit:4;stroke-dasharray:none;stroke-opacity:1" />
      <path
         inkscape:connector-curvature="0"
         id="path1558"
         d="m 15.726035,172.06945 -4.470784,-0.26971 -2.9526882,2.14987 -5.1671963,0.20015 -9.5447849,3.3972 -9.1957516,-0.0191"
         style="fill:none;stroke:#0088aa;stroke-width:1.32682025;stroke-linecap:butt;stroke-linejoin:miter;stroke-miterlimit:4;stroke-dasharray:none;stroke-opacity:1" />
      <path
         style="fill:none;stroke:#0088aa;stroke-width:1.32682025;stroke-linecap:butt;stroke-linejoin:miter;stroke-miterlimit:4;stroke-dasharray:none;stroke-opacity:1"
         d="m 17.400122,171.07115 -4.458904,0.42286 -2.58588,2.57943 -5.0745311,0.99453 -8.9068041,4.82833 -9.0887168,1.39908"
         id="path1560"
         inkscape:connector-curvature="0" />
      <path
         style="fill:none;stroke:#0088aa;stroke-width:1.32682025;stroke-linecap:butt;stroke-linejoin:miter;stroke-miterlimit:4;stroke-dasharray:none;stroke-opacity:1"
         d="m 8.7831114,173.31232 -4.345085,1.08668 -3.297474,-1.57065 -5.1159834,0.75278 -10.006527,-1.58535 -9.035641,1.70863"
         id="path1562"
         inkscape:connector-curvature="0" />
      <path
         inkscape:connector-curvature="0"
         id="path1564"
         d="m 13.553025,171.69479 -4.1765528,1.61773 -3.4669608,-1.14911 -4.98293741,1.38214 -10.12593119,-0.33075 -8.7536078,2.81719"
         style="fill:none;stroke:#00a7b9;stroke-width:1.32682025;stroke-linecap:butt;stroke-linejoin:miter;stroke-miterlimit:4;stroke-dasharray:none;stroke-opacity:1" />
      <path
         style="fill:none;stroke:#00a7b9;stroke-width:1.74625003;stroke-linecap:butt;stroke-linejoin:miter;stroke-miterlimit:4;stroke-dasharray:none;stroke-opacity:1"
         d="m 19.50989,169.35178 -5.722671,-1.41398 -4.3339785,2.07946 -6.7360095,-0.97167 -13.163783,2.12384 -11.898289,-2.21499"
         id="path1519"
         inkscape:connector-curvature="0" />
      <path
         style="fill:none;stroke:#0088aa;stroke-width:1.74625003;stroke-linecap:butt;stroke-linejoin:miter;stroke-miterlimit:4;stroke-dasharray:none;stroke-opacity:1"
         d="m 16.212738,167.7326 -5.807486,-1.01065 -4.1780809,2.37722 -6.78744115,-0.49861 -12.98320095,3.03848 -12.023982,-1.37819"
         id="path1517"
         inkscape:connector-curvature="0" />
      <path
         inkscape:connector-curvature="0"
         id="path1513"
         d="m 20.076161,170.15917 -5.722671,1.41398 -4.333979,-2.07946 -6.736009,0.97167 -13.1637829,-2.12384 -11.8982891,2.21499"
         style="fill:none;stroke:#00a7b9;stroke-width:1.74625003;stroke-linecap:butt;stroke-linejoin:miter;stroke-miterlimit:4;stroke-dasharray:none;stroke-opacity:1" />
      <path
         style="fill:none;stroke:#00a7b9;stroke-width:1.74625003;stroke-linecap:butt;stroke-linejoin:miter;stroke-miterlimit:4;stroke-dasharray:none;stroke-opacity:1"
         d="m 19.457725,169.67049 -5.842692,0.78183 -4.0815135,-2.53944 -6.8017843,0.2317 -12.8538772,-3.54594 -12.068825,0.90497"
         id="path1511"
         inkscape:connector-curvature="0" />
      <path
         inkscape:connector-curvature="0"
         id="path1509"
         d="m 14.319183,165.17572 -5.8885117,0.27152 -3.5638473,3.22591 -6.7342633,0.98369 -12.0165927,5.77905 -12.036995,1.25946"
         style="fill:none;stroke:#0088aa;stroke-width:1.74625003;stroke-linecap:butt;stroke-linejoin:miter;stroke-miterlimit:4;stroke-dasharray:none;stroke-opacity:1" />
      <path
         inkscape:connector-curvature="0"
         id="path1521"
         d="m 16.801017,174.28436 -5.534555,2.02904 -4.5347346,-1.5949 -6.59005035,1.69977 -13.31681305,-0.67702 -11.586142,3.49812"
         style="fill:none;stroke:#0088aa;stroke-width:1.74625003;stroke-linecap:butt;stroke-linejoin:miter;stroke-miterlimit:4;stroke-dasharray:none;stroke-opacity:1" />
      <path
         style="fill:none;stroke:#0088aa;stroke-width:1.74625003;stroke-linecap:butt;stroke-linejoin:miter;stroke-miterlimit:4;stroke-dasharray:none;stroke-opacity:1"
         d="m 16.849689,173.65876 -5.842692,0.78182 -4.081514,-2.53943 -6.80178435,0.23169 -12.85387765,-3.54594 -12.068824,0.90498"
         id="path1523"
         inkscape:connector-curvature="0" />
      <path
         inkscape:connector-curvature="0"
         id="path1527"
         d="m 18.822183,172.36543 -5.272979,2.63514 -4.6846285,-1.07786 -6.3586716,2.42596 -13.3090079,0.8162 -11.122357,4.77166"
         style="fill:none;stroke:#00a7b9;stroke-width:1.74625003;stroke-linecap:butt;stroke-linejoin:miter;stroke-miterlimit:4;stroke-dasharray:none;stroke-opacity:1" />
      <path
         style="fill:none;stroke:#0088aa;stroke-width:1.74625003;stroke-linecap:butt;stroke-linejoin:miter;stroke-miterlimit:4;stroke-dasharray:none;stroke-opacity:1"
         d="m 11.324528,173.78528 -5.718638,1.43019 -4.33986,-2.06715 -6.7332301,0.99074 -13.1697549,-2.0865 -11.891957,2.24875"
         id="path1529"
         inkscape:connector-curvature="0" />
      <path
         style="fill:none;stroke:#0088aa;stroke-width:1.74625003;stroke-linecap:butt;stroke-linejoin:miter;stroke-miterlimit:4;stroke-dasharray:none;stroke-opacity:1"
         d="m 20.462224,172.14951 -5.884073,-0.35497 -3.886081,2.82948 -6.8006322,0.26342 -12.5620488,4.47111 -12.102681,-0.0251"
         id="path1531"
         inkscape:connector-curvature="0" />
      <path
         inkscape:connector-curvature="0"
         id="path1533"
         d="m 22.665518,170.83564 -5.868438,0.55653 -3.403319,3.39483 -6.6786737,1.30892 -11.7223918,6.35464 -11.9618105,1.84135"
         style="fill:none;stroke:#0088aa;stroke-width:1.74625003;stroke-linecap:butt;stroke-linejoin:miter;stroke-miterlimit:4;stroke-dasharray:none;stroke-opacity:1" />
      <path
         inkscape:connector-curvature="0"
         id="path1535"
         d="m 11.324528,173.78528 -5.718638,1.43019 -4.33986,-2.06715 -6.7332301,0.99074 -13.1697549,-2.0865 -11.891957,2.24875"
         style="fill:none;stroke:#0088aa;stroke-width:1.74625003;stroke-linecap:butt;stroke-linejoin:miter;stroke-miterlimit:4;stroke-dasharray:none;stroke-opacity:1" />
      <path
         style="fill:none;stroke:#00a7b9;stroke-width:1.74625003;stroke-linecap:butt;stroke-linejoin:miter;stroke-miterlimit:4;stroke-dasharray:none;stroke-opacity:1"
         d="m 17.60229,171.65642 -5.49683,2.12912 -4.5629243,-1.51236 -6.55812619,1.81905 -13.32690551,-0.4353 -11.520768,3.70775"
         id="path1537"
         inkscape:connector-curvature="0" />
    </g>
    <path
       sodipodi:nodetypes="ccsccc"
       inkscape:connector-curvature="0"
       id="path1566"
       d="m 189.4499,106.7357 c -0.61744,-1.387 -0.132,-3.71125 -4.67543,-2.34931 -1.33736,1.77829 -0.18331,8.64556 1.78077,9.16354 0.78099,0.20599 4.53897,-0.0343 5.00507,-0.61369 0.91269,-1.17044 -0.59138,-3.34209 -1.27231,-4.60174 -0.25637,-0.53993 -0.62482,-1.04643 -0.8381,-1.5988 z"
       style="fill:#483737;fill-opacity:1;stroke:none;stroke-width:0.26202592px;stroke-linecap:butt;stroke-linejoin:miter;stroke-opacity:1" />
    <path
       sodipodi:nodetypes="ccsccc"
       inkscape:connector-curvature="0"
       id="path1568"
       d="m 190.39697,106.66162 c -0.61919,-1.40249 -0.13648,-3.75089 -4.67889,-2.3799 -1.3354,1.79559 -0.17295,8.73727 1.79202,9.26313 0.78134,0.20911 2.22477,-0.24171 2.69023,-0.82663 0.91141,-1.18179 1.7193,-3.16593 1.03676,-4.4398 -0.25704,-0.54599 -0.62616,-1.05833 -0.84012,-1.6168 z"
       style="fill:#00a7b9;fill-opacity:1;stroke:none;stroke-width:0.26343325px;stroke-linecap:butt;stroke-linejoin:miter;stroke-opacity:1" />
    <path
       style="fill:#483737;fill-opacity:1;stroke:none;stroke-width:0.26202592px;stroke-linecap:butt;stroke-linejoin:miter;stroke-opacity:1"
       d="m 191.74345,106.34081 c -0.61743,-1.387 -0.13199,-3.71126 -4.67543,-2.34931 -1.33735,1.77828 -0.18331,8.64555 1.78078,9.16353 0.78098,0.20599 4.53897,-0.0344 5.00506,-0.61368 0.91269,-1.17045 -0.59138,-3.3421 -1.27231,-4.60175 -0.25636,-0.53992 -0.62482,-1.04643 -0.8381,-1.59879 z"
       id="path1505"
       inkscape:connector-curvature="0"
       sodipodi:nodetypes="ccsccc" />
    <path
       style="fill:#00a7b9;fill-opacity:1;stroke:none;stroke-width:0.26343325px;stroke-linecap:butt;stroke-linejoin:miter;stroke-opacity:1"
       d="m 193.13279,106.11286 c -0.61918,-1.40246 -0.13648,-3.75085 -4.67888,-2.37989 -1.33541,1.79558 -0.17295,8.73729 1.79201,9.26314 0.78134,0.2091 2.22478,-0.24171 2.69024,-0.82663 0.91141,-1.18179 1.71929,-3.16593 1.03676,-4.43981 -0.25705,-0.54597 -0.62616,-1.0583 -0.84013,-1.61681 z"
       id="path1500"
       inkscape:connector-curvature="0"
       sodipodi:nodetypes="ccsccc" />
    <path
       sodipodi:nodetypes="ccsccc"
       inkscape:connector-curvature="0"
       id="path1497"
       d="m 194.16889,106.0671 c -0.61743,-1.387 -0.13199,-3.71123 -4.67542,-2.34931 -1.33736,1.77829 -0.18332,8.64556 1.78077,9.16355 0.78099,0.20598 2.22476,-0.24179 2.69086,-0.82112 0.91269,-1.17045 1.72282,-3.13467 1.04189,-4.39432 -0.25636,-0.53993 -0.62481,-1.04642 -0.8381,-1.5988 z"
       style="fill:#483737;fill-opacity:1;stroke:none;stroke-width:0.26202592px;stroke-linecap:butt;stroke-linejoin:miter;stroke-opacity:1" />
    <path
       style="fill:#00a7b9;fill-opacity:1;stroke:none;stroke-width:0.21755385px;stroke-linecap:butt;stroke-linejoin:miter;stroke-opacity:1"
       d="m 194.86228,105.88473 c -0.47607,-1.40296 -1.6198,-3.02653 -3.32263,-2.50196 -2.86304,2.39988 1.32176,11.97837 3.20383,7.93881 0.59223,-1.13426 1.27082,-2.537 0.75516,-3.81531 -0.19642,-0.54668 -0.46939,-1.06395 -0.63636,-1.62154 z"
       id="path1486"
       inkscape:connector-curvature="0"
       sodipodi:nodetypes="ccccc" />
    <path
       inkscape:connector-curvature="0"
       id="path947"
       d="m 217.22488,62.911988 c -5.97821,-1.15409 -12.98579,2.92358 -13.82844,9.1916 -0.0375,2.30357 -0.0488,4.89485 1.54084,6.74658 2.77705,3.64862 7.08559,5.44683 10.85298,7.85233 3.52672,2.11742 7.05345,4.23486 10.58018,6.35229 3.22977,-3.25805 6.76211,-6.35765 9.1781,-10.29391 0.41183,-2.32298 -1.5774,-4.22841 -2.5958,-6.1308 -2.55369,-3.67944 -5.30787,-7.26629 -8.37142,-10.52236 -2.12264,-1.66589 -4.65268,-2.89747 -7.35644,-3.19573 z"
       style="opacity:1;fill:#2d414b;fill-opacity:1;stroke:none;stroke-width:1.42249393;stroke-miterlimit:4;stroke-dasharray:none;stroke-opacity:1" />
    <path
       sodipodi:nodetypes="cccccc"
       inkscape:connector-curvature="0"
       id="path949"
       d="m 226.23403,88.159798 c -2.44927,-2.47021 -4.55014,-2.24764 -6.77225,-2.96214 -3.4275,4.24975 -5.44829,9.66198 -6.79473,15.631482 l 5.29371,2.90817 12.1068,-10.211762 z"
       style="fill:#3d0d00;fill-opacity:1;stroke:none;stroke-width:0.21755385px;stroke-linecap:butt;stroke-linejoin:miter;stroke-opacity:1" />
    <path
       inkscape:connector-curvature="0"
       id="path951"
       d="m 225.89135,79.183088 c 0,0 5.8164,-5.71248 9.31836,-1.96868 3.50196,3.74382 1.42844,9.70043 1.42844,9.70043 0,0 -2.49648,4.83204 -5.87341,6.34415 -3.37692,1.51215 -4.79341,-5.415 -4.79341,-5.415 0,0 6.72028,-7.84115 4.00404,-8.4609 -2.71624,-0.61976 -4.08402,-0.2 -4.08402,-0.2 z"
       style="fill:#662c00;fill-opacity:1;stroke:none;stroke-width:0.21755385px;stroke-linecap:butt;stroke-linejoin:miter;stroke-opacity:1" />
    <path
       sodipodi:nodetypes="cccccccc"
       inkscape:connector-curvature="0"
       id="path953"
       d="m 212.88483,100.05861 c -2.67782,0.1898 -3.25904,5.59491 -2.71789,13.79195 0.37665,0.66803 0.96144,0.78641 1.84074,0.12707 l 1.75758,-4.10495 c 2.69509,-4.10698 5.58631,-6.63166 8.44239,-9.43972 -0.69508,-0.595752 -1.42571,-1.185032 -2.71094,-1.672892 l -2.98273,2.459542 c -2.57518,0.27329 -2.47271,-0.74824 -3.62915,-1.16102 z"
       style="fill:#2d414b;fill-opacity:1;stroke:none;stroke-width:0.23227999px;stroke-linecap:butt;stroke-linejoin:miter;stroke-opacity:1" />
    <path
       sodipodi:nodetypes="ccccc"
       inkscape:connector-curvature="0"
       id="path955"
       d="m 232.94342,79.763188 6.45038,-2.15256 c 0.94435,7.43329 -1.14614,9.66616 -5.84078,14.90713 l -1.93832,-4.25827 c 0.86939,-2.26853 2.1522,-3.99075 1.32872,-8.4963 z"
       style="fill:#8e5229;fill-opacity:1;stroke:none;stroke-width:0.21755385px;stroke-linecap:butt;stroke-linejoin:miter;stroke-opacity:1" />
    <path
       style="fill:#000000;fill-opacity:1;stroke:none;stroke-width:0.21755385px;stroke-linecap:butt;stroke-linejoin:miter;stroke-opacity:1"
       d="m 226.23403,88.159798 c -2.44927,-2.47021 -4.55014,-2.24764 -6.77225,-2.96214 -3.4275,4.24975 -5.44829,9.66198 -6.79473,15.631482 l 5.29371,2.90817 12.1068,-10.211762 z"
       id="path961"
       inkscape:connector-curvature="0"
       sodipodi:nodetypes="cccccc" />
    <path
       style="fill:#000000;fill-opacity:1;stroke:none;stroke-width:0.21755385px;stroke-linecap:butt;stroke-linejoin:miter;stroke-opacity:1"
       d="m 225.89135,79.183088 c 0,0 5.8164,-5.71248 9.31836,-1.96868 3.50196,3.74382 1.42844,9.70043 1.42844,9.70043 0,0 -2.49648,4.83204 -5.87341,6.34415 -3.37692,1.51215 -4.79341,-5.415 -4.79341,-5.415 0,0 6.72028,-7.84115 4.00404,-8.4609 -2.71624,-0.61976 -4.08402,-0.2 -4.08402,-0.2 z"
       id="path963"
       inkscape:connector-curvature="0" />
    <path
       style="fill:#000000;fill-opacity:1;stroke:none;stroke-width:0.23227999px;stroke-linecap:butt;stroke-linejoin:miter;stroke-opacity:1"
       d="m 212.88483,100.05861 c -2.67782,0.1898 -3.25904,5.59491 -2.71789,13.79195 0.37665,0.66803 0.96144,0.78641 1.84074,0.12707 l 1.75758,-4.10495 c 2.69509,-4.10698 5.58631,-6.63166 8.44239,-9.43972 -0.69508,-0.595752 -1.42571,-1.185032 -2.71094,-1.672892 l -2.98273,2.459542 c -2.57518,0.27329 -2.47271,-0.74824 -3.62915,-1.16102 z"
       id="path965"
       inkscape:connector-curvature="0"
       sodipodi:nodetypes="cccccccc" />
    <path
       style="fill:#000000;fill-opacity:1;stroke:none;stroke-width:0.21755385px;stroke-linecap:butt;stroke-linejoin:miter;stroke-opacity:1"
       d="m 232.94342,79.763188 6.45038,-2.15256 c 0.94435,7.43329 -1.14614,9.66616 -5.84078,14.90713 l -1.93832,-4.25827 c 0.86939,-2.26853 2.1522,-3.99075 1.32872,-8.4963 z"
       id="path967"
       inkscape:connector-curvature="0"
       sodipodi:nodetypes="ccccc" />
    <path
       style="color:#000000;font-style:normal;font-variant:normal;font-weight:normal;font-stretch:normal;font-size:medium;line-height:normal;font-family:sans-serif;font-variant-ligatures:normal;font-variant-position:normal;font-variant-caps:normal;font-variant-numeric:normal;font-variant-alternates:normal;font-feature-settings:normal;text-indent:0;text-align:start;text-decoration:none;text-decoration-line:none;text-decoration-style:solid;text-decoration-color:#000000;letter-spacing:normal;word-spacing:normal;text-transform:none;writing-mode:lr-tb;direction:ltr;text-orientation:mixed;dominant-baseline:auto;baseline-shift:baseline;text-anchor:start;white-space:normal;shape-padding:0;clip-rule:nonzero;display:inline;overflow:visible;visibility:visible;opacity:1;isolation:auto;mix-blend-mode:normal;color-interpolation:sRGB;color-interpolation-filters:linearRGB;solid-color:#000000;solid-opacity:1;vector-effect:none;fill:#3d0d00;fill-opacity:1;fill-rule:nonzero;stroke:none;stroke-width:2.7454648;stroke-linecap:butt;stroke-linejoin:miter;stroke-miterlimit:4;stroke-dasharray:none;stroke-dashoffset:0;stroke-opacity:1;color-rendering:auto;image-rendering:auto;shape-rendering:auto;text-rendering:auto;enable-background:accumulate"
       d="m 322.32988,75.076978 -12.80048,2.85012 -66.33293,16.47933 -6.19259,6.124482 -42.66773,5.63814 c -0.53705,1.00864 -0.31849,1.90106 0.41156,2.71476 l 42.92462,-5.87136 6.46523,-6.566862 65.11785,-15.29788 7.06103,0.98505 c 3.66966,-0.40922 5.32875,-3.16409 6.01344,-7.05578 z"
       id="path1036"
       inkscape:connector-curvature="0"
       sodipodi:nodetypes="ccccccccccc" />
    <path
       style="opacity:1;fill:#000000;fill-opacity:1;stroke:none;stroke-width:1.42249393;stroke-miterlimit:4;stroke-dasharray:none"
       d="m 235,57.993878 c -2.17732,-0.15757 -4.4181,-0.10491 -6.64729,0.15612 -5.79098,1.93368 -9.3918,6.49802 -24.53918,6.34009 -6.59068,-0.0688 -13.65444,5.03696 -12.76466,12.63141 0.88983,7.59438 11.5725,12.58382 23.86051,11.14423 3.3493,-0.39631 6.59919,-1.2548 9.50724,-2.51142 2.33448,0.20999 4.75191,0.17555 7.15815,-0.10185 11.57752,-2.12501 8.85812,-20.98365 20.63843,-16.3577 -0.70613,-6.02921 -7.68477,-10.61082 -17.2132,-11.30076 z"
       id="path985"
       inkscape:connector-curvature="0"
       sodipodi:nodetypes="ccscccccc" />
    <ellipse
       style="opacity:1;fill:#2d0901;fill-opacity:1;stroke:none;stroke-width:2.33345532;stroke-miterlimit:4;stroke-dasharray:none;stroke-opacity:1"
       id="path1689"
       cx="242.14914"
       cy="54.510025"
       rx="9.7355347"
       ry="10.66014"
       transform="rotate(3.7286261)" />
    <path
       style="fill:#2d0901;fill-opacity:1;stroke:#000000;stroke-width:0.21755385px;stroke-linecap:butt;stroke-linejoin:miter;stroke-opacity:1"
       d="m 229.70259,54.618188 -1.87521,5.11924 10.08187,8.51921 5.03507,-13.39212 z"
       id="path1809"
       inkscape:connector-curvature="0" />
    <path
       sodipodi:nodetypes="csscscc"
       inkscape:connector-curvature="0"
       id="path992"
       d="m 221.32451,67.072808 c 0,0 -16.6518,-7.15461 -29.65332,-2.22148 -13.00152,4.93312 -20.31479,0.41022 -29.42825,-5.67508 -9.11345,-6.08531 -22.46497,-5.51031 -22.46497,-5.51031 0.0483,0.0395 13.61336,0.39964 14.32527,16.1725 1.35494,30.01966 62.8436,11.66396 62.79248,11.68582 z"
       style="fill:#542200;fill-opacity:1;stroke:#000000;stroke-width:0.30204695px;stroke-linecap:butt;stroke-linejoin:miter;stroke-opacity:1" />
    <path
       style="fill:#2d0901;fill-opacity:1;stroke:none;stroke-width:0.22582082px;stroke-linecap:butt;stroke-linejoin:miter;stroke-opacity:1"
       d="m 208.85075,74.559468 c 0,0 -9.09964,-6.6835 -16.5093,-1.36592 -7.40965,5.31758 -11.36611,0.99941 -16.28345,-4.83148 -4.91734,-5.83089 -12.39636,-4.86818 -12.39636,-4.86818 0.0259,0.0381 7.59713,0.007 7.53806,15.78304 -0.11241,30.027812 34.78628,9.86174 34.75707,9.8851 z"
       id="path1002"
       inkscape:connector-curvature="0"
       sodipodi:nodetypes="csscscc" />
    <path
       style="fill:#2d0901;fill-opacity:1;stroke:#000000;stroke-width:0.21755385px;stroke-linecap:butt;stroke-linejoin:miter;stroke-opacity:1"
       d="m 218.45637,64.501868 c 0,0 -11.42594,-5.32294 -20.39262,-1.547 -8.96669,3.77596 -13.97886,0.39711 -20.22285,-4.1521 -6.244,-4.5492 -15.43266,-4.05794 -15.43266,-4.05794 0.0331,0.0296 9.36461,0.24254 9.78627,12.13288 0.80252,22.63024 43.18758,8.52359 43.15231,8.54029 z"
       id="path990"
       inkscape:connector-curvature="0"
       sodipodi:nodetypes="csscscc" />
    <path
       style="fill:#662c00;fill-opacity:1;stroke:none;stroke-width:0.21755385px;stroke-linecap:butt;stroke-linejoin:miter;stroke-opacity:1"
       d="m 164.72984,54.769798 c -1.42438,-0.0728 -2.32161,-0.0248 -2.32161,-0.0248 0.0331,0.0296 9.36483,0.2422 9.78648,12.13257 0.80253,22.63024 43.18736,8.5239 43.1521,8.5406 l 0.86081,-3.02253 c -8.08735,1.76475 -40.1847,7.7888 -41.15324,-7.70561 -0.58262,-9.3206 -9.85774,-9.61584 -9.89105,-9.63943 0,0 1.28775,-0.0365 3.22762,0.11161 -1.39516,-0.22978 -2.65885,-0.34106 -3.66111,-0.39234 z"
       id="path994"
       inkscape:connector-curvature="0" />
    <g
       id="g945"
       transform="matrix(0.82225081,0,0,0.82225081,110.11689,-123.15207)">
      <path
         inkscape:connector-curvature="0"
         id="path1811"
         d="m 119.1928,226.71174 c -7.39064,-0.45731 -15.20489,5.55622 -15.24129,13.24771 0.31485,2.78416 0.70631,5.91122 2.9131,7.89605 3.91976,3.96641 9.39735,5.46164 14.3172,7.77389 4.58455,2.00245 9.16911,4.0049 13.75366,6.00735 3.38604,-4.4344 7.16176,-8.72501 9.46028,-13.85017 0.13353,-2.86611 -2.56352,-4.85321 -4.08921,-6.98845 -3.65519,-4.03849 -7.53771,-7.93396 -11.74164,-11.38209 -2.82051,-1.67738 -6.0645,-2.76724 -9.3721,-2.70429 z"
         style="opacity:1;fill:#2d414b;fill-opacity:1;stroke:none;stroke-width:1.73000002;stroke-miterlimit:4;stroke-dasharray:none;stroke-opacity:1" />
      <path
         sodipodi:nodetypes="cccccc"
         inkscape:connector-curvature="0"
         id="path1820"
         d="m 131.48404,254.71313 c -1.37381,-4.00135 -3.79186,-4.86995 -5.84652,-6.82874 -6.00272,2.83829 -11.08073,7.69414 -15.71545,13.51716 l 4.25627,5.98684 18.66209,-4.77076 z"
         style="fill:#3d0d00;fill-opacity:1;stroke:none;stroke-width:0.26458332px;stroke-linecap:butt;stroke-linejoin:miter;stroke-opacity:1" />
      <path
         inkscape:connector-curvature="0"
         id="path1818"
         d="m 135.86155,244.70326 c 0,0 9.39271,-3.175 11.24479,2.77812 1.85208,5.95313 -3.57188,11.37709 -3.57188,11.37709 0,0 -5.29166,3.96875 -9.78958,3.83645 -4.49792,-0.13229 -2.38125,-8.46666 -2.38125,-8.46666 0,0 11.50938,-5.02709 8.86354,-7.14375 -2.64583,-2.11667 -4.36562,-2.38125 -4.36562,-2.38125 z"
         style="fill:#662c00;fill-opacity:1;stroke:none;stroke-width:0.26458332px;stroke-linecap:butt;stroke-linejoin:miter;stroke-opacity:1" />
      <path
         sodipodi:nodetypes="cccccccc"
         inkscape:connector-curvature="0"
         id="path1822"
         d="m 110.56847,260.67321 c -3.03239,-1.20995 -6.53047,4.40029 -10.27787,13.66157 0.0587,0.93083 0.6363,1.37006 1.9481,1.11372 l 4.0977,-3.56388 c 5.12523,-3.06975 9.62745,-4.30323 14.24124,-5.86558 -0.44561,-1.02029 -0.93358,-2.05228 -2.08245,-3.26691 l -4.56794,1.11372 c -2.9642,-1.06422 -2.31116,-2.12842 -3.35878,-3.19264 z"
         style="fill:#2d414b;fill-opacity:1;stroke:none;stroke-width:0.28249282px;stroke-linecap:butt;stroke-linejoin:miter;stroke-opacity:1" />
      <path
         sodipodi:nodetypes="ccccc"
         inkscape:connector-curvature="0"
         id="path938"
         d="m 143.27558,249.0721 8.20208,1.05834 c -2.90159,8.63855 -6.37261,9.97647 -14.2875,13.22916 l 0.1323,-5.68854 c 2.15294,-2.02347 4.46929,-3.22992 5.95312,-8.59896 z"
         style="fill:#8e5229;fill-opacity:1;stroke:none;stroke-width:0.26458332px;stroke-linecap:butt;stroke-linejoin:miter;stroke-opacity:1" />
    </g>
    <g
       id="g1025"
       transform="matrix(0.63175282,-0.21306717,0.21306717,0.63175282,17.903398,-31.816128)">
      <g
         transform="matrix(0.16748697,0.75971083,0.75971083,-0.16748697,55.698523,103.12382)"
         id="g1807">
        <path
           sodipodi:nodetypes="ccccc"
           inkscape:connector-curvature="0"
           id="path1785"
           d="m 280.87674,220.10294 19.84748,20.01508 -7.12585,6.36009 c -17.91526,-3.31652 -28.22855,-12.90754 -39.43214,-21.76372 z"
           style="fill:#2d414b;fill-opacity:1;stroke:none;stroke-width:0.48837093px;stroke-linecap:butt;stroke-linejoin:miter;stroke-opacity:1" />
        <path
           sodipodi:nodetypes="ccccc"
           inkscape:connector-curvature="0"
           id="path1787"
           d="m 277.12816,241.94502 -16.96415,-11.21648 19.18863,-13.19497 9.70906,8.56108 z"
           style="fill:#2e0901;fill-opacity:1;stroke:none;stroke-width:0.48837093px;stroke-linecap:butt;stroke-linejoin:miter;stroke-opacity:1" />
        <path
           inkscape:connector-curvature="0"
           id="path1791"
           d="m 300.51876,238.39409 -1.9647,1.89561 -14.09332,-13.44334 3.81134,-2.37224 z"
           style="fill:#652a00;fill-opacity:1;stroke:#652a00;stroke-width:0.48837093px;stroke-linecap:butt;stroke-linejoin:miter;stroke-opacity:1" />
        <path
           style="fill:#8e5229;fill-opacity:1;stroke:none;stroke-width:0.34333226px;stroke-linecap:butt;stroke-linejoin:miter;stroke-opacity:1"
           d="m 298.55779,234.72849 -1.38122,1.33266 -9.9078,-9.45089 2.67942,-1.66773 z"
           id="path1793"
           inkscape:connector-curvature="0" />
        <path
           sodipodi:nodetypes="ccccc"
           inkscape:connector-curvature="0"
           id="path1795"
           d="m 297.79467,232.78815 -1.38626,-1.42893 -13.24812,13.08353 2.99441,0.83342 z"
           style="fill:#2d0901;fill-opacity:1;stroke:none;stroke-width:0.51415431px;stroke-linecap:butt;stroke-linejoin:miter;stroke-opacity:1" />
        <path
           sodipodi:nodetypes="ccccc"
           style="fill:#2d0901;fill-opacity:1;stroke:none;stroke-width:0.57224703px;stroke-linecap:butt;stroke-linejoin:miter;stroke-opacity:1"
           d="m 295.57032,229.77448 -1.56332,-1.54869 -14.04567,14.99824 1.54594,0.75845 z"
           id="path1797"
           inkscape:connector-curvature="0" />
      </g>
      <path
         sodipodi:nodetypes="ccccccccc"
         inkscape:connector-curvature="0"
         id="path1678"
         d="m 261.1366,246.1019 c -2.94475,3e-5 -5.33194,2.38722 -5.33197,5.33197 0.001,0.1541 0.009,0.30806 0.0238,0.46147 -2.51918,10.76158 5.69969,23.11164 10.64019,30.40809 l 12.72169,-7.01572 -1.49655,-3.18068 4.11603,1.02939 2.99368,-6.45451 c -11.5405,-1.16845 -17.99638,-22.39894 -23.66683,-20.58001 z"
         style="opacity:1;fill:#541001;fill-opacity:1;stroke:none;stroke-width:1.73000002;stroke-miterlimit:4;stroke-dasharray:none;stroke-opacity:1" />
    </g>
    <g
       id="g1763"
       transform="matrix(0.82225081,0,0,0.82225081,22.310579,-97.750274)">
      <path
         sodipodi:nodetypes="cccc"
         inkscape:connector-curvature="0"
         id="path1616"
         d="m 280.61531,184.09867 c -0.20061,-1.26035 -1.51653,-3.51156 -3.46115,-5.7062 l -0.95882,1.56686 c 0,0 2.78294,4.2095 4.41997,4.13934 z"
         style="fill:#3d0d00;fill-opacity:1;stroke:none;stroke-width:0.26458332px;stroke-linecap:butt;stroke-linejoin:miter;stroke-opacity:1" />
      <path
         style="fill:#ffffff;fill-opacity:1;stroke:none;stroke-width:0.26458332px;stroke-linecap:butt;stroke-linejoin:miter;stroke-opacity:1"
         d="m 280.61531,185.15701 c -0.20061,-1.26035 -1.51653,-3.51156 -3.46115,-5.7062 l -0.95882,1.56686 c 0,0 2.78294,4.2095 4.41997,4.13934 z"
         id="path1657"
         inkscape:connector-curvature="0"
         sodipodi:nodetypes="cccc" />
      <path
         style="fill:#3d0d00;fill-opacity:1;stroke:none;stroke-width:0.24490525px;stroke-linecap:butt;stroke-linejoin:miter;stroke-opacity:1"
         d="m 280.44994,183.97776 c -0.1961,-1.10465 -1.48247,-3.07774 -3.38345,-5.00125 l -0.93729,1.37329 c 0,0 2.72047,3.68945 4.32074,3.62796 z"
         id="path1674"
         inkscape:connector-curvature="0"
         sodipodi:nodetypes="cccc" />
      <path
         inkscape:connector-curvature="0"
         id="path1495"
         d="m 271.37291,174.09128 c 3.32528,3.93014 6.5389,7.96037 10.08943,11.69304 1.74545,0.36747 2.42949,2.38628 2.83341,3.8977 0.0575,2.82084 -2.06308,5.01146 -3.64492,7.13926 -1.75225,2.37414 -4.71328,3.52307 -7.61307,3.41038 -4.56944,-0.13851 -8.93131,-1.91498 -12.89017,-4.09064 -1.11362,-4.23177 -2.22725,-8.46354 -3.34087,-12.69531 1.35862,-2.8286 2.71724,-5.6572 4.07586,-8.4858 3.53016,0.0332 6.99886,-0.41605 10.49033,-0.86863 z"
         style="fill:#ffcfc5;fill-opacity:1;stroke:none;stroke-width:0.26458332px;stroke-linecap:butt;stroke-linejoin:miter;stroke-opacity:1" />
      <path
         sodipodi:nodetypes="ccccccc"
         inkscape:connector-curvature="0"
         id="path1499"
         d="m 259.98055,192.46606 c -1.16325,-0.49833 -2.3252,-1.07316 -3.57921,-1.28906 -0.5245,0.0838 -0.63086,0.69805 -0.9087,1.06033 -0.56328,0.95572 -0.93549,2.2279 -0.35143,3.25913 0.72758,1.34696 1.42057,3.55966 4.31522,2.89714 0.54739,-0.0966 0.6362,-0.75467 0.79338,-1.18757 0.31319,-0.94967 0.68706,-1.87781 1.06706,-2.80229"
         style="fill:#ffcfc5;fill-opacity:1;stroke:none;stroke-width:0.26458332px;stroke-linecap:butt;stroke-linejoin:miter;stroke-opacity:1" />
      <path
         inkscape:connector-curvature="0"
         id="path1412"
         d="m 278.70581,182.7729 c 0,0 0.56696,3.87426 2.92932,3.02381 2.36235,-0.85044 1.55915,-2.59858 -0.23624,-2.12611 -1.79539,0.47247 -2.69308,-0.8977 -2.69308,-0.8977 z"
         style="fill:#ffada4;fill-opacity:1;stroke:none;stroke-width:0.26458332px;stroke-linecap:butt;stroke-linejoin:miter;stroke-opacity:1" />
      <ellipse
         transform="rotate(-13.240521)"
         ry="1.2695302"
         rx="2.5390604"
         cy="247.45215"
         cx="222.02742"
         id="path1414"
         style="opacity:1;fill:#ffada4;fill-opacity:1;stroke:none;stroke-width:1.99212122;stroke-miterlimit:4;stroke-dasharray:none;stroke-opacity:1" />
      <path
         sodipodi:nodetypes="ccc"
         inkscape:connector-curvature="0"
         id="path1434"
         d="m 275.61269,184.93833 c 0,0 0.21655,-1.94356 -0.9163,-1.75039 -1.51765,0.35142 0.48343,2.30161 0.9163,1.75039 z"
         style="fill:#0ca8b9;fill-opacity:1;stroke:none;stroke-width:0.26458332px;stroke-linecap:butt;stroke-linejoin:miter;stroke-opacity:1" />
      <g
         transform="matrix(0.82509519,0,0,1,47.891782,0)"
         id="g1451">
        <path
           style="fill:#3d3d3d;fill-opacity:1;stroke:none;stroke-width:0.26458332px;stroke-linecap:butt;stroke-linejoin:miter;stroke-opacity:1"
           d="m 271.67141,171.00152 c -2.05965,-1.74009 -4.38869,-0.27301 -6.58698,0.10247 -2.61549,0.66129 -4.34923,-2.51254 -6.9033,-1.6314 -2.21019,1.53659 -4.32757,3.88017 -7.42178,2.96347 -2.72005,-0.83725 -5.95481,-0.90553 -8.03848,1.37135 -0.93111,0.85717 -4.13813,3.74559 -1.61405,1.47124 2.22851,-2.20179 5.59476,-2.87287 8.43801,-1.53325 2.69701,0.83231 5.79267,0.85165 8.24143,-0.70158 2.56244,-1.65326 5.4959,0.0194 8.19441,0.34089 5.98127,5.97961 10.59149,-0.71683 5.69074,-2.38319 z"
           id="path1436"
           inkscape:connector-curvature="0"
           sodipodi:nodetypes="cccccccccc" />
        <path
           style="fill:#00a7b9;fill-opacity:1;stroke:none;stroke-width:0.26458332px;stroke-linecap:butt;stroke-linejoin:miter;stroke-opacity:1"
           d="m 260.53636,169.65586 c 1.43324,0.82266 1.29583,0.55156 0,0 z m 9.9503,0.68574 c 1.85784,0.40905 3.20419,2.92506 1.41542,4.27885 -0.9838,1.32015 -5.42732,0.0113 -2.24049,1.0871 2.13256,0.93686 5.45096,-1.4864 3.62635,-3.65747 -0.75683,-0.78693 -1.78973,-1.32094 -2.80128,-1.70848 z m -11.1864,1.48622 c -2.42661,0.0714 -4.27369,2.24464 -6.79829,1.98979 -2.64578,0.3316 -5.00145,-1.54149 -7.59399,-1.21186 -1.68356,0.0923 -4.00836,3.27162 -4.18043,3.09625 2.3124,-2.59417 6.29909,-3.3453 9.40366,-1.79319 2.79124,0.84546 5.97362,0.46165 8.40197,-1.18622 2.0008,-1.11701 5.67192,0.58784 6.65396,0.43835 -1.85028,-0.78835 -3.90454,-1.1051 -5.88688,-1.33315 z"
           id="path1441"
           inkscape:connector-curvature="0" />
      </g>
      <g
         id="g1457"
         transform="matrix(1.1100523,0,0,1,-33.56301,1.5518533)">
        <path
           sodipodi:nodetypes="cccccccccc"
           inkscape:connector-curvature="0"
           id="path1453"
           d="m 271.67141,171.00152 c -2.05965,-1.74009 -4.38869,-0.27301 -6.58698,0.10247 -2.61549,0.66129 -4.34923,-2.51254 -6.9033,-1.6314 -2.21019,1.53659 -4.32757,3.88017 -7.42178,2.96347 -2.72005,-0.83725 -5.95481,-0.90553 -8.03848,1.37135 -0.93111,0.85717 -4.13813,3.74559 -1.61405,1.47124 2.22851,-2.20179 5.59476,-2.87287 8.43801,-1.53325 2.69701,0.83231 5.79267,0.85165 8.24143,-0.70158 2.56244,-1.65326 5.4959,0.0194 8.19441,0.34089 5.98127,5.97961 10.59149,-0.71683 5.69074,-2.38319 z"
           style="fill:#3d3d3d;fill-opacity:1;stroke:none;stroke-width:0.26458332px;stroke-linecap:butt;stroke-linejoin:miter;stroke-opacity:1" />
        <path
           inkscape:connector-curvature="0"
           id="path1455"
           d="m 260.53636,169.65586 c 1.43324,0.82266 1.29583,0.55156 0,0 z m 9.9503,0.68574 c 1.85784,0.40905 3.20419,2.92506 1.41542,4.27885 -0.9838,1.32015 -5.42732,0.0113 -2.24049,1.0871 2.13256,0.93686 5.45096,-1.4864 3.62635,-3.65747 -0.75683,-0.78693 -1.78973,-1.32094 -2.80128,-1.70848 z m -11.1864,1.48622 c -2.42661,0.0714 -4.27369,2.24464 -6.79829,1.98979 -2.64578,0.3316 -5.00145,-1.54149 -7.59399,-1.21186 -1.68356,0.0923 -4.00836,3.27162 -4.18043,3.09625 2.3124,-2.59417 6.29909,-3.3453 9.40366,-1.79319 2.79124,0.84546 5.97362,0.46165 8.40197,-1.18622 2.0008,-1.11701 5.67192,0.58784 6.65396,0.43835 -1.85028,-0.78835 -3.90454,-1.1051 -5.88688,-1.33315 z"
           style="fill:#00a7b9;fill-opacity:1;stroke:none;stroke-width:0.26458332px;stroke-linecap:butt;stroke-linejoin:miter;stroke-opacity:1" />
      </g>
      <g
         id="g1464"
         transform="matrix(0.82509519,0,0,1,35.330801,11.72236)">
        <path
           sodipodi:nodetypes="cccccccccc"
           inkscape:connector-curvature="0"
           id="path1459"
           d="m 271.67141,171.00152 c -2.05965,-1.74009 -4.38869,-0.27301 -6.58698,0.10247 -2.61549,0.66129 -4.34923,-2.51254 -6.9033,-1.6314 -2.21019,1.53659 -4.32757,3.88017 -7.42178,2.96347 -2.72005,-0.83725 -5.95481,-0.90553 -8.03848,1.37135 -0.93111,0.85717 -4.13813,3.74559 -1.61405,1.47124 2.22851,-2.20179 5.59476,-2.87287 8.43801,-1.53325 2.69701,0.83231 5.79267,0.85165 8.24143,-0.70158 2.56244,-1.65326 5.4959,0.0194 8.19441,0.34089 5.98127,5.97961 10.59149,-0.71683 5.69074,-2.38319 z"
           style="fill:#3d3d3d;fill-opacity:1;stroke:none;stroke-width:0.26458332px;stroke-linecap:butt;stroke-linejoin:miter;stroke-opacity:1" />
        <path
           inkscape:connector-curvature="0"
           id="path1462"
           d="m 260.53636,169.65586 c 1.43324,0.82266 1.29583,0.55156 0,0 z m 9.9503,0.68574 c 1.85784,0.40905 3.20419,2.92506 1.41542,4.27885 -0.9838,1.32015 -5.42732,0.0113 -2.24049,1.0871 2.13256,0.93686 5.45096,-1.4864 3.62635,-3.65747 -0.75683,-0.78693 -1.78973,-1.32094 -2.80128,-1.70848 z m -11.1864,1.48622 c -2.42661,0.0714 -4.27369,2.24464 -6.79829,1.98979 -2.64578,0.3316 -5.00145,-1.54149 -7.59399,-1.21186 -1.68356,0.0923 -4.00836,3.27162 -4.18043,3.09625 2.3124,-2.59417 6.29909,-3.3453 9.40366,-1.79319 2.79124,0.84546 5.97362,0.46165 8.40197,-1.18622 2.0008,-1.11701 5.67192,0.58784 6.65396,0.43835 -1.85028,-0.78835 -3.90454,-1.1051 -5.88688,-1.33315 z"
           style="fill:#00a7b9;fill-opacity:1;stroke:none;stroke-width:0.26458332px;stroke-linecap:butt;stroke-linejoin:miter;stroke-opacity:1" />
      </g>
      <g
         transform="matrix(0.70145521,-0.32267012,-0.19197353,-0.9568203,101.45976,442.24498)"
         id="g1470">
        <path
           style="fill:#3d3d3d;fill-opacity:1;stroke:none;stroke-width:0.26458332px;stroke-linecap:butt;stroke-linejoin:miter;stroke-opacity:1"
           d="m 271.67141,171.00152 c -2.05965,-1.74009 -4.38869,-0.27301 -6.58698,0.10247 -2.61549,0.66129 -4.34923,-2.51254 -6.9033,-1.6314 -2.21019,1.53659 -4.32757,3.88017 -7.42178,2.96347 -2.72005,-0.83725 -5.95481,-0.90553 -8.03848,1.37135 -0.93111,0.85717 -4.13813,3.74559 -1.61405,1.47124 2.22851,-2.20179 5.59476,-2.87287 8.43801,-1.53325 2.69701,0.83231 5.79267,0.85165 8.24143,-0.70158 2.56244,-1.65326 5.4959,0.0194 8.19441,0.34089 5.98127,5.97961 10.59149,-0.71683 5.69074,-2.38319 z"
           id="path1466"
           inkscape:connector-curvature="0"
           sodipodi:nodetypes="cccccccccc" />
        <path
           style="fill:#00a7b9;fill-opacity:1;stroke:none;stroke-width:0.26458332px;stroke-linecap:butt;stroke-linejoin:miter;stroke-opacity:1"
           d="m 260.53636,169.65586 c 1.43324,0.82266 1.29583,0.55156 0,0 z m 9.9503,0.68574 c 1.85784,0.40905 3.20419,2.92506 1.41542,4.27885 -0.9838,1.32015 -5.42732,0.0113 -2.24049,1.0871 2.13256,0.93686 5.45096,-1.4864 3.62635,-3.65747 -0.75683,-0.78693 -1.78973,-1.32094 -2.80128,-1.70848 z m -11.1864,1.48622 c -2.42661,0.0714 -4.27369,2.24464 -6.79829,1.98979 -2.64578,0.3316 -5.00145,-1.54149 -7.59399,-1.21186 -1.68356,0.0923 -4.00836,3.27162 -4.18043,3.09625 2.3124,-2.59417 6.29909,-3.3453 9.40366,-1.79319 2.79124,0.84546 5.97362,0.46165 8.40197,-1.18622 2.0008,-1.11701 5.67192,0.58784 6.65396,0.43835 -1.85028,-0.78835 -3.90454,-1.1051 -5.88688,-1.33315 z"
           id="path1468"
           inkscape:connector-curvature="0" />
      </g>
      <g
         id="g1487"
         transform="matrix(0.70145521,-0.32267012,-0.19197353,-0.9568203,107.04576,431.15054)">
        <path
           sodipodi:nodetypes="cccccccccc"
           inkscape:connector-curvature="0"
           id="path1483"
           d="m 271.67141,171.00152 c -2.05965,-1.74009 -4.38869,-0.27301 -6.58698,0.10247 -2.61549,0.66129 -4.34923,-2.51254 -6.9033,-1.6314 -2.21019,1.53659 -4.32757,3.88017 -7.42178,2.96347 -2.72005,-0.83725 -5.95481,-0.90553 -8.03848,1.37135 -0.93111,0.85717 -4.13813,3.74559 -1.61405,1.47124 2.22851,-2.20179 5.59476,-2.87287 8.43801,-1.53325 2.69701,0.83231 5.79267,0.85165 8.24143,-0.70158 2.56244,-1.65326 5.4959,0.0194 8.19441,0.34089 5.98127,5.97961 10.59149,-0.71683 5.69074,-2.38319 z"
           style="fill:#3d3d3d;fill-opacity:1;stroke:none;stroke-width:0.26458332px;stroke-linecap:butt;stroke-linejoin:miter;stroke-opacity:1" />
        <path
           inkscape:connector-curvature="0"
           id="path1485"
           d="m 260.53636,169.65586 c 1.43324,0.82266 1.29583,0.55156 0,0 z m 9.9503,0.68574 c 1.85784,0.40905 3.20419,2.92506 1.41542,4.27885 -0.9838,1.32015 -5.42732,0.0113 -2.24049,1.0871 2.13256,0.93686 5.45096,-1.4864 3.62635,-3.65747 -0.75683,-0.78693 -1.78973,-1.32094 -2.80128,-1.70848 z m -11.1864,1.48622 c -2.42661,0.0714 -4.27369,2.24464 -6.79829,1.98979 -2.64578,0.3316 -5.00145,-1.54149 -7.59399,-1.21186 -1.68356,0.0923 -4.00836,3.27162 -4.18043,3.09625 2.3124,-2.59417 6.29909,-3.3453 9.40366,-1.79319 2.79124,0.84546 5.97362,0.46165 8.40197,-1.18622 2.0008,-1.11701 5.67192,0.58784 6.65396,0.43835 -1.85028,-0.78835 -3.90454,-1.1051 -5.88688,-1.33315 z"
           style="fill:#00a7b9;fill-opacity:1;stroke:none;stroke-width:0.26458332px;stroke-linecap:butt;stroke-linejoin:miter;stroke-opacity:1" />
      </g>
      <g
         transform="matrix(0.70145521,-0.32267012,-0.19197353,-0.9568203,104.06547,434.71632)"
         id="g1494">
        <path
           style="fill:#3d3d3d;fill-opacity:1;stroke:none;stroke-width:0.26458332px;stroke-linecap:butt;stroke-linejoin:miter;stroke-opacity:1"
           d="m 271.67141,171.00152 c -2.05965,-1.74009 -4.38869,-0.27301 -6.58698,0.10247 -2.61549,0.66129 -4.34923,-2.51254 -6.9033,-1.6314 -2.21019,1.53659 -4.32757,3.88017 -7.42178,2.96347 -2.72005,-0.83725 -5.95481,-0.90553 -8.03848,1.37135 -0.93111,0.85717 -4.13813,3.74559 -1.61405,1.47124 2.22851,-2.20179 5.59476,-2.87287 8.43801,-1.53325 2.69701,0.83231 5.79267,0.85165 8.24143,-0.70158 2.56244,-1.65326 5.4959,0.0194 8.19441,0.34089 5.98127,5.97961 10.59149,-0.71683 5.69074,-2.38319 z"
           id="path1490"
           inkscape:connector-curvature="0"
           sodipodi:nodetypes="cccccccccc" />
        <path
           style="fill:#00a7b9;fill-opacity:1;stroke:none;stroke-width:0.26458332px;stroke-linecap:butt;stroke-linejoin:miter;stroke-opacity:1"
           d="m 260.53636,169.65586 c 1.43324,0.82266 1.29583,0.55156 0,0 z m 9.9503,0.68574 c 1.85784,0.40905 3.20419,2.92506 1.41542,4.27885 -0.9838,1.32015 -5.42732,0.0113 -2.24049,1.0871 2.13256,0.93686 5.45096,-1.4864 3.62635,-3.65747 -0.75683,-0.78693 -1.78973,-1.32094 -2.80128,-1.70848 z m -11.1864,1.48622 c -2.42661,0.0714 -4.27369,2.24464 -6.79829,1.98979 -2.64578,0.3316 -5.00145,-1.54149 -7.59399,-1.21186 -1.68356,0.0923 -4.00836,3.27162 -4.18043,3.09625 2.3124,-2.59417 6.29909,-3.3453 9.40366,-1.79319 2.79124,0.84546 5.97362,0.46165 8.40197,-1.18622 2.0008,-1.11701 5.67192,0.58784 6.65396,0.43835 -1.85028,-0.78835 -3.90454,-1.1051 -5.88688,-1.33315 z"
           id="path1492"
           inkscape:connector-curvature="0" />
      </g>
      <g
         transform="matrix(1.1100523,0,0,1,-43.211968,3.6328433)"
         id="g1506">
        <g
           id="g1563"
           transform="matrix(1,0,0,-0.7874982,-1.0601309,324.70342)">
          <path
             style="fill:#3d3d3d;fill-opacity:1;stroke:none;stroke-width:0.18499862px;stroke-linecap:butt;stroke-linejoin:miter;stroke-opacity:1"
             d="m 271.00679,173.24551 c -1.00695,-1.74009 -2.14559,-0.27301 -3.22032,0.10247 -1.2787,0.66129 -2.1263,-2.51254 -3.37496,-1.6314 -1.08055,1.53659 -2.11571,3.88017 -3.62844,2.96347 -1.32982,-0.83725 -2.91125,-0.90553 -3.92995,1.37135 -0.45521,0.85717 -2.02309,3.74559 -0.78909,1.47124 1.0895,-2.20179 2.73523,-2.87287 4.12527,-1.53325 1.31854,0.83231 2.83198,0.85165 4.02915,-0.70158 1.25276,-1.65326 2.68691,0.0194 4.00618,0.34089 2.92419,5.97961 5.17809,-0.71683 2.78216,-2.38319 z"
             id="path1545"
             inkscape:connector-curvature="0"
             sodipodi:nodetypes="cccccccccc" />
          <path
             sodipodi:nodetypes="cccccccccc"
             inkscape:connector-curvature="0"
             id="path1547"
             d="m 269.09999,174.83302 c -1.00695,-1.74009 -2.14559,-0.27301 -3.22032,0.10247 -1.2787,0.66129 -2.1263,-2.51254 -3.37496,-1.6314 -1.08055,1.53659 -2.11571,3.88017 -3.62844,2.96347 -1.32982,-0.83725 -2.91125,-0.90553 -3.92995,1.37135 -0.45521,0.85717 -2.02309,3.74559 -0.78909,1.47124 1.0895,-2.20179 2.73523,-2.87287 4.12527,-1.53325 1.31854,0.83231 2.83198,0.85165 4.02915,-0.70158 1.25276,-1.65326 2.68691,0.0194 4.00618,0.34089 2.92419,5.97961 5.17809,-0.71683 2.78216,-2.38319 z"
             style="fill:#3d3d3d;fill-opacity:1;stroke:none;stroke-width:0.18499862px;stroke-linecap:butt;stroke-linejoin:miter;stroke-opacity:1" />
          <path
             style="fill:#3d3d3d;fill-opacity:1;stroke:none;stroke-width:0.18499862px;stroke-linecap:butt;stroke-linejoin:miter;stroke-opacity:1"
             d="m 267.19319,175.36219 c -1.00695,-1.74009 -2.14559,-0.27301 -3.22032,0.10247 -1.2787,0.66129 -2.1263,-2.51254 -3.37496,-1.6314 -1.08055,1.53659 -2.11571,3.88017 -3.62844,2.96347 -1.32982,-0.83725 -2.91125,-0.90553 -3.92995,1.37135 -0.45521,0.85717 -2.02309,3.74559 -0.78909,1.47124 1.0895,-2.20179 2.73523,-2.87287 4.12527,-1.53325 1.31854,0.83231 2.83198,0.85165 4.02915,-0.70158 1.25276,-1.65326 2.68691,0.0194 4.00618,0.34089 2.92419,5.97961 5.17809,-0.71683 2.78216,-2.38319 z"
             id="path1549"
             inkscape:connector-curvature="0"
             sodipodi:nodetypes="cccccccccc" />
          <path
             sodipodi:nodetypes="cccccccccc"
             inkscape:connector-curvature="0"
             id="path1551"
             d="m 265.28639,175.36219 c -1.00695,-1.74009 -2.14559,-0.27301 -3.22032,0.10247 -1.2787,0.66129 -2.1263,-2.51254 -3.37496,-1.6314 -1.08055,1.53659 -2.11571,3.88017 -3.62844,2.96347 -1.32982,-0.83725 -2.91125,-0.90553 -3.92995,1.37135 -0.45521,0.85717 -2.02309,3.74559 -0.78909,1.47124 1.0895,-2.20179 2.73523,-2.87287 4.12527,-1.53325 1.31854,0.83231 2.83198,0.85165 4.02915,-0.70158 1.25276,-1.65326 2.68691,0.0194 4.00618,0.34089 2.92419,5.97961 5.17809,-0.71683 2.78216,-2.38319 z"
             style="fill:#3d3d3d;fill-opacity:1;stroke:none;stroke-width:0.18499862px;stroke-linecap:butt;stroke-linejoin:miter;stroke-opacity:1" />
          <path
             style="fill:#3d3d3d;fill-opacity:1;stroke:none;stroke-width:0.18499862px;stroke-linecap:butt;stroke-linejoin:miter;stroke-opacity:1"
             d="m 268.14659,171.658 c -1.00695,-1.74009 -2.14559,-0.27301 -3.22032,0.10247 -1.2787,0.66129 -2.1263,-2.51254 -3.37496,-1.6314 -1.08055,1.53659 -2.11571,3.88017 -3.62844,2.96347 -1.32982,-0.83725 -2.91125,-0.90553 -3.92995,1.37135 -0.45521,0.85717 -2.02309,3.74559 -0.78909,1.47124 1.0895,-2.20179 2.73523,-2.87287 4.12527,-1.53325 1.31854,0.83231 2.83198,0.85165 4.02915,-0.70158 1.25276,-1.65326 2.68691,0.0194 4.00618,0.34089 2.92419,5.97961 5.17809,-0.71683 2.78216,-2.38319 z"
             id="path1553"
             inkscape:connector-curvature="0"
             sodipodi:nodetypes="cccccccccc" />
          <path
             sodipodi:nodetypes="cccccccccc"
             inkscape:connector-curvature="0"
             id="path1555"
             d="m 268.14659,180.12472 c -1.00695,-1.74009 -2.14559,-0.27301 -3.22032,0.10247 -1.2787,0.66129 -2.1263,-2.51254 -3.37496,-1.6314 -1.08055,1.53659 -2.11571,3.88017 -3.62844,2.96347 -1.32982,-0.83725 -2.91125,-0.90553 -3.92995,1.37135 -0.45521,0.85717 -2.02309,3.74559 -0.78909,1.47124 1.0895,-2.20179 2.73523,-2.87287 4.12527,-1.53325 1.31854,0.83231 2.83198,0.85165 4.02915,-0.70158 1.25276,-1.65326 2.68691,0.0194 4.00618,0.34089 2.92419,5.97961 5.17809,-0.71683 2.78216,-2.38319 z"
             style="fill:#3d3d3d;fill-opacity:1;stroke:none;stroke-width:0.18499862px;stroke-linecap:butt;stroke-linejoin:miter;stroke-opacity:1" />
          <path
             style="fill:#3d3d3d;fill-opacity:1;stroke:none;stroke-width:0.18499862px;stroke-linecap:butt;stroke-linejoin:miter;stroke-opacity:1"
             d="m 268.14659,181.71223 c -1.00695,-1.74009 -2.14559,-0.27301 -3.22032,0.10247 -1.2787,0.66129 -2.1263,-2.51254 -3.37496,-1.6314 -1.08055,1.53659 -2.11571,3.88017 -3.62844,2.96347 -1.32982,-0.83725 -2.91125,-0.90553 -3.92995,1.37135 -0.45521,0.85717 -2.02309,3.74559 -0.78909,1.47124 1.0895,-2.20179 2.73523,-2.87287 4.12527,-1.53325 1.31854,0.83231 2.83198,0.85165 4.02915,-0.70158 1.25276,-1.65326 2.68691,0.0194 4.00618,0.34089 2.92419,5.97961 5.17809,-0.71683 2.78216,-2.38319 z"
             id="path1557"
             inkscape:connector-curvature="0"
             sodipodi:nodetypes="cccccccccc" />
          <path
             sodipodi:nodetypes="cccccccccc"
             inkscape:connector-curvature="0"
             id="path1559"
             d="m 267.99169,184.3691 c -0.76571,-1.74009 -1.63155,-0.27301 -2.44879,0.10247 -0.97234,0.66129 -1.61687,-2.51254 -2.56637,-1.6314 -0.82167,1.53659 -1.60883,3.88017 -2.75913,2.96347 -1.01122,-0.83725 -2.21376,-0.90553 -2.9884,1.37135 -0.34615,0.85717 -1.53839,3.74559 -0.60004,1.47124 0.82848,-2.20179 2.07992,-2.87287 3.13693,-1.53325 1.00264,0.83231 2.15348,0.85165 3.06383,-0.70158 0.95262,-1.65326 2.04317,0.0194 3.04637,0.34089 2.2236,5.97961 3.9375,-0.71683 2.1156,-2.38319 z"
             style="fill:#3d3d3d;fill-opacity:1;stroke:none;stroke-width:0.16132225px;stroke-linecap:butt;stroke-linejoin:miter;stroke-opacity:1" />
          <path
             style="fill:#3d3d3d;fill-opacity:1;stroke:none;stroke-width:0.18499862px;stroke-linecap:butt;stroke-linejoin:miter;stroke-opacity:1"
             d="m 268.14659,187.5331 c -1.00695,-1.74009 -2.14559,-0.27301 -3.22032,0.10247 -1.2787,0.66129 -2.1263,-2.51254 -3.37496,-1.6314 -1.08055,1.53659 -2.11571,3.88017 -3.62844,2.96347 -1.32982,-0.83725 -2.91125,-0.90553 -3.92995,1.37135 -0.45521,0.85717 -2.02309,3.74559 -0.78909,1.47124 1.0895,-2.20179 2.73523,-2.87287 4.12527,-1.53325 1.31854,0.83231 2.83198,0.85165 4.02915,-0.70158 1.25276,-1.65326 2.68691,0.0194 4.00618,0.34089 2.92419,5.97961 5.17809,-0.71683 2.78216,-2.38319 z"
             id="path1561"
             inkscape:connector-curvature="0"
             sodipodi:nodetypes="cccccccccc" />
        </g>
        <g
           transform="matrix(1,0,0,0.7874982,1.883216,36.2735)"
           id="g1539">
          <path
             sodipodi:nodetypes="cccccccccc"
             inkscape:connector-curvature="0"
             id="path1502"
             d="m 274.82039,172.18717 c -1.00695,-1.74009 -2.14559,-0.27301 -3.22032,0.10247 -1.2787,0.66129 -2.1263,-2.51254 -3.37496,-1.6314 -1.08055,1.53659 -2.11571,3.88017 -3.62844,2.96347 -1.32982,-0.83725 -2.91125,-0.90553 -3.92995,1.37135 -0.45521,0.85717 -2.02309,3.74559 -0.78909,1.47124 1.0895,-2.20179 2.73523,-2.87287 4.12527,-1.53325 1.31854,0.83231 2.83198,0.85165 4.02915,-0.70158 1.25276,-1.65326 2.68691,0.0194 4.00618,0.34089 2.92419,5.97961 5.17809,-0.71683 2.78216,-2.38319 z"
             style="fill:#3d3d3d;fill-opacity:1;stroke:none;stroke-width:0.18499862px;stroke-linecap:butt;stroke-linejoin:miter;stroke-opacity:1" />
          <path
             style="fill:#3d3d3d;fill-opacity:1;stroke:none;stroke-width:0.18499862px;stroke-linecap:butt;stroke-linejoin:miter;stroke-opacity:1"
             d="m 271.96019,170.07049 c -1.00695,-1.74009 -2.14559,-0.27301 -3.22032,0.10247 -1.2787,0.66129 -2.1263,-2.51254 -3.37496,-1.6314 -1.08055,1.53659 -2.11571,3.88017 -3.62844,2.96347 -1.32982,-0.83725 -2.91125,-0.90553 -3.92995,1.37135 -0.45521,0.85717 -2.02309,3.74559 -0.78909,1.47124 1.0895,-2.20179 2.73523,-2.87287 4.12527,-1.53325 1.31854,0.83231 2.83198,0.85165 4.02915,-0.70158 1.25276,-1.65326 2.68691,0.0194 4.00618,0.34089 2.92419,5.97961 5.17809,-0.71683 2.78216,-2.38319 z"
             id="path1508"
             inkscape:connector-curvature="0"
             sodipodi:nodetypes="cccccccccc" />
          <path
             sodipodi:nodetypes="cccccccccc"
             inkscape:connector-curvature="0"
             id="path1510"
             d="m 271.00679,173.24551 c -1.00695,-1.74009 -2.14559,-0.27301 -3.22032,0.10247 -1.2787,0.66129 -2.1263,-2.51254 -3.37496,-1.6314 -1.08055,1.53659 -2.11571,3.88017 -3.62844,2.96347 -1.32982,-0.83725 -2.91125,-0.90553 -3.92995,1.37135 -0.45521,0.85717 -2.02309,3.74559 -0.78909,1.47124 1.0895,-2.20179 2.73523,-2.87287 4.12527,-1.53325 1.31854,0.83231 2.83198,0.85165 4.02915,-0.70158 1.25276,-1.65326 2.68691,0.0194 4.00618,0.34089 2.92419,5.97961 5.17809,-0.71683 2.78216,-2.38319 z"
             style="fill:#3d3d3d;fill-opacity:1;stroke:none;stroke-width:0.18499862px;stroke-linecap:butt;stroke-linejoin:miter;stroke-opacity:1" />
          <path
             style="fill:#3d3d3d;fill-opacity:1;stroke:none;stroke-width:0.18499862px;stroke-linecap:butt;stroke-linejoin:miter;stroke-opacity:1"
             d="m 269.09999,174.83302 c -1.00695,-1.74009 -2.14559,-0.27301 -3.22032,0.10247 -1.2787,0.66129 -2.1263,-2.51254 -3.37496,-1.6314 -1.08055,1.53659 -2.11571,3.88017 -3.62844,2.96347 -1.32982,-0.83725 -2.91125,-0.90553 -3.92995,1.37135 -0.45521,0.85717 -2.02309,3.74559 -0.78909,1.47124 1.0895,-2.20179 2.73523,-2.87287 4.12527,-1.53325 1.31854,0.83231 2.83198,0.85165 4.02915,-0.70158 1.25276,-1.65326 2.68691,0.0194 4.00618,0.34089 2.92419,5.97961 5.17809,-0.71683 2.78216,-2.38319 z"
             id="path1512"
             inkscape:connector-curvature="0"
             sodipodi:nodetypes="cccccccccc" />
          <path
             sodipodi:nodetypes="cccccccccc"
             inkscape:connector-curvature="0"
             id="path1514"
             d="m 267.19319,175.36219 c -1.00695,-1.74009 -2.14559,-0.27301 -3.22032,0.10247 -1.2787,0.66129 -2.1263,-2.51254 -3.37496,-1.6314 -1.08055,1.53659 -2.11571,3.88017 -3.62844,2.96347 -1.32982,-0.83725 -2.91125,-0.90553 -3.92995,1.37135 -0.45521,0.85717 -2.02309,3.74559 -0.78909,1.47124 1.0895,-2.20179 2.73523,-2.87287 4.12527,-1.53325 1.31854,0.83231 2.83198,0.85165 4.02915,-0.70158 1.25276,-1.65326 2.68691,0.0194 4.00618,0.34089 2.92419,5.97961 5.17809,-0.71683 2.78216,-2.38319 z"
             style="fill:#3d3d3d;fill-opacity:1;stroke:none;stroke-width:0.18499862px;stroke-linecap:butt;stroke-linejoin:miter;stroke-opacity:1" />
          <path
             style="fill:#3d3d3d;fill-opacity:1;stroke:none;stroke-width:0.18499862px;stroke-linecap:butt;stroke-linejoin:miter;stroke-opacity:1"
             d="m 265.28639,175.36219 c -1.00695,-1.74009 -2.14559,-0.27301 -3.22032,0.10247 -1.2787,0.66129 -2.1263,-2.51254 -3.37496,-1.6314 -1.08055,1.53659 -2.11571,3.88017 -3.62844,2.96347 -1.32982,-0.83725 -2.91125,-0.90553 -3.92995,1.37135 -0.45521,0.85717 -2.02309,3.74559 -0.78909,1.47124 1.0895,-2.20179 2.73523,-2.87287 4.12527,-1.53325 1.31854,0.83231 2.83198,0.85165 4.02915,-0.70158 1.25276,-1.65326 2.68691,0.0194 4.00618,0.34089 2.92419,5.97961 5.17809,-0.71683 2.78216,-2.38319 z"
             id="path1516"
             inkscape:connector-curvature="0"
             sodipodi:nodetypes="cccccccccc" />
          <path
             sodipodi:nodetypes="cccccccccc"
             inkscape:connector-curvature="0"
             id="path1518"
             d="m 268.14659,171.658 c -1.00695,-1.74009 -2.14559,-0.27301 -3.22032,0.10247 -1.2787,0.66129 -2.1263,-2.51254 -3.37496,-1.6314 -1.08055,1.53659 -2.11571,3.88017 -3.62844,2.96347 -1.32982,-0.83725 -2.91125,-0.90553 -3.92995,1.37135 -0.45521,0.85717 -2.02309,3.74559 -0.78909,1.47124 1.0895,-2.20179 2.73523,-2.87287 4.12527,-1.53325 1.31854,0.83231 2.83198,0.85165 4.02915,-0.70158 1.25276,-1.65326 2.68691,0.0194 4.00618,0.34089 2.92419,5.97961 5.17809,-0.71683 2.78216,-2.38319 z"
             style="fill:#3d3d3d;fill-opacity:1;stroke:none;stroke-width:0.18499862px;stroke-linecap:butt;stroke-linejoin:miter;stroke-opacity:1" />
          <path
             style="fill:#3d3d3d;fill-opacity:1;stroke:none;stroke-width:0.18499862px;stroke-linecap:butt;stroke-linejoin:miter;stroke-opacity:1"
             d="m 268.14659,180.12472 c -1.00695,-1.74009 -2.14559,-0.27301 -3.22032,0.10247 -1.2787,0.66129 -2.1263,-2.51254 -3.37496,-1.6314 -1.08055,1.53659 -2.11571,3.88017 -3.62844,2.96347 -1.32982,-0.83725 -2.91125,-0.90553 -3.92995,1.37135 -0.45521,0.85717 -2.02309,3.74559 -0.78909,1.47124 1.0895,-2.20179 2.73523,-2.87287 4.12527,-1.53325 1.31854,0.83231 2.83198,0.85165 4.02915,-0.70158 1.25276,-1.65326 2.68691,0.0194 4.00618,0.34089 2.92419,5.97961 5.17809,-0.71683 2.78216,-2.38319 z"
             id="path1520"
             inkscape:connector-curvature="0"
             sodipodi:nodetypes="cccccccccc" />
          <path
             sodipodi:nodetypes="cccccccccc"
             inkscape:connector-curvature="0"
             id="path1522"
             d="m 268.14659,181.71223 c -1.00695,-1.74009 -2.14559,-0.27301 -3.22032,0.10247 -1.2787,0.66129 -2.1263,-2.51254 -3.37496,-1.6314 -1.08055,1.53659 -2.11571,3.88017 -3.62844,2.96347 -1.32982,-0.83725 -2.91125,-0.90553 -3.92995,1.37135 -0.45521,0.85717 -2.02309,3.74559 -0.78909,1.47124 1.0895,-2.20179 2.73523,-2.87287 4.12527,-1.53325 1.31854,0.83231 2.83198,0.85165 4.02915,-0.70158 1.25276,-1.65326 2.68691,0.0194 4.00618,0.34089 2.92419,5.97961 5.17809,-0.71683 2.78216,-2.38319 z"
             style="fill:#3d3d3d;fill-opacity:1;stroke:none;stroke-width:0.18499862px;stroke-linecap:butt;stroke-linejoin:miter;stroke-opacity:1" />
          <path
             style="fill:#3d3d3d;fill-opacity:1;stroke:none;stroke-width:0.16132225px;stroke-linecap:butt;stroke-linejoin:miter;stroke-opacity:1"
             d="m 267.99169,184.3691 c -0.76571,-1.74009 -1.63155,-0.27301 -2.44879,0.10247 -0.97234,0.66129 -1.61687,-2.51254 -2.56637,-1.6314 -0.82167,1.53659 -1.60883,3.88017 -2.75913,2.96347 -1.01122,-0.83725 -2.21376,-0.90553 -2.9884,1.37135 -0.34615,0.85717 -1.53839,3.74559 -0.60004,1.47124 0.82848,-2.20179 2.07992,-2.87287 3.13693,-1.53325 1.00264,0.83231 2.15348,0.85165 3.06383,-0.70158 0.95262,-1.65326 2.04317,0.0194 3.04637,0.34089 2.2236,5.97961 3.9375,-0.71683 2.1156,-2.38319 z"
             id="path1524"
             inkscape:connector-curvature="0"
             sodipodi:nodetypes="cccccccccc" />
          <path
             sodipodi:nodetypes="cccccccccc"
             inkscape:connector-curvature="0"
             id="path1526"
             d="m 268.14659,187.5331 c -1.00695,-1.74009 -2.14559,-0.27301 -3.22032,0.10247 -1.2787,0.66129 -2.1263,-2.51254 -3.37496,-1.6314 -1.08055,1.53659 -2.11571,3.88017 -3.62844,2.96347 -1.32982,-0.83725 -2.91125,-0.90553 -3.92995,1.37135 -0.45521,0.85717 -2.02309,3.74559 -0.78909,1.47124 1.0895,-2.20179 2.73523,-2.87287 4.12527,-1.53325 1.31854,0.83231 2.83198,0.85165 4.02915,-0.70158 1.25276,-1.65326 2.68691,0.0194 4.00618,0.34089 2.92419,5.97961 5.17809,-0.71683 2.78216,-2.38319 z"
             style="fill:#3d3d3d;fill-opacity:1;stroke:none;stroke-width:0.18499862px;stroke-linecap:butt;stroke-linejoin:miter;stroke-opacity:1" />
        </g>
        <g
           transform="matrix(0.53057484,0,0,-0.7874982,120.30077,324.70342)"
           id="g1606">
          <path
             style="fill:#3d3d3d;fill-opacity:1;stroke:none;stroke-width:0.18499862px;stroke-linecap:butt;stroke-linejoin:miter;stroke-opacity:1"
             d="m 259.68973,173.97694 c -1.00695,-1.74009 -2.14559,-0.27301 -3.22032,0.10247 -1.2787,0.66129 -2.1263,-2.51254 -3.37496,-1.6314 -1.08055,1.53659 -2.11571,3.88017 -3.62844,2.96347 -1.32982,-0.83725 -2.91125,-0.90553 -3.92995,1.37135 -0.45521,0.85717 -2.02309,3.74559 -0.78909,1.47124 1.0895,-2.20179 2.73523,-2.87287 4.12527,-1.53325 1.31854,0.83231 2.83198,0.85165 4.02915,-0.70158 1.25276,-1.65326 2.68691,0.0194 4.00618,0.34089 2.92419,5.97961 5.17809,-0.71683 2.78216,-2.38319 z"
             id="path1586"
             inkscape:connector-curvature="0"
             sodipodi:nodetypes="cccccccccc" />
          <path
             sodipodi:nodetypes="cccccccccc"
             inkscape:connector-curvature="0"
             id="path1588"
             d="m 271.00679,173.24551 c -1.00695,-1.74009 -2.14559,-0.27301 -3.22032,0.10247 -1.2787,0.66129 -2.1263,-2.51254 -3.37496,-1.6314 -1.08055,1.53659 -2.11571,3.88017 -3.62844,2.96347 -1.32982,-0.83725 -2.91125,-0.90553 -3.92995,1.37135 -0.45521,0.85717 -2.02309,3.74559 -0.78909,1.47124 1.0895,-2.20179 2.73523,-2.87287 4.12527,-1.53325 1.31854,0.83231 2.83198,0.85165 4.02915,-0.70158 1.25276,-1.65326 2.68691,0.0194 4.00618,0.34089 2.92419,5.97961 5.17809,-0.71683 2.78216,-2.38319 z"
             style="fill:#3d3d3d;fill-opacity:1;stroke:none;stroke-width:0.18499862px;stroke-linecap:butt;stroke-linejoin:miter;stroke-opacity:1" />
          <path
             style="fill:#3d3d3d;fill-opacity:1;stroke:none;stroke-width:0.18499862px;stroke-linecap:butt;stroke-linejoin:miter;stroke-opacity:1"
             d="m 269.09999,174.83302 c -1.00695,-1.74009 -2.14559,-0.27301 -3.22032,0.10247 -1.2787,0.66129 -2.1263,-2.51254 -3.37496,-1.6314 -1.08055,1.53659 -2.11571,3.88017 -3.62844,2.96347 -1.32982,-0.83725 -2.91125,-0.90553 -3.92995,1.37135 -0.45521,0.85717 -2.02309,3.74559 -0.78909,1.47124 1.0895,-2.20179 2.73523,-2.87287 4.12527,-1.53325 1.31854,0.83231 2.83198,0.85165 4.02915,-0.70158 1.25276,-1.65326 2.68691,0.0194 4.00618,0.34089 2.92419,5.97961 5.17809,-0.71683 2.78216,-2.38319 z"
             id="path1590"
             inkscape:connector-curvature="0"
             sodipodi:nodetypes="cccccccccc" />
          <path
             style="fill:#3d3d3d;fill-opacity:1;stroke:none;stroke-width:0.18499862px;stroke-linecap:butt;stroke-linejoin:miter;stroke-opacity:1"
             d="m 269.67339,177.86779 c -1.00695,-1.74009 -2.14559,-0.27301 -3.22032,0.10247 -1.2787,0.66129 -2.1263,-2.51254 -3.37496,-1.6314 -1.08055,1.53659 -2.11571,3.88017 -3.62844,2.96347 -1.32982,-0.83725 -2.91125,-0.90553 -3.92995,1.37135 -0.45521,0.85717 -2.02309,3.74559 -0.78909,1.47124 1.0895,-2.20179 2.73523,-2.87287 4.12527,-1.53325 1.31854,0.83231 2.83198,0.85165 4.02915,-0.70158 1.25276,-1.65326 2.68691,0.0194 4.00618,0.34089 2.92419,5.97961 5.17809,-0.71683 2.78216,-2.38319 z"
             id="path1594"
             inkscape:connector-curvature="0"
             sodipodi:nodetypes="cccccccccc" />
          <path
             sodipodi:nodetypes="cccccccccc"
             inkscape:connector-curvature="0"
             id="path1596"
             d="m 268.14659,171.658 c -1.00695,-1.74009 -2.14559,-0.27301 -3.22032,0.10247 -1.2787,0.66129 -2.1263,-2.51254 -3.37496,-1.6314 -1.08055,1.53659 -2.11571,3.88017 -3.62844,2.96347 -1.32982,-0.83725 -2.91125,-0.90553 -3.92995,1.37135 -0.45521,0.85717 -2.02309,3.74559 -0.78909,1.47124 1.0895,-2.20179 2.73523,-2.87287 4.12527,-1.53325 1.31854,0.83231 2.83198,0.85165 4.02915,-0.70158 1.25276,-1.65326 2.68691,0.0194 4.00618,0.34089 2.92419,5.97961 5.17809,-0.71683 2.78216,-2.38319 z"
             style="fill:#3d3d3d;fill-opacity:1;stroke:none;stroke-width:0.18499862px;stroke-linecap:butt;stroke-linejoin:miter;stroke-opacity:1" />
          <path
             style="fill:#3d3d3d;fill-opacity:1;stroke:none;stroke-width:0.18499862px;stroke-linecap:butt;stroke-linejoin:miter;stroke-opacity:1"
             d="m 268.14659,180.12472 c -1.00695,-1.74009 -2.14559,-0.27301 -3.22032,0.10247 -1.2787,0.66129 -2.1263,-2.51254 -3.37496,-1.6314 -1.08055,1.53659 -2.11571,3.88017 -3.62844,2.96347 -1.32982,-0.83725 -2.91125,-0.90553 -3.92995,1.37135 -0.45521,0.85717 -2.02309,3.74559 -0.78909,1.47124 1.0895,-2.20179 2.73523,-2.87287 4.12527,-1.53325 1.31854,0.83231 2.83198,0.85165 4.02915,-0.70158 1.25276,-1.65326 2.68691,0.0194 4.00618,0.34089 2.92419,5.97961 5.17809,-0.71683 2.78216,-2.38319 z"
             id="path1598"
             inkscape:connector-curvature="0"
             sodipodi:nodetypes="cccccccccc" />
          <path
             sodipodi:nodetypes="cccccccccc"
             inkscape:connector-curvature="0"
             id="path1600"
             d="m 268.14659,181.71223 c -1.00695,-1.74009 -2.14559,-0.27301 -3.22032,0.10247 -1.2787,0.66129 -2.1263,-2.51254 -3.37496,-1.6314 -1.08055,1.53659 -2.11571,3.88017 -3.62844,2.96347 -1.32982,-0.83725 -2.91125,-0.90553 -3.92995,1.37135 -0.45521,0.85717 -2.02309,3.74559 -0.78909,1.47124 1.0895,-2.20179 2.73523,-2.87287 4.12527,-1.53325 1.31854,0.83231 2.83198,0.85165 4.02915,-0.70158 1.25276,-1.65326 2.68691,0.0194 4.00618,0.34089 2.92419,5.97961 5.17809,-0.71683 2.78216,-2.38319 z"
             style="fill:#3d3d3d;fill-opacity:1;stroke:none;stroke-width:0.18499862px;stroke-linecap:butt;stroke-linejoin:miter;stroke-opacity:1" />
          <path
             style="fill:#3d3d3d;fill-opacity:1;stroke:none;stroke-width:0.16132225px;stroke-linecap:butt;stroke-linejoin:miter;stroke-opacity:1"
             d="m 267.99169,184.3691 c -0.76571,-1.74009 -1.63155,-0.27301 -2.44879,0.10247 -0.97234,0.66129 -1.61687,-2.51254 -2.56637,-1.6314 -0.82167,1.53659 -1.60883,3.88017 -2.75913,2.96347 -1.01122,-0.83725 -2.21376,-0.90553 -2.9884,1.37135 -0.34615,0.85717 -1.53839,3.74559 -0.60004,1.47124 0.82848,-2.20179 2.07992,-2.87287 3.13693,-1.53325 1.00264,0.83231 2.15348,0.85165 3.06383,-0.70158 0.95262,-1.65326 2.04317,0.0194 3.04637,0.34089 2.2236,5.97961 3.9375,-0.71683 2.1156,-2.38319 z"
             id="path1602"
             inkscape:connector-curvature="0"
             sodipodi:nodetypes="cccccccccc" />
          <path
             sodipodi:nodetypes="cccccccccc"
             inkscape:connector-curvature="0"
             id="path1604"
             d="m 268.14659,187.5331 c -1.00695,-1.74009 -2.14559,-0.27301 -3.22032,0.10247 -1.2787,0.66129 -2.1263,-2.51254 -3.37496,-1.6314 -1.08055,1.53659 -2.11571,3.88017 -3.62844,2.96347 -1.32982,-0.83725 -2.91125,-0.90553 -3.92995,1.37135 -0.45521,0.85717 -2.02309,3.74559 -0.78909,1.47124 1.0895,-2.20179 2.73523,-2.87287 4.12527,-1.53325 1.31854,0.83231 2.83198,0.85165 4.02915,-0.70158 1.25276,-1.65326 2.68691,0.0194 4.00618,0.34089 2.92419,5.97961 5.17809,-0.71683 2.78216,-2.38319 z"
             style="fill:#3d3d3d;fill-opacity:1;stroke:none;stroke-width:0.18499862px;stroke-linecap:butt;stroke-linejoin:miter;stroke-opacity:1" />
          <ellipse
             ry="4.9498868"
             rx="8.4804459"
             transform="scale(1,-1)"
             cy="-176.72647"
             cx="266.43289"
             id="path1608"
             style="opacity:1;fill:#3d3d3d;fill-opacity:1;stroke:none;stroke-width:2.54024887;stroke-miterlimit:4;stroke-dasharray:none;stroke-opacity:1" />
        </g>
      </g>
      <g
         transform="matrix(1.1100523,0,0,1,-40.810685,5.8594772)"
         id="g1569">
        <path
           style="fill:#3d3d3d;fill-opacity:1;stroke:none;stroke-width:0.26458332px;stroke-linecap:butt;stroke-linejoin:miter;stroke-opacity:1"
           d="m 271.67141,171.00152 c -2.05965,-1.74009 -4.38869,-0.27301 -6.58698,0.10247 -2.61549,0.66129 -4.34923,-2.51254 -6.9033,-1.6314 -2.21019,1.53659 -4.32757,3.88017 -7.42178,2.96347 -2.72005,-0.83725 -5.95481,-0.90553 -8.03848,1.37135 -0.93111,0.85717 -4.13813,3.74559 -1.61405,1.47124 2.22851,-2.20179 5.59476,-2.87287 8.43801,-1.53325 2.69701,0.83231 5.79267,0.85165 8.24143,-0.70158 2.56244,-1.65326 5.4959,0.0194 8.19441,0.34089 5.98127,5.97961 10.59149,-0.71683 5.69074,-2.38319 z"
           id="path1565"
           inkscape:connector-curvature="0"
           sodipodi:nodetypes="cccccccccc" />
        <path
           style="fill:#00a7b9;fill-opacity:1;stroke:none;stroke-width:0.26458332px;stroke-linecap:butt;stroke-linejoin:miter;stroke-opacity:1"
           d="m 260.53636,169.65586 c 1.43324,0.82266 1.29583,0.55156 0,0 z m 9.9503,0.68574 c 1.85784,0.40905 3.20419,2.92506 1.41542,4.27885 -0.9838,1.32015 -5.42732,0.0113 -2.24049,1.0871 2.13256,0.93686 5.45096,-1.4864 3.62635,-3.65747 -0.75683,-0.78693 -1.78973,-1.32094 -2.80128,-1.70848 z m -11.1864,1.48622 c -2.42661,0.0714 -4.27369,2.24464 -6.79829,1.98979 -2.64578,0.3316 -5.00145,-1.54149 -7.59399,-1.21186 -1.68356,0.0923 -4.00836,3.27162 -4.18043,3.09625 2.3124,-2.59417 6.29909,-3.3453 9.40366,-1.79319 2.79124,0.84546 5.97362,0.46165 8.40197,-1.18622 2.0008,-1.11701 5.67192,0.58784 6.65396,0.43835 -1.85028,-0.78835 -3.90454,-1.1051 -5.88688,-1.33315 z"
           id="path1567"
           inkscape:connector-curvature="0" />
      </g>
      <g
         id="g1575"
         transform="matrix(1.1100523,0,0,1,-46.016791,8.03401)">
        <path
           sodipodi:nodetypes="cccccccccc"
           inkscape:connector-curvature="0"
           id="path1571"
           d="m 274.67428,172.41296 c -2.76876,-2.17861 -5.89968,-0.34181 -8.85482,0.12829 -3.51598,0.82794 -5.84663,-3.14572 -9.28005,-2.04252 -2.97114,1.92382 -5.81752,4.858 -9.97704,3.71028 -3.65654,-1.04824 -8.005,-1.13373 -10.80606,1.71694 -1.25168,1.07319 -5.56286,4.68951 -2.16976,1.84201 2.99577,-2.75666 7.52099,-3.59686 11.34315,-1.91964 3.62557,1.04206 7.78704,1.06627 11.07889,-0.87839 3.44467,-2.06989 7.38809,0.0243 11.01568,0.4268 8.04057,7.48652 14.23805,-0.89748 7.65001,-2.98377 z"
           style="fill:#3d3d3d;fill-opacity:1;stroke:none;stroke-width:0.34325168px;stroke-linecap:butt;stroke-linejoin:miter;stroke-opacity:1" />
      </g>
      <path
         inkscape:connector-curvature="0"
         id="path1618"
         d="m 275.66617,180.4885 c -1.46397,0.74499 -2.92794,1.48997 -4.39192,2.23496 0.95776,1.55971 1.82327,3.1923 3.01949,4.58924 0.49541,0.40502 1.27581,0.55375 1.85356,0.25672 0.85529,-0.60223 1.06198,-1.75881 0.91311,-2.736 -0.21535,-1.51312 -0.76363,-2.96069 -1.39424,-4.34492 z m -0.0663,0.60997 c 0.62421,1.46888 1.25456,3.01741 1.17804,4.64339 -0.0724,0.61265 -0.37392,1.25372 -0.9511,1.53579 -0.62603,0.14982 -1.30535,-0.0989 -1.64291,-0.65722 -0.78077,-0.98487 -1.34692,-2.11507 -2.00279,-3.18244 -0.21171,-0.27071 -0.30861,-0.50877 0.10168,-0.59912 1.10569,-0.58014 2.21138,-1.16027 3.31708,-1.7404 z"
         style="fill:#3d0d00;fill-opacity:1;stroke:none;stroke-width:0.22180566px;stroke-linecap:butt;stroke-linejoin:miter;stroke-opacity:1" />
      <path
         sodipodi:nodetypes="ccccc"
         inkscape:connector-curvature="0"
         id="path1655"
         d="m 271.27425,182.72346 -12.78129,9.25725 1.48759,0.48535 11.73053,-9.25406 z"
         style="fill:#3d0d00;fill-opacity:1;stroke:none;stroke-width:0.26458332px;stroke-linecap:butt;stroke-linejoin:miter;stroke-opacity:1" />
      <path
         sodipodi:nodetypes="ccccc"
         inkscape:connector-curvature="0"
         id="path1659"
         d="m 276.25218,179.86735 -1.03727,0.92237 0.38496,0.30875 1.01277,-0.77776 z"
         style="fill:#3d0d00;fill-opacity:1;stroke:none;stroke-width:0.26458332px;stroke-linecap:butt;stroke-linejoin:miter;stroke-opacity:1" />
      <path
         style="fill:#3d0d00;fill-opacity:1;stroke:none;stroke-width:0.19466162px;stroke-linecap:butt;stroke-linejoin:miter;stroke-opacity:1"
         d="m 275.57732,180.94231 c -1.26347,0.66486 -2.52695,1.32972 -3.79043,1.99457 0.82658,1.39196 1.57357,2.84894 2.60594,4.09563 0.42758,0.36146 1.1011,0.4942 1.59973,0.22912 0.73815,-0.53746 0.91653,-1.56964 0.78805,-2.44174 -0.18585,-1.35036 -0.65903,-2.64223 -1.20329,-3.87758 z m -0.0573,0.54436 c 0.53875,1.3109 1.08276,2.69288 1.01671,4.14398 -0.0625,0.54674 -0.3227,1.11885 -0.82085,1.37059 -0.54027,0.1337 -1.12657,-0.0882 -1.41791,-0.58653 -0.67383,-0.87894 -1.16246,-1.88759 -1.7285,-2.84015 -0.18272,-0.24159 -0.26635,-0.45404 0.0877,-0.53467 0.95427,-0.51776 1.90852,-1.03548 2.8628,-1.55322 z"
         id="path1661"
         inkscape:connector-curvature="0" />
      <path
         inkscape:connector-curvature="0"
         id="path1663"
         d="m 276.00288,185.58621 c -0.0932,0.17893 -0.2163,0.33967 -0.383,0.46251 -0.29788,0.16027 -0.68107,0.11926 -0.97971,-0.0486 0.0202,0.0318 0.039,0.0647 0.0596,0.0961 0.24654,0.26406 0.63511,0.36108 0.92261,0.16743 0.18456,-0.17026 0.30548,-0.41031 0.38055,-0.67748 z"
         style="fill:#3d0d00;fill-opacity:1;stroke:none;stroke-width:0.1263378px;stroke-linecap:butt;stroke-linejoin:miter;stroke-opacity:1" />
      <path
         style="fill:#3d0d00;fill-opacity:1;stroke:none;stroke-width:0.26458332px;stroke-linecap:butt;stroke-linejoin:miter;stroke-opacity:1"
         d="m 276.41755,179.99964 -1.03727,0.92237 0.38496,0.30875 1.01277,-0.77776 z"
         id="path1672"
         inkscape:connector-curvature="0"
         sodipodi:nodetypes="ccccc" />
      <path
         sodipodi:nodetypes="cccc"
         inkscape:connector-curvature="0"
         id="path1676"
         d="m 279.8877,183.17928 c -0.10454,-0.62035 -1.35251,-2.5883 -2.36588,-3.66852 l -0.49965,0.77122 c 0.18405,-0.046 2.18104,2.88968 2.86553,2.8973 z"
         style="fill:#ffffff;fill-opacity:1;stroke:none;stroke-width:0.13399868px;stroke-linecap:butt;stroke-linejoin:miter;stroke-opacity:1" />
    </g>
    <path
       style="fill:#2d414b;fill-opacity:1;stroke:none;stroke-width:0.27987882px;stroke-linecap:butt;stroke-linejoin:miter;stroke-opacity:1"
       d="m 267.86512,86.907148 c -0.54792,2e-4 -1.12871,0.11763 -1.65876,0.39625 -0.19719,0.10362 -0.34251,0.2569 -0.44968,0.44215 -0.17373,0.022 -2.76269,-2.12523 -2.89034,-2.05723 -1.01487,0.54029 -0.88264,4.98955 -0.88264,4.98955 0,0 2.88157,6.5197 5.20127,4.35852 0.15812,-0.14741 0.30199,-0.30625 0.43551,-0.47276 0.60043,0.25458 1.633,0.57841 1.81168,-0.13506 0.12762,-0.50987 -0.34123,-1.18161 -0.83874,-1.72377 0.0181,-0.0528 0.0392,-0.10491 0.0554,-0.15776 0.92362,0.62562 2.19312,1.3306 2.74046,0.90226 0.54188,-0.42407 -1.00016,-1.9646 -2.32988,-3.13996 -1.48131,-1.22613 1.68007,-1.46249 0.88006,-2.63444 -0.33981,-0.44322 -1.16126,-0.76805 -2.07446,-0.76772 z"
       id="path1042"
       inkscape:connector-curvature="0"
       sodipodi:nodetypes="ccccccccccccccc" />
  </g>
</svg>
