<?xml version="1.0" encoding="UTF-8" standalone="no"?>
<!-- Created with Inkscape (http://www.inkscape.org/) -->

<svg
   xmlns:dc="http://purl.org/dc/elements/1.1/"
   xmlns:cc="http://creativecommons.org/ns#"
   xmlns:rdf="http://www.w3.org/1999/02/22-rdf-syntax-ns#"
   xmlns:svg="http://www.w3.org/2000/svg"
   xmlns="http://www.w3.org/2000/svg"
   xmlns:sodipodi="http://sodipodi.sourceforge.net/DTD/sodipodi-0.dtd"
   xmlns:inkscape="http://www.inkscape.org/namespaces/inkscape"
   width="85.989731mm"
   height="37.570648mm"
   viewBox="0 0 85.98973 37.570648"
   version="1.1"
   id="svg8"
   inkscape:version="0.92.2 (5c3e80d, 2017-08-06)"
   sodipodi:docname="person.svg">
  <defs
     id="defs2" />
  <sodipodi:namedview
     id="base"
     pagecolor="#ffffff"
     bordercolor="#666666"
     borderopacity="1.0"
     inkscape:pageopacity="0.0"
     inkscape:pageshadow="2"
     inkscape:zoom="2.8284272"
     inkscape:cx="265.72491"
     inkscape:cy="67.877663"
     inkscape:document-units="mm"
     inkscape:current-layer="layer1"
     showgrid="false"
     fit-margin-top="0"
     fit-margin-left="0"
     fit-margin-right="0"
     fit-margin-bottom="0"
     inkscape:window-width="1920"
     inkscape:window-height="1016"
     inkscape:window-x="0"
     inkscape:window-y="27"
     inkscape:window-maximized="1"
     inkscape:snap-global="false"
     inkscape:measure-start="0,0"
     inkscape:measure-end="0,0" />
  <metadata
     id="metadata5">
    <rdf:RDF>
      <cc:Work
         rdf:about="">
        <dc:format>image/svg+xml</dc:format>
        <dc:type
           rdf:resource="http://purl.org/dc/dcmitype/StillImage" />
        <dc:title></dc:title>
      </cc:Work>
    </rdf:RDF>
  </metadata>
  <g
     inkscape:label="Layer 1"
     inkscape:groupmode="layer"
     id="layer1"
     transform="translate(-135.20794,14.700589)">
    <g
       id="g1041"
       transform="matrix(0.24681808,-0.04966398,-0.07672795,-0.38094239,165.7685,82.736469)">
      <path
         inkscape:connector-curvature="0"
         id="path989"
         d="m 15.002441,169.9437 -4.348149,-1.07436 -3.2930057,1.58 -5.1180952,-0.73829 -10.0019892,1.61372 -9.0404529,-1.68297"
         style="fill:none;stroke:#00a7b9;stroke-width:1.32682025;stroke-linecap:butt;stroke-linejoin:miter;stroke-miterlimit:4;stroke-dasharray:none;stroke-opacity:1" />
      <path
         inkscape:connector-curvature="0"
         id="path991"
         d="m 12.497228,168.71343 -4.4125928,-0.7679 -3.1745525,1.80624 -5.15717348,-0.37885 -9.86478122,2.30867 -9.135955,-1.04717"
         style="fill:none;stroke:#0088aa;stroke-width:1.32682025;stroke-linecap:butt;stroke-linejoin:miter;stroke-miterlimit:4;stroke-dasharray:none;stroke-opacity:1" />
      <path
         style="fill:none;stroke:#00a7b9;stroke-width:1.32682025;stroke-linecap:butt;stroke-linejoin:miter;stroke-miterlimit:4;stroke-dasharray:none;stroke-opacity:1"
         d="m 15.4327,170.55717 -4.348149,1.07435 -3.2930061,-1.57999 -5.1180948,0.73828 -10.0019891,-1.61372 -9.040453,1.68298"
         id="path993"
         inkscape:connector-curvature="0" />
      <path
         inkscape:connector-curvature="0"
         id="path995"
         d="m 14.962805,170.18586 -4.439342,0.59404 -3.1011798,-1.92949 -5.1680717,0.17605 -9.7665193,-2.69425 -9.1700282,0.68761"
         style="fill:none;stroke:#00a7b9;stroke-width:1.32682025;stroke-linecap:butt;stroke-linejoin:miter;stroke-miterlimit:4;stroke-dasharray:none;stroke-opacity:1" />
      <path
         style="fill:none;stroke:#0088aa;stroke-width:1.32682025;stroke-linecap:butt;stroke-linejoin:miter;stroke-miterlimit:4;stroke-dasharray:none;stroke-opacity:1"
         d="m 11.058484,166.77068 -4.4741572,0.20631 -2.707851,2.45108 -5.1167684,0.74742 -9.1303414,4.39099 -9.145843,0.95695"
         id="path997"
         inkscape:connector-curvature="0" />
      <path
         style="fill:none;stroke:#0088aa;stroke-width:1.32682025;stroke-linecap:butt;stroke-linejoin:miter;stroke-miterlimit:4;stroke-dasharray:none;stroke-opacity:1"
         d="m 12.944209,173.69153 -4.2052168,1.54169 -3.445542,-1.21182 -5.00719373,1.2915 -10.11826367,-0.51441 -8.8032798,2.65791"
         id="path999"
         inkscape:connector-curvature="0" />
      <path
         inkscape:connector-curvature="0"
         id="path1001"
         d="m 12.981191,173.21619 -4.4393432,0.59404 -3.1011799,-1.92949 -5.16807162,0.17604 -9.76651948,-2.69424 -9.1700268,0.68761"
         style="fill:none;stroke:#0088aa;stroke-width:1.32682025;stroke-linecap:butt;stroke-linejoin:miter;stroke-miterlimit:4;stroke-dasharray:none;stroke-opacity:1" />
      <path
         style="fill:none;stroke:#00a7b9;stroke-width:1.32682025;stroke-linecap:butt;stroke-linejoin:miter;stroke-miterlimit:4;stroke-dasharray:none;stroke-opacity:1"
         d="m 14.479914,172.23351 -4.006469,2.00221 -3.559433,-0.81897 -4.8313896,1.84327 -10.1123327,0.62015 -8.4508907,3.62556"
         id="path1003"
         inkscape:connector-curvature="0" />
      <path
         inkscape:connector-curvature="0"
         id="path1005"
         d="m 8.7831114,173.31232 -4.345085,1.08668 -3.297474,-1.57065 -5.1159834,0.75278 -10.006527,-1.58535 -9.035641,1.70863"
         style="fill:none;stroke:#0088aa;stroke-width:1.32682025;stroke-linecap:butt;stroke-linejoin:miter;stroke-miterlimit:4;stroke-dasharray:none;stroke-opacity:1" />
      <path
         inkscape:connector-curvature="0"
         id="path1007"
         d="m 15.726035,172.06945 -4.470784,-0.26971 -2.9526882,2.14987 -5.1671963,0.20015 -9.5447849,3.3972 -9.1957516,-0.0191"
         style="fill:none;stroke:#0088aa;stroke-width:1.32682025;stroke-linecap:butt;stroke-linejoin:miter;stroke-miterlimit:4;stroke-dasharray:none;stroke-opacity:1" />
      <path
         style="fill:none;stroke:#0088aa;stroke-width:1.32682025;stroke-linecap:butt;stroke-linejoin:miter;stroke-miterlimit:4;stroke-dasharray:none;stroke-opacity:1"
         d="m 17.400122,171.07115 -4.458904,0.42286 -2.58588,2.57943 -5.0745311,0.99453 -8.9068041,4.82833 -9.0887168,1.39908"
         id="path1009"
         inkscape:connector-curvature="0" />
      <path
         style="fill:none;stroke:#0088aa;stroke-width:1.32682025;stroke-linecap:butt;stroke-linejoin:miter;stroke-miterlimit:4;stroke-dasharray:none;stroke-opacity:1"
         d="m 8.7831114,173.31232 -4.345085,1.08668 -3.297474,-1.57065 -5.1159834,0.75278 -10.006527,-1.58535 -9.035641,1.70863"
         id="path1011"
         inkscape:connector-curvature="0" />
      <path
         inkscape:connector-curvature="0"
         id="path1013"
         d="m 13.553025,171.69479 -4.1765528,1.61773 -3.4669608,-1.14911 -4.98293741,1.38214 -10.12593119,-0.33075 -8.7536078,2.81719"
         style="fill:none;stroke:#00a7b9;stroke-width:1.32682025;stroke-linecap:butt;stroke-linejoin:miter;stroke-miterlimit:4;stroke-dasharray:none;stroke-opacity:1" />
      <path
         style="fill:none;stroke:#00a7b9;stroke-width:1.74625003;stroke-linecap:butt;stroke-linejoin:miter;stroke-miterlimit:4;stroke-dasharray:none;stroke-opacity:1"
         d="m 19.50989,169.35178 -5.722671,-1.41398 -4.3339785,2.07946 -6.7360095,-0.97167 -13.163783,2.12384 -11.898289,-2.21499"
         id="path1015"
         inkscape:connector-curvature="0" />
      <path
         style="fill:none;stroke:#0088aa;stroke-width:1.74625003;stroke-linecap:butt;stroke-linejoin:miter;stroke-miterlimit:4;stroke-dasharray:none;stroke-opacity:1"
         d="m 16.212738,167.7326 -5.807486,-1.01065 -4.1780809,2.37722 -6.78744115,-0.49861 -12.98320095,3.03848 -12.023982,-1.37819"
         id="path1017"
         inkscape:connector-curvature="0" />
      <path
         inkscape:connector-curvature="0"
         id="path1019"
         d="m 20.076161,170.15917 -5.722671,1.41398 -4.333979,-2.07946 -6.736009,0.97167 -13.1637829,-2.12384 -11.8982891,2.21499"
         style="fill:none;stroke:#00a7b9;stroke-width:1.74625003;stroke-linecap:butt;stroke-linejoin:miter;stroke-miterlimit:4;stroke-dasharray:none;stroke-opacity:1" />
      <path
         style="fill:none;stroke:#00a7b9;stroke-width:1.74625003;stroke-linecap:butt;stroke-linejoin:miter;stroke-miterlimit:4;stroke-dasharray:none;stroke-opacity:1"
         d="m 19.457725,169.67049 -5.842692,0.78183 -4.0815135,-2.53944 -6.8017843,0.2317 -12.8538772,-3.54594 -12.068825,0.90497"
         id="path1021"
         inkscape:connector-curvature="0" />
      <path
         inkscape:connector-curvature="0"
         id="path1023"
         d="m 14.319183,165.17572 -5.8885117,0.27152 -3.5638473,3.22591 -6.7342633,0.98369 -12.0165927,5.77905 -12.036995,1.25946"
         style="fill:none;stroke:#0088aa;stroke-width:1.74625003;stroke-linecap:butt;stroke-linejoin:miter;stroke-miterlimit:4;stroke-dasharray:none;stroke-opacity:1" />
      <path
         inkscape:connector-curvature="0"
         id="path1025"
         d="m 16.801017,174.28436 -5.534555,2.02904 -4.5347346,-1.5949 -6.59005035,1.69977 -13.31681305,-0.67702 -11.586142,3.49812"
         style="fill:none;stroke:#0088aa;stroke-width:1.74625003;stroke-linecap:butt;stroke-linejoin:miter;stroke-miterlimit:4;stroke-dasharray:none;stroke-opacity:1" />
      <path
         style="fill:none;stroke:#0088aa;stroke-width:1.74625003;stroke-linecap:butt;stroke-linejoin:miter;stroke-miterlimit:4;stroke-dasharray:none;stroke-opacity:1"
         d="m 16.849689,173.65876 -5.842692,0.78182 -4.081514,-2.53943 -6.80178435,0.23169 -12.85387765,-3.54594 -12.068824,0.90498"
         id="path1027"
         inkscape:connector-curvature="0" />
      <path
         inkscape:connector-curvature="0"
         id="path1029"
         d="m 18.822183,172.36543 -5.272979,2.63514 -4.6846285,-1.07786 -6.3586716,2.42596 -13.3090079,0.8162 -11.122357,4.77166"
         style="fill:none;stroke:#00a7b9;stroke-width:1.74625003;stroke-linecap:butt;stroke-linejoin:miter;stroke-miterlimit:4;stroke-dasharray:none;stroke-opacity:1" />
      <path
         style="fill:none;stroke:#0088aa;stroke-width:1.74625003;stroke-linecap:butt;stroke-linejoin:miter;stroke-miterlimit:4;stroke-dasharray:none;stroke-opacity:1"
         d="m 11.324528,173.78528 -5.718638,1.43019 -4.33986,-2.06715 -6.7332301,0.99074 -13.1697549,-2.0865 -11.891957,2.24875"
         id="path1031"
         inkscape:connector-curvature="0" />
      <path
         style="fill:none;stroke:#0088aa;stroke-width:1.74625003;stroke-linecap:butt;stroke-linejoin:miter;stroke-miterlimit:4;stroke-dasharray:none;stroke-opacity:1"
         d="m 20.462224,172.14951 -5.884073,-0.35497 -3.886081,2.82948 -6.8006322,0.26342 -12.5620488,4.47111 -12.102681,-0.0251"
         id="path1033"
         inkscape:connector-curvature="0" />
      <path
         inkscape:connector-curvature="0"
         id="path1035"
         d="m 22.665518,170.83564 -5.868438,0.55653 -3.403319,3.39483 -6.6786737,1.30892 -11.7223918,6.35464 -11.9618105,1.84135"
         style="fill:none;stroke:#0088aa;stroke-width:1.74625003;stroke-linecap:butt;stroke-linejoin:miter;stroke-miterlimit:4;stroke-dasharray:none;stroke-opacity:1" />
      <path
         inkscape:connector-curvature="0"
         id="path1037"
         d="m 11.324528,173.78528 -5.718638,1.43019 -4.33986,-2.06715 -6.7332301,0.99074 -13.1697549,-2.0865 -11.891957,2.24875"
         style="fill:none;stroke:#0088aa;stroke-width:1.74625003;stroke-linecap:butt;stroke-linejoin:miter;stroke-miterlimit:4;stroke-dasharray:none;stroke-opacity:1" />
      <path
         style="fill:none;stroke:#00a7b9;stroke-width:1.74625003;stroke-linecap:butt;stroke-linejoin:miter;stroke-miterlimit:4;stroke-dasharray:none;stroke-opacity:1"
         d="m 17.60229,171.65642 -5.49683,2.12912 -4.5629243,-1.51236 -6.55812619,1.81905 -13.32690551,-0.4353 -11.520768,3.70775"
         id="path1039"
         inkscape:connector-curvature="0" />
    </g>
    <g
       transform="matrix(0.38646375,0,0,0.38627253,151.3845,-48.650181)"
       id="g1095">
      <path
         style="fill:none;stroke:#00a7b9;stroke-width:1.32682025;stroke-linecap:butt;stroke-linejoin:miter;stroke-miterlimit:4;stroke-dasharray:none;stroke-opacity:1"
         d="m 15.002441,169.9437 -4.348149,-1.07436 -3.2930057,1.58 -5.1180952,-0.73829 -10.0019892,1.61372 -9.0404529,-1.68297"
         id="path1043"
         inkscape:connector-curvature="0" />
      <path
         style="fill:none;stroke:#0088aa;stroke-width:1.32682025;stroke-linecap:butt;stroke-linejoin:miter;stroke-miterlimit:4;stroke-dasharray:none;stroke-opacity:1"
         d="m 12.497228,168.71343 -4.4125928,-0.7679 -3.1745525,1.80624 -5.15717348,-0.37885 -9.86478122,2.30867 -9.135955,-1.04717"
         id="path1045"
         inkscape:connector-curvature="0" />
      <path
         inkscape:connector-curvature="0"
         id="path1047"
         d="m 15.4327,170.55717 -4.348149,1.07435 -3.2930061,-1.57999 -5.1180948,0.73828 -10.0019891,-1.61372 -9.040453,1.68298"
         style="fill:none;stroke:#00a7b9;stroke-width:1.32682025;stroke-linecap:butt;stroke-linejoin:miter;stroke-miterlimit:4;stroke-dasharray:none;stroke-opacity:1" />
      <path
         style="fill:none;stroke:#00a7b9;stroke-width:1.32682025;stroke-linecap:butt;stroke-linejoin:miter;stroke-miterlimit:4;stroke-dasharray:none;stroke-opacity:1"
         d="m 14.962805,170.18586 -4.439342,0.59404 -3.1011798,-1.92949 -5.1680717,0.17605 -9.7665193,-2.69425 -9.1700282,0.68761"
         id="path1049"
         inkscape:connector-curvature="0" />
      <path
         inkscape:connector-curvature="0"
         id="path1051"
         d="m 11.058484,166.77068 -4.4741572,0.20631 -2.707851,2.45108 -5.1167684,0.74742 -9.1303414,4.39099 -9.145843,0.95695"
         style="fill:none;stroke:#0088aa;stroke-width:1.32682025;stroke-linecap:butt;stroke-linejoin:miter;stroke-miterlimit:4;stroke-dasharray:none;stroke-opacity:1" />
      <path
         inkscape:connector-curvature="0"
         id="path1053"
         d="m 12.944209,173.69153 -4.2052168,1.54169 -3.445542,-1.21182 -5.00719373,1.2915 -10.11826367,-0.51441 -8.8032798,2.65791"
         style="fill:none;stroke:#0088aa;stroke-width:1.32682025;stroke-linecap:butt;stroke-linejoin:miter;stroke-miterlimit:4;stroke-dasharray:none;stroke-opacity:1" />
      <path
         style="fill:none;stroke:#0088aa;stroke-width:1.32682025;stroke-linecap:butt;stroke-linejoin:miter;stroke-miterlimit:4;stroke-dasharray:none;stroke-opacity:1"
         d="m 12.981191,173.21619 -4.4393432,0.59404 -3.1011799,-1.92949 -5.16807162,0.17604 -9.76651948,-2.69424 -9.1700268,0.68761"
         id="path1055"
         inkscape:connector-curvature="0" />
      <path
         inkscape:connector-curvature="0"
         id="path1057"
         d="m 14.479914,172.23351 -4.006469,2.00221 -3.559433,-0.81897 -4.8313896,1.84327 -10.1123327,0.62015 -8.4508907,3.62556"
         style="fill:none;stroke:#00a7b9;stroke-width:1.32682025;stroke-linecap:butt;stroke-linejoin:miter;stroke-miterlimit:4;stroke-dasharray:none;stroke-opacity:1" />
      <path
         style="fill:none;stroke:#0088aa;stroke-width:1.32682025;stroke-linecap:butt;stroke-linejoin:miter;stroke-miterlimit:4;stroke-dasharray:none;stroke-opacity:1"
         d="m 8.7831114,173.31232 -4.345085,1.08668 -3.297474,-1.57065 -5.1159834,0.75278 -10.006527,-1.58535 -9.035641,1.70863"
         id="path1059"
         inkscape:connector-curvature="0" />
      <path
         style="fill:none;stroke:#0088aa;stroke-width:1.32682025;stroke-linecap:butt;stroke-linejoin:miter;stroke-miterlimit:4;stroke-dasharray:none;stroke-opacity:1"
         d="m 15.726035,172.06945 -4.470784,-0.26971 -2.9526882,2.14987 -5.1671963,0.20015 -9.5447849,3.3972 -9.1957516,-0.0191"
         id="path1061"
         inkscape:connector-curvature="0" />
      <path
         inkscape:connector-curvature="0"
         id="path1063"
         d="m 17.400122,171.07115 -4.458904,0.42286 -2.58588,2.57943 -5.0745311,0.99453 -8.9068041,4.82833 -9.0887168,1.39908"
         style="fill:none;stroke:#0088aa;stroke-width:1.32682025;stroke-linecap:butt;stroke-linejoin:miter;stroke-miterlimit:4;stroke-dasharray:none;stroke-opacity:1" />
      <path
         inkscape:connector-curvature="0"
         id="path1065"
         d="m 8.7831114,173.31232 -4.345085,1.08668 -3.297474,-1.57065 -5.1159834,0.75278 -10.006527,-1.58535 -9.035641,1.70863"
         style="fill:none;stroke:#0088aa;stroke-width:1.32682025;stroke-linecap:butt;stroke-linejoin:miter;stroke-miterlimit:4;stroke-dasharray:none;stroke-opacity:1" />
      <path
         style="fill:none;stroke:#00a7b9;stroke-width:1.32682025;stroke-linecap:butt;stroke-linejoin:miter;stroke-miterlimit:4;stroke-dasharray:none;stroke-opacity:1"
         d="m 13.553025,171.69479 -4.1765528,1.61773 -3.4669608,-1.14911 -4.98293741,1.38214 -10.12593119,-0.33075 -8.7536078,2.81719"
         id="path1067"
         inkscape:connector-curvature="0" />
      <path
         inkscape:connector-curvature="0"
         id="path1069"
         d="m 19.50989,169.35178 -5.722671,-1.41398 -4.3339785,2.07946 -6.7360095,-0.97167 -13.163783,2.12384 -11.898289,-2.21499"
         style="fill:none;stroke:#00a7b9;stroke-width:1.74625003;stroke-linecap:butt;stroke-linejoin:miter;stroke-miterlimit:4;stroke-dasharray:none;stroke-opacity:1" />
      <path
         inkscape:connector-curvature="0"
         id="path1071"
         d="m 16.212738,167.7326 -5.807486,-1.01065 -4.1780809,2.37722 -6.78744115,-0.49861 -12.98320095,3.03848 -12.023982,-1.37819"
         style="fill:none;stroke:#0088aa;stroke-width:1.74625003;stroke-linecap:butt;stroke-linejoin:miter;stroke-miterlimit:4;stroke-dasharray:none;stroke-opacity:1" />
      <path
         style="fill:none;stroke:#00a7b9;stroke-width:1.74625003;stroke-linecap:butt;stroke-linejoin:miter;stroke-miterlimit:4;stroke-dasharray:none;stroke-opacity:1"
         d="m 20.076161,170.15917 -5.722671,1.41398 -4.333979,-2.07946 -6.736009,0.97167 -13.1637829,-2.12384 -11.8982891,2.21499"
         id="path1073"
         inkscape:connector-curvature="0" />
      <path
         inkscape:connector-curvature="0"
         id="path1075"
         d="m 19.457725,169.67049 -5.842692,0.78183 -4.0815135,-2.53944 -6.8017843,0.2317 -12.8538772,-3.54594 -12.068825,0.90497"
         style="fill:none;stroke:#00a7b9;stroke-width:1.74625003;stroke-linecap:butt;stroke-linejoin:miter;stroke-miterlimit:4;stroke-dasharray:none;stroke-opacity:1" />
      <path
         style="fill:none;stroke:#0088aa;stroke-width:1.74625003;stroke-linecap:butt;stroke-linejoin:miter;stroke-miterlimit:4;stroke-dasharray:none;stroke-opacity:1"
         d="m 14.319183,165.17572 -5.8885117,0.27152 -3.5638473,3.22591 -6.7342633,0.98369 -12.0165927,5.77905 -12.036995,1.25946"
         id="path1077"
         inkscape:connector-curvature="0" />
      <path
         style="fill:none;stroke:#0088aa;stroke-width:1.74625003;stroke-linecap:butt;stroke-linejoin:miter;stroke-miterlimit:4;stroke-dasharray:none;stroke-opacity:1"
         d="m 16.801017,174.28436 -5.534555,2.02904 -4.5347346,-1.5949 -6.59005035,1.69977 -13.31681305,-0.67702 -11.586142,3.49812"
         id="path1079"
         inkscape:connector-curvature="0" />
      <path
         inkscape:connector-curvature="0"
         id="path1081"
         d="m 16.849689,173.65876 -5.842692,0.78182 -4.081514,-2.53943 -6.80178435,0.23169 -12.85387765,-3.54594 -12.068824,0.90498"
         style="fill:none;stroke:#0088aa;stroke-width:1.74625003;stroke-linecap:butt;stroke-linejoin:miter;stroke-miterlimit:4;stroke-dasharray:none;stroke-opacity:1" />
      <path
         style="fill:none;stroke:#00a7b9;stroke-width:1.74625003;stroke-linecap:butt;stroke-linejoin:miter;stroke-miterlimit:4;stroke-dasharray:none;stroke-opacity:1"
         d="m 18.822183,172.36543 -5.272979,2.63514 -4.6846285,-1.07786 -6.3586716,2.42596 -13.3090079,0.8162 -11.122357,4.77166"
         id="path1083"
         inkscape:connector-curvature="0" />
      <path
         inkscape:connector-curvature="0"
         id="path1085"
         d="m 11.324528,173.78528 -5.718638,1.43019 -4.33986,-2.06715 -6.7332301,0.99074 -13.1697549,-2.0865 -11.891957,2.24875"
         style="fill:none;stroke:#0088aa;stroke-width:1.74625003;stroke-linecap:butt;stroke-linejoin:miter;stroke-miterlimit:4;stroke-dasharray:none;stroke-opacity:1" />
      <path
         inkscape:connector-curvature="0"
         id="path1087"
         d="m 20.462224,172.14951 -5.884073,-0.35497 -3.886081,2.82948 -6.8006322,0.26342 -12.5620488,4.47111 -12.102681,-0.0251"
         style="fill:none;stroke:#0088aa;stroke-width:1.74625003;stroke-linecap:butt;stroke-linejoin:miter;stroke-miterlimit:4;stroke-dasharray:none;stroke-opacity:1" />
      <path
         style="fill:none;stroke:#0088aa;stroke-width:1.74625003;stroke-linecap:butt;stroke-linejoin:miter;stroke-miterlimit:4;stroke-dasharray:none;stroke-opacity:1"
         d="m 22.665518,170.83564 -5.868438,0.55653 -3.403319,3.39483 -6.6786737,1.30892 -11.7223918,6.35464 -11.9618105,1.84135"
         id="path1089"
         inkscape:connector-curvature="0" />
      <path
         style="fill:none;stroke:#0088aa;stroke-width:1.74625003;stroke-linecap:butt;stroke-linejoin:miter;stroke-miterlimit:4;stroke-dasharray:none;stroke-opacity:1"
         d="m 11.324528,173.78528 -5.718638,1.43019 -4.33986,-2.06715 -6.7332301,0.99074 -13.1697549,-2.0865 -11.891957,2.24875"
         id="path1091"
         inkscape:connector-curvature="0" />
      <path
         inkscape:connector-curvature="0"
         id="path1093"
         d="m 17.60229,171.65642 -5.49683,2.12912 -4.5629243,-1.51236 -6.55812619,1.81905 -13.32690551,-0.4353 -11.520768,3.70775"
         style="fill:none;stroke:#00a7b9;stroke-width:1.74625003;stroke-linecap:butt;stroke-linejoin:miter;stroke-miterlimit:4;stroke-dasharray:none;stroke-opacity:1" />
    </g>
    <path
       style="fill:#483737;fill-opacity:1;stroke:none;stroke-width:0.12312359px;stroke-linecap:butt;stroke-linejoin:miter;stroke-opacity:1"
       d="m 158.74312,15.959289 c -0.2902,-0.651578 -0.0621,-1.743451 -2.19748,-1.103646 -0.62857,0.835395 -0.0861,4.061463 0.83697,4.304797 0.36707,0.09677 2.13335,-0.01611 2.35243,-0.288296 0.42896,-0.549843 -0.27796,-1.570029 -0.59801,-2.161779 -0.12049,-0.253646 -0.29367,-0.491588 -0.39391,-0.751076 z"
       id="path1097"
       inkscape:connector-curvature="0"
       sodipodi:nodetypes="ccsccc" />
    <path
       style="fill:#00a7b9;fill-opacity:1;stroke:none;stroke-width:0.12378488px;stroke-linecap:butt;stroke-linejoin:miter;stroke-opacity:1"
       d="m 159.18825,15.924486 c -0.29102,-0.658853 -0.0642,-1.762071 -2.19911,-1.118016 -0.62764,0.843524 -0.0812,4.104548 0.84226,4.351583 0.36724,0.09823 1.04566,-0.113549 1.26443,-0.388329 0.42837,-0.555174 0.80809,-1.487273 0.48728,-2.085704 -0.12081,-0.256493 -0.2943,-0.497178 -0.39486,-0.759534 z"
       id="path1099"
       inkscape:connector-curvature="0"
       sodipodi:nodetypes="ccsccc" />
    <path
       sodipodi:nodetypes="ccsccc"
       inkscape:connector-curvature="0"
       id="path1101"
       d="m 159.82111,15.773778 c -0.2902,-0.651577 -0.0621,-1.743455 -2.19748,-1.103646 -0.62857,0.835392 -0.0861,4.06146 0.83698,4.304794 0.36706,0.09677 2.13335,-0.01616 2.35241,-0.288291 0.42898,-0.549848 -0.27795,-1.570034 -0.598,-2.161785 -0.12048,-0.253641 -0.29366,-0.491586 -0.39391,-0.751072 z"
       style="fill:#483737;fill-opacity:1;stroke:none;stroke-width:0.12312359px;stroke-linecap:butt;stroke-linejoin:miter;stroke-opacity:1" />
    <path
       sodipodi:nodetypes="ccsccc"
       inkscape:connector-curvature="0"
       id="path1103"
       d="m 160.47411,15.666694 c -0.29102,-0.65884 -0.0642,-1.762054 -2.19911,-1.118012 -0.62765,0.843518 -0.0813,4.104557 0.84225,4.351588 0.36724,0.09823 1.04567,-0.11355 1.26445,-0.38833 0.42837,-0.555175 0.80808,-1.487274 0.48728,-2.08571 -0.12081,-0.256483 -0.2943,-0.497163 -0.39487,-0.759536 z"
       style="fill:#00a7b9;fill-opacity:1;stroke:none;stroke-width:0.12378488px;stroke-linecap:butt;stroke-linejoin:miter;stroke-opacity:1" />
    <path
       style="fill:#483737;fill-opacity:1;stroke:none;stroke-width:0.12312359px;stroke-linecap:butt;stroke-linejoin:miter;stroke-opacity:1"
       d="m 160.96109,15.645197 c -0.2902,-0.651577 -0.0621,-1.743441 -2.19749,-1.103646 -0.62857,0.835395 -0.0862,4.061464 0.83697,4.304802 0.36708,0.09676 1.04567,-0.113586 1.26474,-0.385741 0.42896,-0.549848 0.80973,-1.472588 0.48969,-2.064339 -0.12049,-0.253646 -0.29366,-0.491583 -0.39391,-0.751076 z"
       id="path1105"
       inkscape:connector-curvature="0"
       sodipodi:nodetypes="ccsccc" />
    <path
       sodipodi:nodetypes="ccccc"
       inkscape:connector-curvature="0"
       id="path1107"
       d="m 161.28699,15.559524 c -0.22376,-0.659075 -0.76132,-1.421787 -1.56166,-1.175358 -1.34566,1.127403 0.62123,5.627135 1.50582,3.729452 0.27835,-0.532847 0.5973,-1.191819 0.35493,-1.792335 -0.0924,-0.256817 -0.22062,-0.499817 -0.29909,-0.761759 z"
       style="fill:#00a7b9;fill-opacity:1;stroke:none;stroke-width:0.10222657px;stroke-linecap:butt;stroke-linejoin:miter;stroke-opacity:1" />
    <path
       style="opacity:1;fill:#2d414b;fill-opacity:1;stroke:none;stroke-width:0.66841686;stroke-miterlimit:4;stroke-dasharray:none;stroke-opacity:1"
       d="m 171.79756,-4.6279785 c -2.80979,-0.5421621 -6.10342,1.3734236 -6.49946,4.31798021 -0.0176,1.08215873 -0.0229,2.29947619 0.7242,3.16937189 1.30524,1.7140289 3.33029,2.5587823 5.10099,3.6888251 1.65757,0.9947101 3.31516,1.9894298 4.97276,2.984144 1.51801,-1.5305487 3.17823,-2.986662 4.31377,-4.8358169 0.19356,-1.091277 -0.7414,-1.9863995 -1.22004,-2.880094 -1.20026,-1.72850744 -2.49474,-3.4135186 -3.93464,-4.9431376 -0.99765,-0.7825927 -2.18679,-1.3611577 -3.45758,-1.5012727 z"
       id="path1109"
       inkscape:connector-curvature="0" />
    <path
       style="fill:#3d0d00;fill-opacity:1;stroke:none;stroke-width:0.10222657px;stroke-linecap:butt;stroke-linejoin:miter;stroke-opacity:1"
       d="m 176.03193,7.2328012 c -1.15118,-1.1604419 -2.1386,-1.0558842 -3.18301,-1.3915381 -1.61094,1.9964246 -2.56073,4.5389519 -3.19357,7.3432729 l 2.48808,1.366185 5.69028,-4.7972272 z"
       id="path1111"
       inkscape:connector-curvature="0"
       sodipodi:nodetypes="cccccc" />
    <path
       style="fill:#662c00;fill-opacity:1;stroke:none;stroke-width:0.10222657px;stroke-linecap:butt;stroke-linejoin:miter;stroke-opacity:1"
       d="m 175.87086,3.015771 c 0,0 2.73376,-2.68357794 4.37971,-0.9248359 1.64594,1.7587516 0.67137,4.5570156 0.67137,4.5570156 0,0 -1.17337,2.2699697 -2.76055,2.9803201 -1.58717,0.7103692 -2.25294,-2.5438291 -2.25294,-2.5438291 0,0 3.15859,-3.683573 1.88194,-3.9747159 -1.27665,-0.2911475 -1.91953,-0.093955 -1.91953,-0.093955 z"
       id="path1113"
       inkscape:connector-curvature="0" />
    <path
       style="fill:#2d414b;fill-opacity:1;stroke:none;stroke-width:0.10914623px;stroke-linecap:butt;stroke-linejoin:miter;stroke-opacity:1"
       d="m 169.75771,12.822561 c -1.25859,0.08916 -1.53176,2.628346 -1.27742,6.479108 0.17702,0.313823 0.45187,0.369435 0.86515,0.05969 l 0.82608,-1.928401 c 1.26671,-1.929355 2.6256,-3.115386 3.96798,-4.434541 -0.32669,-0.279869 -0.6701,-0.556698 -1.27416,-0.785884 l -1.4019,1.155432 c -1.21035,0.128385 -1.16219,-0.351503 -1.70573,-0.545418 z"
       id="path1115"
       inkscape:connector-curvature="0"
       sodipodi:nodetypes="cccccccc" />
    <path
       style="fill:#8e5229;fill-opacity:1;stroke:none;stroke-width:0.10222657px;stroke-linecap:butt;stroke-linejoin:miter;stroke-opacity:1"
       d="m 179.18539,3.2882871 3.03172,-1.0112179 c 0.44385,3.4919708 -0.53869,4.5409163 -2.7452,7.0029911 L 178.56089,7.279633 c 0.40861,-1.0656977 1.01154,-1.8747529 0.6245,-3.9913459 z"
       id="path1117"
       inkscape:connector-curvature="0"
       sodipodi:nodetypes="ccccc" />
    <path
       sodipodi:nodetypes="cccccc"
       inkscape:connector-curvature="0"
       id="path1119"
       d="m 176.03193,7.2328012 c -1.15118,-1.1604419 -2.1386,-1.0558842 -3.18301,-1.3915381 -1.61094,1.9964246 -2.56073,4.5389519 -3.19357,7.3432729 l 2.48808,1.366185 5.69028,-4.7972272 z"
       style="fill:#000000;fill-opacity:1;stroke:none;stroke-width:0.10222657px;stroke-linecap:butt;stroke-linejoin:miter;stroke-opacity:1" />
    <path
       inkscape:connector-curvature="0"
       id="path1121"
       d="m 175.87086,3.015771 c 0,0 2.73376,-2.68357794 4.37971,-0.9248359 1.64594,1.7587516 0.67137,4.5570156 0.67137,4.5570156 0,0 -1.17337,2.2699697 -2.76055,2.9803201 -1.58717,0.7103692 -2.25294,-2.5438291 -2.25294,-2.5438291 0,0 3.15859,-3.683573 1.88194,-3.9747159 -1.27665,-0.2911475 -1.91953,-0.093955 -1.91953,-0.093955 z"
       style="fill:#000000;fill-opacity:1;stroke:none;stroke-width:0.10222657px;stroke-linecap:butt;stroke-linejoin:miter;stroke-opacity:1" />
    <path
       sodipodi:nodetypes="cccccccc"
       inkscape:connector-curvature="0"
       id="path1123"
       d="m 169.75771,12.822561 c -1.25859,0.08916 -1.53176,2.628346 -1.27742,6.479108 0.17702,0.313823 0.45187,0.369435 0.86515,0.05969 l 0.82608,-1.928401 c 1.26671,-1.929355 2.6256,-3.115386 3.96798,-4.434541 -0.32669,-0.279869 -0.6701,-0.556698 -1.27416,-0.785884 l -1.4019,1.155432 c -1.21035,0.128385 -1.16219,-0.351503 -1.70573,-0.545418 z"
       style="fill:#000000;fill-opacity:1;stroke:none;stroke-width:0.10914623px;stroke-linecap:butt;stroke-linejoin:miter;stroke-opacity:1" />
    <path
       sodipodi:nodetypes="ccccc"
       inkscape:connector-curvature="0"
       id="path1125"
       d="m 179.18539,3.2882871 3.03172,-1.0112179 c 0.44385,3.4919708 -0.53869,4.5409163 -2.7452,7.0029911 L 178.56089,7.279633 c 0.40861,-1.0656977 1.01154,-1.8747529 0.6245,-3.9913459 z"
       style="fill:#000000;fill-opacity:1;stroke:none;stroke-width:0.10222657px;stroke-linecap:butt;stroke-linejoin:miter;stroke-opacity:1" />
    <path
       sodipodi:nodetypes="ccccccccccc"
       inkscape:connector-curvature="0"
       id="path1127"
       d="m 221.19767,1.0868249 -6.01632,1.3389139 -31.17696,7.7415702 -2.91056,2.877127 -20.05413,2.648655 c -0.25242,0.473833 -0.14969,0.893069 0.19344,1.275325 l 20.17487,-2.758216 3.03871,-3.084946 30.60584,-7.1865545 3.31875,0.4627516 c 1.72476,-0.1922413 2.50455,-1.4864092 2.82636,-3.3146262 z"
       style="color:#000000;font-style:normal;font-variant:normal;font-weight:normal;font-stretch:normal;font-size:medium;line-height:normal;font-family:sans-serif;font-variant-ligatures:normal;font-variant-position:normal;font-variant-caps:normal;font-variant-numeric:normal;font-variant-alternates:normal;font-feature-settings:normal;text-indent:0;text-align:start;text-decoration:none;text-decoration-line:none;text-decoration-style:solid;text-decoration-color:#000000;letter-spacing:normal;word-spacing:normal;text-transform:none;writing-mode:lr-tb;direction:ltr;text-orientation:mixed;dominant-baseline:auto;baseline-shift:baseline;text-anchor:start;white-space:normal;shape-padding:0;clip-rule:nonzero;display:inline;overflow:visible;visibility:visible;opacity:1;isolation:auto;mix-blend-mode:normal;color-interpolation:sRGB;color-interpolation-filters:linearRGB;solid-color:#000000;solid-opacity:1;vector-effect:none;fill:#3d0d00;fill-opacity:1;fill-rule:nonzero;stroke:none;stroke-width:1.29006886;stroke-linecap:butt;stroke-linejoin:miter;stroke-miterlimit:4;stroke-dasharray:none;stroke-dashoffset:0;stroke-opacity:1;color-rendering:auto;image-rendering:auto;shape-rendering:auto;text-rendering:auto;enable-background:accumulate" />
    <path
       sodipodi:nodetypes="ccscccccc"
       inkscape:connector-curvature="0"
       id="path1129"
       d="m 180.152,-6.9383814 c -1.02336,-0.074018 -2.07653,-0.049285 -3.12427,0.073341 -2.72181,0.9083937 -4.41422,3.0526047 -11.53359,2.9784132 -3.09767,-0.03232 -6.41769,2.3662356 -5.9995,5.9339153 0.41825,3.5676469 5.43917,5.911559 11.21463,5.2352762 1.57419,-0.1861763 3.10165,-0.5894731 4.46846,-1.1798013 1.09723,0.098648 2.23344,0.082469 3.36439,-0.047846 5.44151,-0.9982757 4.16338,-9.8575857 9.7002,-7.684432 -0.33189,-2.8323696 -3.61189,-4.9846936 -8.09032,-5.3088103 z"
       style="opacity:1;fill:#000000;fill-opacity:1;stroke:none;stroke-width:0.66841686;stroke-miterlimit:4;stroke-dasharray:none" />
    <ellipse
       transform="matrix(0.99788534,0.06499884,-0.06506294,0.99788116,0,0)"
       ry="5.0078731"
       rx="4.5757618"
       cy="-13.033108"
       cx="181.14018"
       id="ellipse1131"
       style="opacity:1;fill:#2d0901;fill-opacity:1;stroke:none;stroke-width:1.09646928;stroke-miterlimit:4;stroke-dasharray:none;stroke-opacity:1" />
    <path
       inkscape:connector-curvature="0"
       id="path1133"
       d="m 177.66218,-8.5241943 -0.88136,2.4048882 4.73854,4.0021083 2.36652,-6.2912774 z"
       style="fill:#2d0901;fill-opacity:1;stroke:#000000;stroke-width:0.10222657px;stroke-linecap:butt;stroke-linejoin:miter;stroke-opacity:1" />
    <path
       style="fill:#542200;fill-opacity:1;stroke:#000000;stroke-width:0.14192909px;stroke-linecap:butt;stroke-linejoin:miter;stroke-opacity:1"
       d="m 173.72442,-2.673331 c 0,0 -7.82647,-3.361054 -13.93727,-1.0435949 -6.11081,2.3174545 -9.5481,0.192711 -13.83149,-2.6660082 -4.28339,-2.8587241 -10.55869,-2.5886037 -10.55869,-2.5886037 0.0227,0.01856 6.39837,0.1877415 6.73297,7.5974295 0.63683,14.1024733 29.53694,5.4794322 29.51292,5.4897014 z"
       id="path1135"
       inkscape:connector-curvature="0"
       sodipodi:nodetypes="csscscc" />
    <path
       sodipodi:nodetypes="csscscc"
       inkscape:connector-curvature="0"
       id="path1137"
       d="m 167.86167,0.84371185 c 0,0 -4.27691,-3.13973865 -7.75949,-0.64167453 -3.4826,2.49806388 -5.34215,0.46949744 -7.65334,-2.26970682 -2.31119,-2.7392038 -5.82638,-2.2869472 -5.82638,-2.2869472 0.0122,0.017898 3.5707,0.00329 3.54294,7.4144712 -0.0529,14.1063045 16.3498,4.6327949 16.33607,4.6437689 z"
       style="fill:#2d0901;fill-opacity:1;stroke:none;stroke-width:0.10611113px;stroke-linecap:butt;stroke-linejoin:miter;stroke-opacity:1" />
    <path
       sodipodi:nodetypes="csscscc"
       inkscape:connector-curvature="0"
       id="path1139"
       d="m 172.37637,-3.8810933 c 0,0 -5.37028,-2.5005818 -9.58467,-0.7267413 -4.21442,1.7738501 -6.57017,0.1865522 -9.50488,-1.9505509 -2.93474,-2.1370984 -7.25347,-1.9063165 -7.25347,-1.9063165 0.0156,0.013905 4.40143,0.1139391 4.59962,5.699718 0.37719,10.6311117 20.29847,4.0041662 20.28189,4.0120115 z"
       style="fill:#2d0901;fill-opacity:1;stroke:#000000;stroke-width:0.10222657px;stroke-linecap:butt;stroke-linejoin:miter;stroke-opacity:1" />
    <path
       inkscape:connector-curvature="0"
       id="path1141"
       d="m 147.12452,-8.452972 c -0.66947,-0.034202 -1.09117,-0.011647 -1.09117,-0.011647 0.0156,0.013905 4.40153,0.1137792 4.59971,5.6995723 0.37719,10.6311118 20.29837,4.0043118 20.2818,4.0121571 l 0.40459,-1.41990795 c -3.80112,0.82903483 -18.8871,3.65898035 -19.34232,-3.61989985 -0.27383,-4.3785808 -4.63321,-4.5172765 -4.64887,-4.5283593 0,0 0.60526,-0.017151 1.517,0.052432 -0.65573,-0.1079446 -1.24967,-0.1602218 -1.72074,-0.1843112 z"
       style="fill:#662c00;fill-opacity:1;stroke:none;stroke-width:0.10222657px;stroke-linecap:butt;stroke-linejoin:miter;stroke-opacity:1" />
    <g
       transform="matrix(0.38646375,0,0,0.38627253,121.45604,-92.036141)"
       id="g1153">
      <path
         style="opacity:1;fill:#2d414b;fill-opacity:1;stroke:none;stroke-width:1.73000002;stroke-miterlimit:4;stroke-dasharray:none;stroke-opacity:1"
         d="m 119.1928,226.71174 c -7.39064,-0.45731 -15.20489,5.55622 -15.24129,13.24771 0.31485,2.78416 0.70631,5.91122 2.9131,7.89605 3.91976,3.96641 9.39735,5.46164 14.3172,7.77389 4.58455,2.00245 9.16911,4.0049 13.75366,6.00735 3.38604,-4.4344 7.16176,-8.72501 9.46028,-13.85017 0.13353,-2.86611 -2.56352,-4.85321 -4.08921,-6.98845 -3.65519,-4.03849 -7.53771,-7.93396 -11.74164,-11.38209 -2.82051,-1.67738 -6.0645,-2.76724 -9.3721,-2.70429 z"
         id="path1143"
         inkscape:connector-curvature="0" />
      <path
         style="fill:#3d0d00;fill-opacity:1;stroke:none;stroke-width:0.26458332px;stroke-linecap:butt;stroke-linejoin:miter;stroke-opacity:1"
         d="m 131.48404,254.71313 c -1.37381,-4.00135 -3.79186,-4.86995 -5.84652,-6.82874 -6.00272,2.83829 -11.08073,7.69414 -15.71545,13.51716 l 4.25627,5.98684 18.66209,-4.77076 z"
         id="path1145"
         inkscape:connector-curvature="0"
         sodipodi:nodetypes="cccccc" />
      <path
         style="fill:#662c00;fill-opacity:1;stroke:none;stroke-width:0.26458332px;stroke-linecap:butt;stroke-linejoin:miter;stroke-opacity:1"
         d="m 135.86155,244.70326 c 0,0 9.39271,-3.175 11.24479,2.77812 1.85208,5.95313 -3.57188,11.37709 -3.57188,11.37709 0,0 -5.29166,3.96875 -9.78958,3.83645 -4.49792,-0.13229 -2.38125,-8.46666 -2.38125,-8.46666 0,0 11.50938,-5.02709 8.86354,-7.14375 -2.64583,-2.11667 -4.36562,-2.38125 -4.36562,-2.38125 z"
         id="path1147"
         inkscape:connector-curvature="0" />
      <path
         style="fill:#2d414b;fill-opacity:1;stroke:none;stroke-width:0.28249282px;stroke-linecap:butt;stroke-linejoin:miter;stroke-opacity:1"
         d="m 110.56847,260.67321 c -3.03239,-1.20995 -6.53047,4.40029 -10.27787,13.66157 0.0587,0.93083 0.6363,1.37006 1.9481,1.11372 l 4.0977,-3.56388 c 5.12523,-3.06975 9.62745,-4.30323 14.24124,-5.86558 -0.44561,-1.02029 -0.93358,-2.05228 -2.08245,-3.26691 l -4.56794,1.11372 c -2.9642,-1.06422 -2.31116,-2.12842 -3.35878,-3.19264 z"
         id="path1149"
         inkscape:connector-curvature="0"
         sodipodi:nodetypes="cccccccc" />
      <path
         style="fill:#8e5229;fill-opacity:1;stroke:none;stroke-width:0.26458332px;stroke-linecap:butt;stroke-linejoin:miter;stroke-opacity:1"
         d="m 143.27558,249.0721 8.20208,1.05834 c -2.90159,8.63855 -6.37261,9.97647 -14.2875,13.22916 l 0.1323,-5.68854 c 2.15294,-2.02347 4.46929,-3.22992 5.95312,-8.59896 z"
         id="path1151"
         inkscape:connector-curvature="0"
         sodipodi:nodetypes="ccccc" />
    </g>
    <g
       transform="matrix(0.29692833,-0.10009354,0.10014309,0.29678141,78.115038,-49.128839)"
       id="g1171">
      <g
         id="g1167"
         transform="matrix(0.16748697,0.75971083,0.75971083,-0.16748697,55.698523,103.12382)">
        <path
           style="fill:#2d414b;fill-opacity:1;stroke:none;stroke-width:0.48837093px;stroke-linecap:butt;stroke-linejoin:miter;stroke-opacity:1"
           d="m 280.87674,220.10294 19.84748,20.01508 -7.12585,6.36009 c -17.91526,-3.31652 -28.22855,-12.90754 -39.43214,-21.76372 z"
           id="path1155"
           inkscape:connector-curvature="0"
           sodipodi:nodetypes="ccccc" />
        <path
           style="fill:#2e0901;fill-opacity:1;stroke:none;stroke-width:0.48837093px;stroke-linecap:butt;stroke-linejoin:miter;stroke-opacity:1"
           d="m 277.12816,241.94502 -16.96415,-11.21648 19.18863,-13.19497 9.70906,8.56108 z"
           id="path1157"
           inkscape:connector-curvature="0"
           sodipodi:nodetypes="ccccc" />
        <path
           style="fill:#652a00;fill-opacity:1;stroke:#652a00;stroke-width:0.48837093px;stroke-linecap:butt;stroke-linejoin:miter;stroke-opacity:1"
           d="m 300.51876,238.39409 -1.9647,1.89561 -14.09332,-13.44334 3.81134,-2.37224 z"
           id="path1159"
           inkscape:connector-curvature="0" />
        <path
           inkscape:connector-curvature="0"
           id="path1161"
           d="m 298.55779,234.72849 -1.38122,1.33266 -9.9078,-9.45089 2.67942,-1.66773 z"
           style="fill:#8e5229;fill-opacity:1;stroke:none;stroke-width:0.34333226px;stroke-linecap:butt;stroke-linejoin:miter;stroke-opacity:1" />
        <path
           style="fill:#2d0901;fill-opacity:1;stroke:none;stroke-width:0.51415431px;stroke-linecap:butt;stroke-linejoin:miter;stroke-opacity:1"
           d="m 297.79467,232.78815 -1.38626,-1.42893 -13.24812,13.08353 2.99441,0.83342 z"
           id="path1163"
           inkscape:connector-curvature="0"
           sodipodi:nodetypes="ccccc" />
        <path
           inkscape:connector-curvature="0"
           id="path1165"
           d="m 295.57032,229.77448 -1.56332,-1.54869 -14.04567,14.99824 1.54594,0.75845 z"
           style="fill:#2d0901;fill-opacity:1;stroke:none;stroke-width:0.57224703px;stroke-linecap:butt;stroke-linejoin:miter;stroke-opacity:1"
           sodipodi:nodetypes="ccccc" />
      </g>
      <path
         style="opacity:1;fill:#541001;fill-opacity:1;stroke:none;stroke-width:1.73000002;stroke-miterlimit:4;stroke-dasharray:none;stroke-opacity:1"
         d="m 261.1366,246.1019 c -2.94475,3e-5 -5.33194,2.38722 -5.33197,5.33197 0.001,0.1541 0.009,0.30806 0.0238,0.46147 -2.51918,10.76158 5.69969,23.11164 10.64019,30.40809 l 12.72169,-7.01572 -1.49655,-3.18068 4.11603,1.02939 2.99368,-6.45451 c -11.5405,-1.16845 -17.99638,-22.39894 -23.66683,-20.58001 z"
         id="path1169"
         inkscape:connector-curvature="0"
         sodipodi:nodetypes="ccccccccc" />
    </g>
    <g
       transform="matrix(0.38646375,0,0,0.38627253,80.186444,-80.103021)"
       id="g1317">
      <path
         style="fill:#3d0d00;fill-opacity:1;stroke:none;stroke-width:0.26458332px;stroke-linecap:butt;stroke-linejoin:miter;stroke-opacity:1"
         d="m 280.61531,184.09867 c -0.20061,-1.26035 -1.51653,-3.51156 -3.46115,-5.7062 l -0.95882,1.56686 c 0,0 2.78294,4.2095 4.41997,4.13934 z"
         id="path1173"
         inkscape:connector-curvature="0"
         sodipodi:nodetypes="cccc" />
      <path
         sodipodi:nodetypes="cccc"
         inkscape:connector-curvature="0"
         id="path1175"
         d="m 280.61531,185.15701 c -0.20061,-1.26035 -1.51653,-3.51156 -3.46115,-5.7062 l -0.95882,1.56686 c 0,0 2.78294,4.2095 4.41997,4.13934 z"
         style="fill:#ffffff;fill-opacity:1;stroke:none;stroke-width:0.26458332px;stroke-linecap:butt;stroke-linejoin:miter;stroke-opacity:1" />
      <path
         sodipodi:nodetypes="cccc"
         inkscape:connector-curvature="0"
         id="path1177"
         d="m 280.44994,183.97776 c -0.1961,-1.10465 -1.48247,-3.07774 -3.38345,-5.00125 l -0.93729,1.37329 c 0,0 2.72047,3.68945 4.32074,3.62796 z"
         style="fill:#3d0d00;fill-opacity:1;stroke:none;stroke-width:0.24490525px;stroke-linecap:butt;stroke-linejoin:miter;stroke-opacity:1" />
      <path
         style="fill:#ffcfc5;fill-opacity:1;stroke:none;stroke-width:0.26458332px;stroke-linecap:butt;stroke-linejoin:miter;stroke-opacity:1"
         d="m 271.37291,174.09128 c 3.32528,3.93014 6.5389,7.96037 10.08943,11.69304 1.74545,0.36747 2.42949,2.38628 2.83341,3.8977 0.0575,2.82084 -2.06308,5.01146 -3.64492,7.13926 -1.75225,2.37414 -4.71328,3.52307 -7.61307,3.41038 -4.56944,-0.13851 -8.93131,-1.91498 -12.89017,-4.09064 -1.11362,-4.23177 -2.22725,-8.46354 -3.34087,-12.69531 1.35862,-2.8286 2.71724,-5.6572 4.07586,-8.4858 3.53016,0.0332 6.99886,-0.41605 10.49033,-0.86863 z"
         id="path1179"
         inkscape:connector-curvature="0" />
      <path
         style="fill:#ffcfc5;fill-opacity:1;stroke:none;stroke-width:0.26458332px;stroke-linecap:butt;stroke-linejoin:miter;stroke-opacity:1"
         d="m 259.98055,192.46606 c -1.16325,-0.49833 -2.3252,-1.07316 -3.57921,-1.28906 -0.5245,0.0838 -0.63086,0.69805 -0.9087,1.06033 -0.56328,0.95572 -0.93549,2.2279 -0.35143,3.25913 0.72758,1.34696 1.42057,3.55966 4.31522,2.89714 0.54739,-0.0966 0.6362,-0.75467 0.79338,-1.18757 0.31319,-0.94967 0.68706,-1.87781 1.06706,-2.80229"
         id="path1181"
         inkscape:connector-curvature="0"
         sodipodi:nodetypes="ccccccc" />
      <path
         style="fill:#ffada4;fill-opacity:1;stroke:none;stroke-width:0.26458332px;stroke-linecap:butt;stroke-linejoin:miter;stroke-opacity:1"
         d="m 278.70581,182.7729 c 0,0 0.56696,3.87426 2.92932,3.02381 2.36235,-0.85044 1.55915,-2.59858 -0.23624,-2.12611 -1.79539,0.47247 -2.69308,-0.8977 -2.69308,-0.8977 z"
         id="path1183"
         inkscape:connector-curvature="0" />
      <ellipse
         style="opacity:1;fill:#ffada4;fill-opacity:1;stroke:none;stroke-width:1.99212122;stroke-miterlimit:4;stroke-dasharray:none;stroke-opacity:1"
         id="ellipse1185"
         cx="222.02742"
         cy="247.45215"
         rx="2.5390604"
         ry="1.2695302"
         transform="rotate(-13.240521)" />
      <path
         style="fill:#0ca8b9;fill-opacity:1;stroke:none;stroke-width:0.26458332px;stroke-linecap:butt;stroke-linejoin:miter;stroke-opacity:1"
         d="m 275.61269,184.93833 c 0,0 0.21655,-1.94356 -0.9163,-1.75039 -1.51765,0.35142 0.48343,2.30161 0.9163,1.75039 z"
         id="path1187"
         inkscape:connector-curvature="0"
         sodipodi:nodetypes="ccc" />
      <g
         id="g1193"
         transform="matrix(0.82509519,0,0,1,47.891782,0)">
        <path
           sodipodi:nodetypes="cccccccccc"
           inkscape:connector-curvature="0"
           id="path1189"
           d="m 271.67141,171.00152 c -2.05965,-1.74009 -4.38869,-0.27301 -6.58698,0.10247 -2.61549,0.66129 -4.34923,-2.51254 -6.9033,-1.6314 -2.21019,1.53659 -4.32757,3.88017 -7.42178,2.96347 -2.72005,-0.83725 -5.95481,-0.90553 -8.03848,1.37135 -0.93111,0.85717 -4.13813,3.74559 -1.61405,1.47124 2.22851,-2.20179 5.59476,-2.87287 8.43801,-1.53325 2.69701,0.83231 5.79267,0.85165 8.24143,-0.70158 2.56244,-1.65326 5.4959,0.0194 8.19441,0.34089 5.98127,5.97961 10.59149,-0.71683 5.69074,-2.38319 z"
           style="fill:#3d3d3d;fill-opacity:1;stroke:none;stroke-width:0.26458332px;stroke-linecap:butt;stroke-linejoin:miter;stroke-opacity:1" />
        <path
           inkscape:connector-curvature="0"
           id="path1191"
           d="m 260.53636,169.65586 c 1.43324,0.82266 1.29583,0.55156 0,0 z m 9.9503,0.68574 c 1.85784,0.40905 3.20419,2.92506 1.41542,4.27885 -0.9838,1.32015 -5.42732,0.0113 -2.24049,1.0871 2.13256,0.93686 5.45096,-1.4864 3.62635,-3.65747 -0.75683,-0.78693 -1.78973,-1.32094 -2.80128,-1.70848 z m -11.1864,1.48622 c -2.42661,0.0714 -4.27369,2.24464 -6.79829,1.98979 -2.64578,0.3316 -5.00145,-1.54149 -7.59399,-1.21186 -1.68356,0.0923 -4.00836,3.27162 -4.18043,3.09625 2.3124,-2.59417 6.29909,-3.3453 9.40366,-1.79319 2.79124,0.84546 5.97362,0.46165 8.40197,-1.18622 2.0008,-1.11701 5.67192,0.58784 6.65396,0.43835 -1.85028,-0.78835 -3.90454,-1.1051 -5.88688,-1.33315 z"
           style="fill:#00a7b9;fill-opacity:1;stroke:none;stroke-width:0.26458332px;stroke-linecap:butt;stroke-linejoin:miter;stroke-opacity:1" />
      </g>
      <g
         transform="matrix(1.1100523,0,0,1,-33.56301,1.5518533)"
         id="g1199">
        <path
           style="fill:#3d3d3d;fill-opacity:1;stroke:none;stroke-width:0.26458332px;stroke-linecap:butt;stroke-linejoin:miter;stroke-opacity:1"
           d="m 271.67141,171.00152 c -2.05965,-1.74009 -4.38869,-0.27301 -6.58698,0.10247 -2.61549,0.66129 -4.34923,-2.51254 -6.9033,-1.6314 -2.21019,1.53659 -4.32757,3.88017 -7.42178,2.96347 -2.72005,-0.83725 -5.95481,-0.90553 -8.03848,1.37135 -0.93111,0.85717 -4.13813,3.74559 -1.61405,1.47124 2.22851,-2.20179 5.59476,-2.87287 8.43801,-1.53325 2.69701,0.83231 5.79267,0.85165 8.24143,-0.70158 2.56244,-1.65326 5.4959,0.0194 8.19441,0.34089 5.98127,5.97961 10.59149,-0.71683 5.69074,-2.38319 z"
           id="path1195"
           inkscape:connector-curvature="0"
           sodipodi:nodetypes="cccccccccc" />
        <path
           style="fill:#00a7b9;fill-opacity:1;stroke:none;stroke-width:0.26458332px;stroke-linecap:butt;stroke-linejoin:miter;stroke-opacity:1"
           d="m 260.53636,169.65586 c 1.43324,0.82266 1.29583,0.55156 0,0 z m 9.9503,0.68574 c 1.85784,0.40905 3.20419,2.92506 1.41542,4.27885 -0.9838,1.32015 -5.42732,0.0113 -2.24049,1.0871 2.13256,0.93686 5.45096,-1.4864 3.62635,-3.65747 -0.75683,-0.78693 -1.78973,-1.32094 -2.80128,-1.70848 z m -11.1864,1.48622 c -2.42661,0.0714 -4.27369,2.24464 -6.79829,1.98979 -2.64578,0.3316 -5.00145,-1.54149 -7.59399,-1.21186 -1.68356,0.0923 -4.00836,3.27162 -4.18043,3.09625 2.3124,-2.59417 6.29909,-3.3453 9.40366,-1.79319 2.79124,0.84546 5.97362,0.46165 8.40197,-1.18622 2.0008,-1.11701 5.67192,0.58784 6.65396,0.43835 -1.85028,-0.78835 -3.90454,-1.1051 -5.88688,-1.33315 z"
           id="path1197"
           inkscape:connector-curvature="0" />
      </g>
      <g
         transform="matrix(0.82509519,0,0,1,35.330801,11.72236)"
         id="g1205">
        <path
           style="fill:#3d3d3d;fill-opacity:1;stroke:none;stroke-width:0.26458332px;stroke-linecap:butt;stroke-linejoin:miter;stroke-opacity:1"
           d="m 271.67141,171.00152 c -2.05965,-1.74009 -4.38869,-0.27301 -6.58698,0.10247 -2.61549,0.66129 -4.34923,-2.51254 -6.9033,-1.6314 -2.21019,1.53659 -4.32757,3.88017 -7.42178,2.96347 -2.72005,-0.83725 -5.95481,-0.90553 -8.03848,1.37135 -0.93111,0.85717 -4.13813,3.74559 -1.61405,1.47124 2.22851,-2.20179 5.59476,-2.87287 8.43801,-1.53325 2.69701,0.83231 5.79267,0.85165 8.24143,-0.70158 2.56244,-1.65326 5.4959,0.0194 8.19441,0.34089 5.98127,5.97961 10.59149,-0.71683 5.69074,-2.38319 z"
           id="path1201"
           inkscape:connector-curvature="0"
           sodipodi:nodetypes="cccccccccc" />
        <path
           style="fill:#00a7b9;fill-opacity:1;stroke:none;stroke-width:0.26458332px;stroke-linecap:butt;stroke-linejoin:miter;stroke-opacity:1"
           d="m 260.53636,169.65586 c 1.43324,0.82266 1.29583,0.55156 0,0 z m 9.9503,0.68574 c 1.85784,0.40905 3.20419,2.92506 1.41542,4.27885 -0.9838,1.32015 -5.42732,0.0113 -2.24049,1.0871 2.13256,0.93686 5.45096,-1.4864 3.62635,-3.65747 -0.75683,-0.78693 -1.78973,-1.32094 -2.80128,-1.70848 z m -11.1864,1.48622 c -2.42661,0.0714 -4.27369,2.24464 -6.79829,1.98979 -2.64578,0.3316 -5.00145,-1.54149 -7.59399,-1.21186 -1.68356,0.0923 -4.00836,3.27162 -4.18043,3.09625 2.3124,-2.59417 6.29909,-3.3453 9.40366,-1.79319 2.79124,0.84546 5.97362,0.46165 8.40197,-1.18622 2.0008,-1.11701 5.67192,0.58784 6.65396,0.43835 -1.85028,-0.78835 -3.90454,-1.1051 -5.88688,-1.33315 z"
           id="path1203"
           inkscape:connector-curvature="0" />
      </g>
      <g
         id="g1211"
         transform="matrix(0.70145521,-0.32267012,-0.19197353,-0.9568203,101.45976,442.24498)">
        <path
           sodipodi:nodetypes="cccccccccc"
           inkscape:connector-curvature="0"
           id="path1207"
           d="m 271.67141,171.00152 c -2.05965,-1.74009 -4.38869,-0.27301 -6.58698,0.10247 -2.61549,0.66129 -4.34923,-2.51254 -6.9033,-1.6314 -2.21019,1.53659 -4.32757,3.88017 -7.42178,2.96347 -2.72005,-0.83725 -5.95481,-0.90553 -8.03848,1.37135 -0.93111,0.85717 -4.13813,3.74559 -1.61405,1.47124 2.22851,-2.20179 5.59476,-2.87287 8.43801,-1.53325 2.69701,0.83231 5.79267,0.85165 8.24143,-0.70158 2.56244,-1.65326 5.4959,0.0194 8.19441,0.34089 5.98127,5.97961 10.59149,-0.71683 5.69074,-2.38319 z"
           style="fill:#3d3d3d;fill-opacity:1;stroke:none;stroke-width:0.26458332px;stroke-linecap:butt;stroke-linejoin:miter;stroke-opacity:1" />
        <path
           inkscape:connector-curvature="0"
           id="path1209"
           d="m 260.53636,169.65586 c 1.43324,0.82266 1.29583,0.55156 0,0 z m 9.9503,0.68574 c 1.85784,0.40905 3.20419,2.92506 1.41542,4.27885 -0.9838,1.32015 -5.42732,0.0113 -2.24049,1.0871 2.13256,0.93686 5.45096,-1.4864 3.62635,-3.65747 -0.75683,-0.78693 -1.78973,-1.32094 -2.80128,-1.70848 z m -11.1864,1.48622 c -2.42661,0.0714 -4.27369,2.24464 -6.79829,1.98979 -2.64578,0.3316 -5.00145,-1.54149 -7.59399,-1.21186 -1.68356,0.0923 -4.00836,3.27162 -4.18043,3.09625 2.3124,-2.59417 6.29909,-3.3453 9.40366,-1.79319 2.79124,0.84546 5.97362,0.46165 8.40197,-1.18622 2.0008,-1.11701 5.67192,0.58784 6.65396,0.43835 -1.85028,-0.78835 -3.90454,-1.1051 -5.88688,-1.33315 z"
           style="fill:#00a7b9;fill-opacity:1;stroke:none;stroke-width:0.26458332px;stroke-linecap:butt;stroke-linejoin:miter;stroke-opacity:1" />
      </g>
      <g
         transform="matrix(0.70145521,-0.32267012,-0.19197353,-0.9568203,107.04576,431.15054)"
         id="g1217">
        <path
           style="fill:#3d3d3d;fill-opacity:1;stroke:none;stroke-width:0.26458332px;stroke-linecap:butt;stroke-linejoin:miter;stroke-opacity:1"
           d="m 271.67141,171.00152 c -2.05965,-1.74009 -4.38869,-0.27301 -6.58698,0.10247 -2.61549,0.66129 -4.34923,-2.51254 -6.9033,-1.6314 -2.21019,1.53659 -4.32757,3.88017 -7.42178,2.96347 -2.72005,-0.83725 -5.95481,-0.90553 -8.03848,1.37135 -0.93111,0.85717 -4.13813,3.74559 -1.61405,1.47124 2.22851,-2.20179 5.59476,-2.87287 8.43801,-1.53325 2.69701,0.83231 5.79267,0.85165 8.24143,-0.70158 2.56244,-1.65326 5.4959,0.0194 8.19441,0.34089 5.98127,5.97961 10.59149,-0.71683 5.69074,-2.38319 z"
           id="path1213"
           inkscape:connector-curvature="0"
           sodipodi:nodetypes="cccccccccc" />
        <path
           style="fill:#00a7b9;fill-opacity:1;stroke:none;stroke-width:0.26458332px;stroke-linecap:butt;stroke-linejoin:miter;stroke-opacity:1"
           d="m 260.53636,169.65586 c 1.43324,0.82266 1.29583,0.55156 0,0 z m 9.9503,0.68574 c 1.85784,0.40905 3.20419,2.92506 1.41542,4.27885 -0.9838,1.32015 -5.42732,0.0113 -2.24049,1.0871 2.13256,0.93686 5.45096,-1.4864 3.62635,-3.65747 -0.75683,-0.78693 -1.78973,-1.32094 -2.80128,-1.70848 z m -11.1864,1.48622 c -2.42661,0.0714 -4.27369,2.24464 -6.79829,1.98979 -2.64578,0.3316 -5.00145,-1.54149 -7.59399,-1.21186 -1.68356,0.0923 -4.00836,3.27162 -4.18043,3.09625 2.3124,-2.59417 6.29909,-3.3453 9.40366,-1.79319 2.79124,0.84546 5.97362,0.46165 8.40197,-1.18622 2.0008,-1.11701 5.67192,0.58784 6.65396,0.43835 -1.85028,-0.78835 -3.90454,-1.1051 -5.88688,-1.33315 z"
           id="path1215"
           inkscape:connector-curvature="0" />
      </g>
      <g
         id="g1223"
         transform="matrix(0.70145521,-0.32267012,-0.19197353,-0.9568203,104.06547,434.71632)">
        <path
           sodipodi:nodetypes="cccccccccc"
           inkscape:connector-curvature="0"
           id="path1219"
           d="m 271.67141,171.00152 c -2.05965,-1.74009 -4.38869,-0.27301 -6.58698,0.10247 -2.61549,0.66129 -4.34923,-2.51254 -6.9033,-1.6314 -2.21019,1.53659 -4.32757,3.88017 -7.42178,2.96347 -2.72005,-0.83725 -5.95481,-0.90553 -8.03848,1.37135 -0.93111,0.85717 -4.13813,3.74559 -1.61405,1.47124 2.22851,-2.20179 5.59476,-2.87287 8.43801,-1.53325 2.69701,0.83231 5.79267,0.85165 8.24143,-0.70158 2.56244,-1.65326 5.4959,0.0194 8.19441,0.34089 5.98127,5.97961 10.59149,-0.71683 5.69074,-2.38319 z"
           style="fill:#3d3d3d;fill-opacity:1;stroke:none;stroke-width:0.26458332px;stroke-linecap:butt;stroke-linejoin:miter;stroke-opacity:1" />
        <path
           inkscape:connector-curvature="0"
           id="path1221"
           d="m 260.53636,169.65586 c 1.43324,0.82266 1.29583,0.55156 0,0 z m 9.9503,0.68574 c 1.85784,0.40905 3.20419,2.92506 1.41542,4.27885 -0.9838,1.32015 -5.42732,0.0113 -2.24049,1.0871 2.13256,0.93686 5.45096,-1.4864 3.62635,-3.65747 -0.75683,-0.78693 -1.78973,-1.32094 -2.80128,-1.70848 z m -11.1864,1.48622 c -2.42661,0.0714 -4.27369,2.24464 -6.79829,1.98979 -2.64578,0.3316 -5.00145,-1.54149 -7.59399,-1.21186 -1.68356,0.0923 -4.00836,3.27162 -4.18043,3.09625 2.3124,-2.59417 6.29909,-3.3453 9.40366,-1.79319 2.79124,0.84546 5.97362,0.46165 8.40197,-1.18622 2.0008,-1.11701 5.67192,0.58784 6.65396,0.43835 -1.85028,-0.78835 -3.90454,-1.1051 -5.88688,-1.33315 z"
           style="fill:#00a7b9;fill-opacity:1;stroke:none;stroke-width:0.26458332px;stroke-linecap:butt;stroke-linejoin:miter;stroke-opacity:1" />
      </g>
      <g
         id="g1291"
         transform="matrix(1.1100523,0,0,1,-43.211968,3.6328433)">
        <g
           transform="matrix(1,0,0,-0.7874982,-1.0601309,324.70342)"
           id="g1243">
          <path
             sodipodi:nodetypes="cccccccccc"
             inkscape:connector-curvature="0"
             id="path1225"
             d="m 271.00679,173.24551 c -1.00695,-1.74009 -2.14559,-0.27301 -3.22032,0.10247 -1.2787,0.66129 -2.1263,-2.51254 -3.37496,-1.6314 -1.08055,1.53659 -2.11571,3.88017 -3.62844,2.96347 -1.32982,-0.83725 -2.91125,-0.90553 -3.92995,1.37135 -0.45521,0.85717 -2.02309,3.74559 -0.78909,1.47124 1.0895,-2.20179 2.73523,-2.87287 4.12527,-1.53325 1.31854,0.83231 2.83198,0.85165 4.02915,-0.70158 1.25276,-1.65326 2.68691,0.0194 4.00618,0.34089 2.92419,5.97961 5.17809,-0.71683 2.78216,-2.38319 z"
             style="fill:#3d3d3d;fill-opacity:1;stroke:none;stroke-width:0.18499862px;stroke-linecap:butt;stroke-linejoin:miter;stroke-opacity:1" />
          <path
             style="fill:#3d3d3d;fill-opacity:1;stroke:none;stroke-width:0.18499862px;stroke-linecap:butt;stroke-linejoin:miter;stroke-opacity:1"
             d="m 269.09999,174.83302 c -1.00695,-1.74009 -2.14559,-0.27301 -3.22032,0.10247 -1.2787,0.66129 -2.1263,-2.51254 -3.37496,-1.6314 -1.08055,1.53659 -2.11571,3.88017 -3.62844,2.96347 -1.32982,-0.83725 -2.91125,-0.90553 -3.92995,1.37135 -0.45521,0.85717 -2.02309,3.74559 -0.78909,1.47124 1.0895,-2.20179 2.73523,-2.87287 4.12527,-1.53325 1.31854,0.83231 2.83198,0.85165 4.02915,-0.70158 1.25276,-1.65326 2.68691,0.0194 4.00618,0.34089 2.92419,5.97961 5.17809,-0.71683 2.78216,-2.38319 z"
             id="path1227"
             inkscape:connector-curvature="0"
             sodipodi:nodetypes="cccccccccc" />
          <path
             sodipodi:nodetypes="cccccccccc"
             inkscape:connector-curvature="0"
             id="path1229"
             d="m 267.19319,175.36219 c -1.00695,-1.74009 -2.14559,-0.27301 -3.22032,0.10247 -1.2787,0.66129 -2.1263,-2.51254 -3.37496,-1.6314 -1.08055,1.53659 -2.11571,3.88017 -3.62844,2.96347 -1.32982,-0.83725 -2.91125,-0.90553 -3.92995,1.37135 -0.45521,0.85717 -2.02309,3.74559 -0.78909,1.47124 1.0895,-2.20179 2.73523,-2.87287 4.12527,-1.53325 1.31854,0.83231 2.83198,0.85165 4.02915,-0.70158 1.25276,-1.65326 2.68691,0.0194 4.00618,0.34089 2.92419,5.97961 5.17809,-0.71683 2.78216,-2.38319 z"
             style="fill:#3d3d3d;fill-opacity:1;stroke:none;stroke-width:0.18499862px;stroke-linecap:butt;stroke-linejoin:miter;stroke-opacity:1" />
          <path
             style="fill:#3d3d3d;fill-opacity:1;stroke:none;stroke-width:0.18499862px;stroke-linecap:butt;stroke-linejoin:miter;stroke-opacity:1"
             d="m 265.28639,175.36219 c -1.00695,-1.74009 -2.14559,-0.27301 -3.22032,0.10247 -1.2787,0.66129 -2.1263,-2.51254 -3.37496,-1.6314 -1.08055,1.53659 -2.11571,3.88017 -3.62844,2.96347 -1.32982,-0.83725 -2.91125,-0.90553 -3.92995,1.37135 -0.45521,0.85717 -2.02309,3.74559 -0.78909,1.47124 1.0895,-2.20179 2.73523,-2.87287 4.12527,-1.53325 1.31854,0.83231 2.83198,0.85165 4.02915,-0.70158 1.25276,-1.65326 2.68691,0.0194 4.00618,0.34089 2.92419,5.97961 5.17809,-0.71683 2.78216,-2.38319 z"
             id="path1231"
             inkscape:connector-curvature="0"
             sodipodi:nodetypes="cccccccccc" />
          <path
             sodipodi:nodetypes="cccccccccc"
             inkscape:connector-curvature="0"
             id="path1233"
             d="m 268.14659,171.658 c -1.00695,-1.74009 -2.14559,-0.27301 -3.22032,0.10247 -1.2787,0.66129 -2.1263,-2.51254 -3.37496,-1.6314 -1.08055,1.53659 -2.11571,3.88017 -3.62844,2.96347 -1.32982,-0.83725 -2.91125,-0.90553 -3.92995,1.37135 -0.45521,0.85717 -2.02309,3.74559 -0.78909,1.47124 1.0895,-2.20179 2.73523,-2.87287 4.12527,-1.53325 1.31854,0.83231 2.83198,0.85165 4.02915,-0.70158 1.25276,-1.65326 2.68691,0.0194 4.00618,0.34089 2.92419,5.97961 5.17809,-0.71683 2.78216,-2.38319 z"
             style="fill:#3d3d3d;fill-opacity:1;stroke:none;stroke-width:0.18499862px;stroke-linecap:butt;stroke-linejoin:miter;stroke-opacity:1" />
          <path
             style="fill:#3d3d3d;fill-opacity:1;stroke:none;stroke-width:0.18499862px;stroke-linecap:butt;stroke-linejoin:miter;stroke-opacity:1"
             d="m 268.14659,180.12472 c -1.00695,-1.74009 -2.14559,-0.27301 -3.22032,0.10247 -1.2787,0.66129 -2.1263,-2.51254 -3.37496,-1.6314 -1.08055,1.53659 -2.11571,3.88017 -3.62844,2.96347 -1.32982,-0.83725 -2.91125,-0.90553 -3.92995,1.37135 -0.45521,0.85717 -2.02309,3.74559 -0.78909,1.47124 1.0895,-2.20179 2.73523,-2.87287 4.12527,-1.53325 1.31854,0.83231 2.83198,0.85165 4.02915,-0.70158 1.25276,-1.65326 2.68691,0.0194 4.00618,0.34089 2.92419,5.97961 5.17809,-0.71683 2.78216,-2.38319 z"
             id="path1235"
             inkscape:connector-curvature="0"
             sodipodi:nodetypes="cccccccccc" />
          <path
             sodipodi:nodetypes="cccccccccc"
             inkscape:connector-curvature="0"
             id="path1237"
             d="m 268.14659,181.71223 c -1.00695,-1.74009 -2.14559,-0.27301 -3.22032,0.10247 -1.2787,0.66129 -2.1263,-2.51254 -3.37496,-1.6314 -1.08055,1.53659 -2.11571,3.88017 -3.62844,2.96347 -1.32982,-0.83725 -2.91125,-0.90553 -3.92995,1.37135 -0.45521,0.85717 -2.02309,3.74559 -0.78909,1.47124 1.0895,-2.20179 2.73523,-2.87287 4.12527,-1.53325 1.31854,0.83231 2.83198,0.85165 4.02915,-0.70158 1.25276,-1.65326 2.68691,0.0194 4.00618,0.34089 2.92419,5.97961 5.17809,-0.71683 2.78216,-2.38319 z"
             style="fill:#3d3d3d;fill-opacity:1;stroke:none;stroke-width:0.18499862px;stroke-linecap:butt;stroke-linejoin:miter;stroke-opacity:1" />
          <path
             style="fill:#3d3d3d;fill-opacity:1;stroke:none;stroke-width:0.16132225px;stroke-linecap:butt;stroke-linejoin:miter;stroke-opacity:1"
             d="m 267.99169,184.3691 c -0.76571,-1.74009 -1.63155,-0.27301 -2.44879,0.10247 -0.97234,0.66129 -1.61687,-2.51254 -2.56637,-1.6314 -0.82167,1.53659 -1.60883,3.88017 -2.75913,2.96347 -1.01122,-0.83725 -2.21376,-0.90553 -2.9884,1.37135 -0.34615,0.85717 -1.53839,3.74559 -0.60004,1.47124 0.82848,-2.20179 2.07992,-2.87287 3.13693,-1.53325 1.00264,0.83231 2.15348,0.85165 3.06383,-0.70158 0.95262,-1.65326 2.04317,0.0194 3.04637,0.34089 2.2236,5.97961 3.9375,-0.71683 2.1156,-2.38319 z"
             id="path1239"
             inkscape:connector-curvature="0"
             sodipodi:nodetypes="cccccccccc" />
          <path
             sodipodi:nodetypes="cccccccccc"
             inkscape:connector-curvature="0"
             id="path1241"
             d="m 268.14659,187.5331 c -1.00695,-1.74009 -2.14559,-0.27301 -3.22032,0.10247 -1.2787,0.66129 -2.1263,-2.51254 -3.37496,-1.6314 -1.08055,1.53659 -2.11571,3.88017 -3.62844,2.96347 -1.32982,-0.83725 -2.91125,-0.90553 -3.92995,1.37135 -0.45521,0.85717 -2.02309,3.74559 -0.78909,1.47124 1.0895,-2.20179 2.73523,-2.87287 4.12527,-1.53325 1.31854,0.83231 2.83198,0.85165 4.02915,-0.70158 1.25276,-1.65326 2.68691,0.0194 4.00618,0.34089 2.92419,5.97961 5.17809,-0.71683 2.78216,-2.38319 z"
             style="fill:#3d3d3d;fill-opacity:1;stroke:none;stroke-width:0.18499862px;stroke-linecap:butt;stroke-linejoin:miter;stroke-opacity:1" />
        </g>
        <g
           id="g1267"
           transform="matrix(1,0,0,0.7874982,1.883216,36.2735)">
          <path
             style="fill:#3d3d3d;fill-opacity:1;stroke:none;stroke-width:0.18499862px;stroke-linecap:butt;stroke-linejoin:miter;stroke-opacity:1"
             d="m 274.82039,172.18717 c -1.00695,-1.74009 -2.14559,-0.27301 -3.22032,0.10247 -1.2787,0.66129 -2.1263,-2.51254 -3.37496,-1.6314 -1.08055,1.53659 -2.11571,3.88017 -3.62844,2.96347 -1.32982,-0.83725 -2.91125,-0.90553 -3.92995,1.37135 -0.45521,0.85717 -2.02309,3.74559 -0.78909,1.47124 1.0895,-2.20179 2.73523,-2.87287 4.12527,-1.53325 1.31854,0.83231 2.83198,0.85165 4.02915,-0.70158 1.25276,-1.65326 2.68691,0.0194 4.00618,0.34089 2.92419,5.97961 5.17809,-0.71683 2.78216,-2.38319 z"
             id="path1245"
             inkscape:connector-curvature="0"
             sodipodi:nodetypes="cccccccccc" />
          <path
             sodipodi:nodetypes="cccccccccc"
             inkscape:connector-curvature="0"
             id="path1247"
             d="m 271.96019,170.07049 c -1.00695,-1.74009 -2.14559,-0.27301 -3.22032,0.10247 -1.2787,0.66129 -2.1263,-2.51254 -3.37496,-1.6314 -1.08055,1.53659 -2.11571,3.88017 -3.62844,2.96347 -1.32982,-0.83725 -2.91125,-0.90553 -3.92995,1.37135 -0.45521,0.85717 -2.02309,3.74559 -0.78909,1.47124 1.0895,-2.20179 2.73523,-2.87287 4.12527,-1.53325 1.31854,0.83231 2.83198,0.85165 4.02915,-0.70158 1.25276,-1.65326 2.68691,0.0194 4.00618,0.34089 2.92419,5.97961 5.17809,-0.71683 2.78216,-2.38319 z"
             style="fill:#3d3d3d;fill-opacity:1;stroke:none;stroke-width:0.18499862px;stroke-linecap:butt;stroke-linejoin:miter;stroke-opacity:1" />
          <path
             style="fill:#3d3d3d;fill-opacity:1;stroke:none;stroke-width:0.18499862px;stroke-linecap:butt;stroke-linejoin:miter;stroke-opacity:1"
             d="m 271.00679,173.24551 c -1.00695,-1.74009 -2.14559,-0.27301 -3.22032,0.10247 -1.2787,0.66129 -2.1263,-2.51254 -3.37496,-1.6314 -1.08055,1.53659 -2.11571,3.88017 -3.62844,2.96347 -1.32982,-0.83725 -2.91125,-0.90553 -3.92995,1.37135 -0.45521,0.85717 -2.02309,3.74559 -0.78909,1.47124 1.0895,-2.20179 2.73523,-2.87287 4.12527,-1.53325 1.31854,0.83231 2.83198,0.85165 4.02915,-0.70158 1.25276,-1.65326 2.68691,0.0194 4.00618,0.34089 2.92419,5.97961 5.17809,-0.71683 2.78216,-2.38319 z"
             id="path1249"
             inkscape:connector-curvature="0"
             sodipodi:nodetypes="cccccccccc" />
          <path
             sodipodi:nodetypes="cccccccccc"
             inkscape:connector-curvature="0"
             id="path1251"
             d="m 269.09999,174.83302 c -1.00695,-1.74009 -2.14559,-0.27301 -3.22032,0.10247 -1.2787,0.66129 -2.1263,-2.51254 -3.37496,-1.6314 -1.08055,1.53659 -2.11571,3.88017 -3.62844,2.96347 -1.32982,-0.83725 -2.91125,-0.90553 -3.92995,1.37135 -0.45521,0.85717 -2.02309,3.74559 -0.78909,1.47124 1.0895,-2.20179 2.73523,-2.87287 4.12527,-1.53325 1.31854,0.83231 2.83198,0.85165 4.02915,-0.70158 1.25276,-1.65326 2.68691,0.0194 4.00618,0.34089 2.92419,5.97961 5.17809,-0.71683 2.78216,-2.38319 z"
             style="fill:#3d3d3d;fill-opacity:1;stroke:none;stroke-width:0.18499862px;stroke-linecap:butt;stroke-linejoin:miter;stroke-opacity:1" />
          <path
             style="fill:#3d3d3d;fill-opacity:1;stroke:none;stroke-width:0.18499862px;stroke-linecap:butt;stroke-linejoin:miter;stroke-opacity:1"
             d="m 267.19319,175.36219 c -1.00695,-1.74009 -2.14559,-0.27301 -3.22032,0.10247 -1.2787,0.66129 -2.1263,-2.51254 -3.37496,-1.6314 -1.08055,1.53659 -2.11571,3.88017 -3.62844,2.96347 -1.32982,-0.83725 -2.91125,-0.90553 -3.92995,1.37135 -0.45521,0.85717 -2.02309,3.74559 -0.78909,1.47124 1.0895,-2.20179 2.73523,-2.87287 4.12527,-1.53325 1.31854,0.83231 2.83198,0.85165 4.02915,-0.70158 1.25276,-1.65326 2.68691,0.0194 4.00618,0.34089 2.92419,5.97961 5.17809,-0.71683 2.78216,-2.38319 z"
             id="path1253"
             inkscape:connector-curvature="0"
             sodipodi:nodetypes="cccccccccc" />
          <path
             sodipodi:nodetypes="cccccccccc"
             inkscape:connector-curvature="0"
             id="path1255"
             d="m 265.28639,175.36219 c -1.00695,-1.74009 -2.14559,-0.27301 -3.22032,0.10247 -1.2787,0.66129 -2.1263,-2.51254 -3.37496,-1.6314 -1.08055,1.53659 -2.11571,3.88017 -3.62844,2.96347 -1.32982,-0.83725 -2.91125,-0.90553 -3.92995,1.37135 -0.45521,0.85717 -2.02309,3.74559 -0.78909,1.47124 1.0895,-2.20179 2.73523,-2.87287 4.12527,-1.53325 1.31854,0.83231 2.83198,0.85165 4.02915,-0.70158 1.25276,-1.65326 2.68691,0.0194 4.00618,0.34089 2.92419,5.97961 5.17809,-0.71683 2.78216,-2.38319 z"
             style="fill:#3d3d3d;fill-opacity:1;stroke:none;stroke-width:0.18499862px;stroke-linecap:butt;stroke-linejoin:miter;stroke-opacity:1" />
          <path
             style="fill:#3d3d3d;fill-opacity:1;stroke:none;stroke-width:0.18499862px;stroke-linecap:butt;stroke-linejoin:miter;stroke-opacity:1"
             d="m 268.14659,171.658 c -1.00695,-1.74009 -2.14559,-0.27301 -3.22032,0.10247 -1.2787,0.66129 -2.1263,-2.51254 -3.37496,-1.6314 -1.08055,1.53659 -2.11571,3.88017 -3.62844,2.96347 -1.32982,-0.83725 -2.91125,-0.90553 -3.92995,1.37135 -0.45521,0.85717 -2.02309,3.74559 -0.78909,1.47124 1.0895,-2.20179 2.73523,-2.87287 4.12527,-1.53325 1.31854,0.83231 2.83198,0.85165 4.02915,-0.70158 1.25276,-1.65326 2.68691,0.0194 4.00618,0.34089 2.92419,5.97961 5.17809,-0.71683 2.78216,-2.38319 z"
             id="path1257"
             inkscape:connector-curvature="0"
             sodipodi:nodetypes="cccccccccc" />
          <path
             sodipodi:nodetypes="cccccccccc"
             inkscape:connector-curvature="0"
             id="path1259"
             d="m 268.14659,180.12472 c -1.00695,-1.74009 -2.14559,-0.27301 -3.22032,0.10247 -1.2787,0.66129 -2.1263,-2.51254 -3.37496,-1.6314 -1.08055,1.53659 -2.11571,3.88017 -3.62844,2.96347 -1.32982,-0.83725 -2.91125,-0.90553 -3.92995,1.37135 -0.45521,0.85717 -2.02309,3.74559 -0.78909,1.47124 1.0895,-2.20179 2.73523,-2.87287 4.12527,-1.53325 1.31854,0.83231 2.83198,0.85165 4.02915,-0.70158 1.25276,-1.65326 2.68691,0.0194 4.00618,0.34089 2.92419,5.97961 5.17809,-0.71683 2.78216,-2.38319 z"
             style="fill:#3d3d3d;fill-opacity:1;stroke:none;stroke-width:0.18499862px;stroke-linecap:butt;stroke-linejoin:miter;stroke-opacity:1" />
          <path
             style="fill:#3d3d3d;fill-opacity:1;stroke:none;stroke-width:0.18499862px;stroke-linecap:butt;stroke-linejoin:miter;stroke-opacity:1"
             d="m 268.14659,181.71223 c -1.00695,-1.74009 -2.14559,-0.27301 -3.22032,0.10247 -1.2787,0.66129 -2.1263,-2.51254 -3.37496,-1.6314 -1.08055,1.53659 -2.11571,3.88017 -3.62844,2.96347 -1.32982,-0.83725 -2.91125,-0.90553 -3.92995,1.37135 -0.45521,0.85717 -2.02309,3.74559 -0.78909,1.47124 1.0895,-2.20179 2.73523,-2.87287 4.12527,-1.53325 1.31854,0.83231 2.83198,0.85165 4.02915,-0.70158 1.25276,-1.65326 2.68691,0.0194 4.00618,0.34089 2.92419,5.97961 5.17809,-0.71683 2.78216,-2.38319 z"
             id="path1261"
             inkscape:connector-curvature="0"
             sodipodi:nodetypes="cccccccccc" />
          <path
             sodipodi:nodetypes="cccccccccc"
             inkscape:connector-curvature="0"
             id="path1263"
             d="m 267.99169,184.3691 c -0.76571,-1.74009 -1.63155,-0.27301 -2.44879,0.10247 -0.97234,0.66129 -1.61687,-2.51254 -2.56637,-1.6314 -0.82167,1.53659 -1.60883,3.88017 -2.75913,2.96347 -1.01122,-0.83725 -2.21376,-0.90553 -2.9884,1.37135 -0.34615,0.85717 -1.53839,3.74559 -0.60004,1.47124 0.82848,-2.20179 2.07992,-2.87287 3.13693,-1.53325 1.00264,0.83231 2.15348,0.85165 3.06383,-0.70158 0.95262,-1.65326 2.04317,0.0194 3.04637,0.34089 2.2236,5.97961 3.9375,-0.71683 2.1156,-2.38319 z"
             style="fill:#3d3d3d;fill-opacity:1;stroke:none;stroke-width:0.16132225px;stroke-linecap:butt;stroke-linejoin:miter;stroke-opacity:1" />
          <path
             style="fill:#3d3d3d;fill-opacity:1;stroke:none;stroke-width:0.18499862px;stroke-linecap:butt;stroke-linejoin:miter;stroke-opacity:1"
             d="m 268.14659,187.5331 c -1.00695,-1.74009 -2.14559,-0.27301 -3.22032,0.10247 -1.2787,0.66129 -2.1263,-2.51254 -3.37496,-1.6314 -1.08055,1.53659 -2.11571,3.88017 -3.62844,2.96347 -1.32982,-0.83725 -2.91125,-0.90553 -3.92995,1.37135 -0.45521,0.85717 -2.02309,3.74559 -0.78909,1.47124 1.0895,-2.20179 2.73523,-2.87287 4.12527,-1.53325 1.31854,0.83231 2.83198,0.85165 4.02915,-0.70158 1.25276,-1.65326 2.68691,0.0194 4.00618,0.34089 2.92419,5.97961 5.17809,-0.71683 2.78216,-2.38319 z"
             id="path1265"
             inkscape:connector-curvature="0"
             sodipodi:nodetypes="cccccccccc" />
        </g>
        <g
           id="g1289"
           transform="matrix(0.53057484,0,0,-0.7874982,120.30077,324.70342)">
          <path
             sodipodi:nodetypes="cccccccccc"
             inkscape:connector-curvature="0"
             id="path1269"
             d="m 259.68973,173.97694 c -1.00695,-1.74009 -2.14559,-0.27301 -3.22032,0.10247 -1.2787,0.66129 -2.1263,-2.51254 -3.37496,-1.6314 -1.08055,1.53659 -2.11571,3.88017 -3.62844,2.96347 -1.32982,-0.83725 -2.91125,-0.90553 -3.92995,1.37135 -0.45521,0.85717 -2.02309,3.74559 -0.78909,1.47124 1.0895,-2.20179 2.73523,-2.87287 4.12527,-1.53325 1.31854,0.83231 2.83198,0.85165 4.02915,-0.70158 1.25276,-1.65326 2.68691,0.0194 4.00618,0.34089 2.92419,5.97961 5.17809,-0.71683 2.78216,-2.38319 z"
             style="fill:#3d3d3d;fill-opacity:1;stroke:none;stroke-width:0.18499862px;stroke-linecap:butt;stroke-linejoin:miter;stroke-opacity:1" />
          <path
             style="fill:#3d3d3d;fill-opacity:1;stroke:none;stroke-width:0.18499862px;stroke-linecap:butt;stroke-linejoin:miter;stroke-opacity:1"
             d="m 271.00679,173.24551 c -1.00695,-1.74009 -2.14559,-0.27301 -3.22032,0.10247 -1.2787,0.66129 -2.1263,-2.51254 -3.37496,-1.6314 -1.08055,1.53659 -2.11571,3.88017 -3.62844,2.96347 -1.32982,-0.83725 -2.91125,-0.90553 -3.92995,1.37135 -0.45521,0.85717 -2.02309,3.74559 -0.78909,1.47124 1.0895,-2.20179 2.73523,-2.87287 4.12527,-1.53325 1.31854,0.83231 2.83198,0.85165 4.02915,-0.70158 1.25276,-1.65326 2.68691,0.0194 4.00618,0.34089 2.92419,5.97961 5.17809,-0.71683 2.78216,-2.38319 z"
             id="path1271"
             inkscape:connector-curvature="0"
             sodipodi:nodetypes="cccccccccc" />
          <path
             sodipodi:nodetypes="cccccccccc"
             inkscape:connector-curvature="0"
             id="path1273"
             d="m 269.09999,174.83302 c -1.00695,-1.74009 -2.14559,-0.27301 -3.22032,0.10247 -1.2787,0.66129 -2.1263,-2.51254 -3.37496,-1.6314 -1.08055,1.53659 -2.11571,3.88017 -3.62844,2.96347 -1.32982,-0.83725 -2.91125,-0.90553 -3.92995,1.37135 -0.45521,0.85717 -2.02309,3.74559 -0.78909,1.47124 1.0895,-2.20179 2.73523,-2.87287 4.12527,-1.53325 1.31854,0.83231 2.83198,0.85165 4.02915,-0.70158 1.25276,-1.65326 2.68691,0.0194 4.00618,0.34089 2.92419,5.97961 5.17809,-0.71683 2.78216,-2.38319 z"
             style="fill:#3d3d3d;fill-opacity:1;stroke:none;stroke-width:0.18499862px;stroke-linecap:butt;stroke-linejoin:miter;stroke-opacity:1" />
          <path
             sodipodi:nodetypes="cccccccccc"
             inkscape:connector-curvature="0"
             id="path1275"
             d="m 269.67339,177.86779 c -1.00695,-1.74009 -2.14559,-0.27301 -3.22032,0.10247 -1.2787,0.66129 -2.1263,-2.51254 -3.37496,-1.6314 -1.08055,1.53659 -2.11571,3.88017 -3.62844,2.96347 -1.32982,-0.83725 -2.91125,-0.90553 -3.92995,1.37135 -0.45521,0.85717 -2.02309,3.74559 -0.78909,1.47124 1.0895,-2.20179 2.73523,-2.87287 4.12527,-1.53325 1.31854,0.83231 2.83198,0.85165 4.02915,-0.70158 1.25276,-1.65326 2.68691,0.0194 4.00618,0.34089 2.92419,5.97961 5.17809,-0.71683 2.78216,-2.38319 z"
             style="fill:#3d3d3d;fill-opacity:1;stroke:none;stroke-width:0.18499862px;stroke-linecap:butt;stroke-linejoin:miter;stroke-opacity:1" />
          <path
             style="fill:#3d3d3d;fill-opacity:1;stroke:none;stroke-width:0.18499862px;stroke-linecap:butt;stroke-linejoin:miter;stroke-opacity:1"
             d="m 268.14659,171.658 c -1.00695,-1.74009 -2.14559,-0.27301 -3.22032,0.10247 -1.2787,0.66129 -2.1263,-2.51254 -3.37496,-1.6314 -1.08055,1.53659 -2.11571,3.88017 -3.62844,2.96347 -1.32982,-0.83725 -2.91125,-0.90553 -3.92995,1.37135 -0.45521,0.85717 -2.02309,3.74559 -0.78909,1.47124 1.0895,-2.20179 2.73523,-2.87287 4.12527,-1.53325 1.31854,0.83231 2.83198,0.85165 4.02915,-0.70158 1.25276,-1.65326 2.68691,0.0194 4.00618,0.34089 2.92419,5.97961 5.17809,-0.71683 2.78216,-2.38319 z"
             id="path1277"
             inkscape:connector-curvature="0"
             sodipodi:nodetypes="cccccccccc" />
          <path
             sodipodi:nodetypes="cccccccccc"
             inkscape:connector-curvature="0"
             id="path1279"
             d="m 268.14659,180.12472 c -1.00695,-1.74009 -2.14559,-0.27301 -3.22032,0.10247 -1.2787,0.66129 -2.1263,-2.51254 -3.37496,-1.6314 -1.08055,1.53659 -2.11571,3.88017 -3.62844,2.96347 -1.32982,-0.83725 -2.91125,-0.90553 -3.92995,1.37135 -0.45521,0.85717 -2.02309,3.74559 -0.78909,1.47124 1.0895,-2.20179 2.73523,-2.87287 4.12527,-1.53325 1.31854,0.83231 2.83198,0.85165 4.02915,-0.70158 1.25276,-1.65326 2.68691,0.0194 4.00618,0.34089 2.92419,5.97961 5.17809,-0.71683 2.78216,-2.38319 z"
             style="fill:#3d3d3d;fill-opacity:1;stroke:none;stroke-width:0.18499862px;stroke-linecap:butt;stroke-linejoin:miter;stroke-opacity:1" />
          <path
             style="fill:#3d3d3d;fill-opacity:1;stroke:none;stroke-width:0.18499862px;stroke-linecap:butt;stroke-linejoin:miter;stroke-opacity:1"
             d="m 268.14659,181.71223 c -1.00695,-1.74009 -2.14559,-0.27301 -3.22032,0.10247 -1.2787,0.66129 -2.1263,-2.51254 -3.37496,-1.6314 -1.08055,1.53659 -2.11571,3.88017 -3.62844,2.96347 -1.32982,-0.83725 -2.91125,-0.90553 -3.92995,1.37135 -0.45521,0.85717 -2.02309,3.74559 -0.78909,1.47124 1.0895,-2.20179 2.73523,-2.87287 4.12527,-1.53325 1.31854,0.83231 2.83198,0.85165 4.02915,-0.70158 1.25276,-1.65326 2.68691,0.0194 4.00618,0.34089 2.92419,5.97961 5.17809,-0.71683 2.78216,-2.38319 z"
             id="path1281"
             inkscape:connector-curvature="0"
             sodipodi:nodetypes="cccccccccc" />
          <path
             sodipodi:nodetypes="cccccccccc"
             inkscape:connector-curvature="0"
             id="path1283"
             d="m 267.99169,184.3691 c -0.76571,-1.74009 -1.63155,-0.27301 -2.44879,0.10247 -0.97234,0.66129 -1.61687,-2.51254 -2.56637,-1.6314 -0.82167,1.53659 -1.60883,3.88017 -2.75913,2.96347 -1.01122,-0.83725 -2.21376,-0.90553 -2.9884,1.37135 -0.34615,0.85717 -1.53839,3.74559 -0.60004,1.47124 0.82848,-2.20179 2.07992,-2.87287 3.13693,-1.53325 1.00264,0.83231 2.15348,0.85165 3.06383,-0.70158 0.95262,-1.65326 2.04317,0.0194 3.04637,0.34089 2.2236,5.97961 3.9375,-0.71683 2.1156,-2.38319 z"
             style="fill:#3d3d3d;fill-opacity:1;stroke:none;stroke-width:0.16132225px;stroke-linecap:butt;stroke-linejoin:miter;stroke-opacity:1" />
          <path
             style="fill:#3d3d3d;fill-opacity:1;stroke:none;stroke-width:0.18499862px;stroke-linecap:butt;stroke-linejoin:miter;stroke-opacity:1"
             d="m 268.14659,187.5331 c -1.00695,-1.74009 -2.14559,-0.27301 -3.22032,0.10247 -1.2787,0.66129 -2.1263,-2.51254 -3.37496,-1.6314 -1.08055,1.53659 -2.11571,3.88017 -3.62844,2.96347 -1.32982,-0.83725 -2.91125,-0.90553 -3.92995,1.37135 -0.45521,0.85717 -2.02309,3.74559 -0.78909,1.47124 1.0895,-2.20179 2.73523,-2.87287 4.12527,-1.53325 1.31854,0.83231 2.83198,0.85165 4.02915,-0.70158 1.25276,-1.65326 2.68691,0.0194 4.00618,0.34089 2.92419,5.97961 5.17809,-0.71683 2.78216,-2.38319 z"
             id="path1285"
             inkscape:connector-curvature="0"
             sodipodi:nodetypes="cccccccccc" />
          <ellipse
             style="opacity:1;fill:#3d3d3d;fill-opacity:1;stroke:none;stroke-width:2.54024887;stroke-miterlimit:4;stroke-dasharray:none;stroke-opacity:1"
             id="ellipse1287"
             cx="266.43289"
             cy="-176.72647"
             transform="scale(1,-1)"
             rx="8.4804459"
             ry="4.9498868" />
        </g>
      </g>
      <g
         id="g1297"
         transform="matrix(1.1100523,0,0,1,-40.810685,5.8594772)">
        <path
           sodipodi:nodetypes="cccccccccc"
           inkscape:connector-curvature="0"
           id="path1293"
           d="m 271.67141,171.00152 c -2.05965,-1.74009 -4.38869,-0.27301 -6.58698,0.10247 -2.61549,0.66129 -4.34923,-2.51254 -6.9033,-1.6314 -2.21019,1.53659 -4.32757,3.88017 -7.42178,2.96347 -2.72005,-0.83725 -5.95481,-0.90553 -8.03848,1.37135 -0.93111,0.85717 -4.13813,3.74559 -1.61405,1.47124 2.22851,-2.20179 5.59476,-2.87287 8.43801,-1.53325 2.69701,0.83231 5.79267,0.85165 8.24143,-0.70158 2.56244,-1.65326 5.4959,0.0194 8.19441,0.34089 5.98127,5.97961 10.59149,-0.71683 5.69074,-2.38319 z"
           style="fill:#3d3d3d;fill-opacity:1;stroke:none;stroke-width:0.26458332px;stroke-linecap:butt;stroke-linejoin:miter;stroke-opacity:1" />
        <path
           inkscape:connector-curvature="0"
           id="path1295"
           d="m 260.53636,169.65586 c 1.43324,0.82266 1.29583,0.55156 0,0 z m 9.9503,0.68574 c 1.85784,0.40905 3.20419,2.92506 1.41542,4.27885 -0.9838,1.32015 -5.42732,0.0113 -2.24049,1.0871 2.13256,0.93686 5.45096,-1.4864 3.62635,-3.65747 -0.75683,-0.78693 -1.78973,-1.32094 -2.80128,-1.70848 z m -11.1864,1.48622 c -2.42661,0.0714 -4.27369,2.24464 -6.79829,1.98979 -2.64578,0.3316 -5.00145,-1.54149 -7.59399,-1.21186 -1.68356,0.0923 -4.00836,3.27162 -4.18043,3.09625 2.3124,-2.59417 6.29909,-3.3453 9.40366,-1.79319 2.79124,0.84546 5.97362,0.46165 8.40197,-1.18622 2.0008,-1.11701 5.67192,0.58784 6.65396,0.43835 -1.85028,-0.78835 -3.90454,-1.1051 -5.88688,-1.33315 z"
           style="fill:#00a7b9;fill-opacity:1;stroke:none;stroke-width:0.26458332px;stroke-linecap:butt;stroke-linejoin:miter;stroke-opacity:1" />
      </g>
      <g
         transform="matrix(1.1100523,0,0,1,-46.016791,8.03401)"
         id="g1301">
        <path
           style="fill:#3d3d3d;fill-opacity:1;stroke:none;stroke-width:0.34325168px;stroke-linecap:butt;stroke-linejoin:miter;stroke-opacity:1"
           d="m 274.67428,172.41296 c -2.76876,-2.17861 -5.89968,-0.34181 -8.85482,0.12829 -3.51598,0.82794 -5.84663,-3.14572 -9.28005,-2.04252 -2.97114,1.92382 -5.81752,4.858 -9.97704,3.71028 -3.65654,-1.04824 -8.005,-1.13373 -10.80606,1.71694 -1.25168,1.07319 -5.56286,4.68951 -2.16976,1.84201 2.99577,-2.75666 7.52099,-3.59686 11.34315,-1.91964 3.62557,1.04206 7.78704,1.06627 11.07889,-0.87839 3.44467,-2.06989 7.38809,0.0243 11.01568,0.4268 8.04057,7.48652 14.23805,-0.89748 7.65001,-2.98377 z"
           id="path1299"
           inkscape:connector-curvature="0"
           sodipodi:nodetypes="cccccccccc" />
      </g>
      <path
         style="fill:#3d0d00;fill-opacity:1;stroke:none;stroke-width:0.22180566px;stroke-linecap:butt;stroke-linejoin:miter;stroke-opacity:1"
         d="m 275.66617,180.4885 c -1.46397,0.74499 -2.92794,1.48997 -4.39192,2.23496 0.95776,1.55971 1.82327,3.1923 3.01949,4.58924 0.49541,0.40502 1.27581,0.55375 1.85356,0.25672 0.85529,-0.60223 1.06198,-1.75881 0.91311,-2.736 -0.21535,-1.51312 -0.76363,-2.96069 -1.39424,-4.34492 z m -0.0663,0.60997 c 0.62421,1.46888 1.25456,3.01741 1.17804,4.64339 -0.0724,0.61265 -0.37392,1.25372 -0.9511,1.53579 -0.62603,0.14982 -1.30535,-0.0989 -1.64291,-0.65722 -0.78077,-0.98487 -1.34692,-2.11507 -2.00279,-3.18244 -0.21171,-0.27071 -0.30861,-0.50877 0.10168,-0.59912 1.10569,-0.58014 2.21138,-1.16027 3.31708,-1.7404 z"
         id="path1303"
         inkscape:connector-curvature="0" />
      <path
         style="fill:#3d0d00;fill-opacity:1;stroke:none;stroke-width:0.26458332px;stroke-linecap:butt;stroke-linejoin:miter;stroke-opacity:1"
         d="m 271.27425,182.72346 -12.78129,9.25725 1.48759,0.48535 11.73053,-9.25406 z"
         id="path1305"
         inkscape:connector-curvature="0"
         sodipodi:nodetypes="ccccc" />
      <path
         style="fill:#3d0d00;fill-opacity:1;stroke:none;stroke-width:0.26458332px;stroke-linecap:butt;stroke-linejoin:miter;stroke-opacity:1"
         d="m 276.25218,179.86735 -1.03727,0.92237 0.38496,0.30875 1.01277,-0.77776 z"
         id="path1307"
         inkscape:connector-curvature="0"
         sodipodi:nodetypes="ccccc" />
      <path
         inkscape:connector-curvature="0"
         id="path1309"
         d="m 275.57732,180.94231 c -1.26347,0.66486 -2.52695,1.32972 -3.79043,1.99457 0.82658,1.39196 1.57357,2.84894 2.60594,4.09563 0.42758,0.36146 1.1011,0.4942 1.59973,0.22912 0.73815,-0.53746 0.91653,-1.56964 0.78805,-2.44174 -0.18585,-1.35036 -0.65903,-2.64223 -1.20329,-3.87758 z m -0.0573,0.54436 c 0.53875,1.3109 1.08276,2.69288 1.01671,4.14398 -0.0625,0.54674 -0.3227,1.11885 -0.82085,1.37059 -0.54027,0.1337 -1.12657,-0.0882 -1.41791,-0.58653 -0.67383,-0.87894 -1.16246,-1.88759 -1.7285,-2.84015 -0.18272,-0.24159 -0.26635,-0.45404 0.0877,-0.53467 0.95427,-0.51776 1.90852,-1.03548 2.8628,-1.55322 z"
         style="fill:#3d0d00;fill-opacity:1;stroke:none;stroke-width:0.19466162px;stroke-linecap:butt;stroke-linejoin:miter;stroke-opacity:1" />
      <path
         style="fill:#3d0d00;fill-opacity:1;stroke:none;stroke-width:0.1263378px;stroke-linecap:butt;stroke-linejoin:miter;stroke-opacity:1"
         d="m 276.00288,185.58621 c -0.0932,0.17893 -0.2163,0.33967 -0.383,0.46251 -0.29788,0.16027 -0.68107,0.11926 -0.97971,-0.0486 0.0202,0.0318 0.039,0.0647 0.0596,0.0961 0.24654,0.26406 0.63511,0.36108 0.92261,0.16743 0.18456,-0.17026 0.30548,-0.41031 0.38055,-0.67748 z"
         id="path1311"
         inkscape:connector-curvature="0" />
      <path
         sodipodi:nodetypes="ccccc"
         inkscape:connector-curvature="0"
         id="path1313"
         d="m 276.41755,179.99964 -1.03727,0.92237 0.38496,0.30875 1.01277,-0.77776 z"
         style="fill:#3d0d00;fill-opacity:1;stroke:none;stroke-width:0.26458332px;stroke-linecap:butt;stroke-linejoin:miter;stroke-opacity:1" />
      <path
         style="fill:#ffffff;fill-opacity:1;stroke:none;stroke-width:0.13399868px;stroke-linecap:butt;stroke-linejoin:miter;stroke-opacity:1"
         d="m 279.8877,183.17928 c -0.10454,-0.62035 -1.35251,-2.5883 -2.36588,-3.66852 l -0.49965,0.77122 c 0.18405,-0.046 2.18104,2.88968 2.86553,2.8973 z"
         id="path1315"
         inkscape:connector-curvature="0"
         sodipodi:nodetypes="cccc" />
    </g>
    <path
       sodipodi:nodetypes="ccccccccccccccc"
       inkscape:connector-curvature="0"
       id="path1319"
       d="m 195.59884,6.6443381 c -0.25753,9.4e-5 -0.5305,0.05526 -0.77963,0.1861481 -0.0926,0.048678 -0.16098,0.1206851 -0.21135,0.2077108 -0.0816,0.010335 -1.29849,-0.998379 -1.35848,-0.9664343 -0.477,0.2538145 -0.41484,2.3439639 -0.41484,2.3439639 0,0 1.35435,3.0627884 2.44462,2.0475224 0.0744,-0.06925 0.14194,-0.14387 0.2047,-0.222091 0.2822,0.119594 0.76752,0.271722 0.8515,-0.06345 0.06,-0.2395245 -0.16038,-0.5550907 -0.39421,-0.8097838 0.009,-0.024803 0.0184,-0.049283 0.0261,-0.074111 0.43411,0.2938998 1.03078,0.6250815 1.28804,0.4238582 0.25469,-0.1992173 -0.47008,-0.9229186 -1.09506,-1.4750731 -0.69622,-0.5760047 0.78964,-0.6870405 0.41363,-1.2375929 -0.15971,-0.2082135 -0.5458,-0.3608104 -0.975,-0.3606553 z"
       style="fill:#2d414b;fill-opacity:1;stroke:none;stroke-width:0.13151251px;stroke-linecap:butt;stroke-linejoin:miter;stroke-opacity:1" />
  </g>
</svg>
